<svg xmlns="http://www.w3.org/2000/svg"><defs><symbol id="si-battledotnet" viewBox="0 0 24 24"><path fill="#4381C3" d="M18.94 8.296C15.9 6.892 11.534 6 7.426 6.332c.206-1.36.714-2.308 1.548-2.508 1.148-.275 2.4.48 3.594 1.854.782.102 1.71.28 2.355.429C12.747 2.013 9.828-.282 7.607.565c-1.688.644-2.553 2.97-2.448 6.094-2.2.468-3.915 1.3-5.013 2.495-.056.065-.181.227-.137.305.034.058.146-.008.194-.04 1.274-.89 2.904-1.373 5.027-1.676.303 3.333 1.713 7.56 4.055 10.952-1.28.502-2.356.536-2.946-.087-.812-.856-.784-2.318-.19-4.04a26.764 26.764 0 0 1-.807-2.254c-2.459 3.934-2.986 7.61-1.143 9.11 1.402 1.14 3.847.725 6.502-.926 1.505 1.672 3.083 2.74 4.667 3.094.084.015.287.043.332-.034.034-.06-.08-.124-.131-.149-1.408-.657-2.64-1.828-3.964-3.515 2.735-1.929 5.691-5.263 7.457-8.988 1.076.86 1.64 1.773 1.398 2.595-.336 1.131-1.615 1.84-3.403 2.185a27.697 27.697 0 0 1-1.548 1.826c4.634.16 8.08-1.22 8.458-3.565.286-1.786-1.295-3.696-4.053-5.17.696-2.139.832-4.04.346-5.588-.029-.08-.106-.27-.196-.27-.068 0-.067.13-.063.187.135 1.547-.263 3.2-1.062 5.19zm-8.533 9.869c-1.96-3.145-3.09-6.849-3.082-10.594 3.702-.124 7.474.748 10.714 2.627-1.743 3.269-4.385 6.1-7.633 7.966h.001z"/></symbol><symbol id="si-bazel" viewBox="0 0 24 24"><path fill="#43A047" d="m11.7473 23.8198-5.4987-5.4987v-5.5349l5.4987 5.4986v5.535zm-.1036-17.6412-.0001-.0001.1768-.1768L5.9986.1799.1768 6.0018l.0001.0001 5.8217 5.8271 5.6451-5.6504zM0 6.5323v5.5347l5.7486 5.7539v-5.5347l-.1035-.1035.0001-.0001L0 6.5323zm17.6478 5.6504-5.6505-5.6505-5.6452 5.6504 5.6452 5.6453 5.6505-5.6452zm.1036 5.8885v-5.2853l-5.5042 5.4991v5.5351l5.5042-5.4991v-.2498zM24 6.5323l-5.6451 5.6503.0001.0001-.1036.1035v5.5346L24 12.067V6.5323zm-.1769-.5304.0001-.0001L18.0014.18l-5.8273 5.822 5.8273 5.8272 5.8217-5.8273z"/></symbol><symbol id="si-beatport" viewBox="0 0 24 24"><path fill="#01FF95" d="M21.429 17.055a7.114 7.114 0 0 1-.794 3.246 6.917 6.917 0 0 1-2.181 2.492 6.698 6.698 0 0 1-3.063 1.163 6.653 6.653 0 0 1-3.239-.434 6.796 6.796 0 0 1-2.668-1.932 7.03 7.03 0 0 1-1.481-2.983 7.124 7.124 0 0 1 .049-3.345 7.015 7.015 0 0 1 1.566-2.937l-4.626 4.73-2.421-2.479 5.201-5.265a3.791 3.791 0 0 0 1.066-2.675V0h3.41v6.613a7.172 7.172 0 0 1-.519 2.794 7.02 7.02 0 0 1-1.559 2.353l-.153.156a6.768 6.768 0 0 1 3.49-1.725 6.687 6.687 0 0 1 3.845.5 6.873 6.873 0 0 1 2.959 2.564 7.118 7.118 0 0 1 1.118 3.8Zm-3.089 0a3.89 3.89 0 0 0-.611-2.133 3.752 3.752 0 0 0-1.666-1.424 3.65 3.65 0 0 0-2.158-.233 3.704 3.704 0 0 0-1.92 1.037 3.852 3.852 0 0 0-1.031 1.955 3.908 3.908 0 0 0 .205 2.213c.282.7.76 1.299 1.374 1.721a3.672 3.672 0 0 0 2.076.647 3.637 3.637 0 0 0 2.635-1.096c.347-.351.622-.77.81-1.231.188-.461.285-.956.286-1.456Z"/></symbol><symbol id="si-beats" viewBox="0 0 24 24"><path fill="#005571" d="M2.625 0v15h8.25a7.5 7.5 0 0 0 0-15zm17.016 11.705c-1.571 3.261-4.91 5.517-8.766 5.517h-8.25V24h11.25a7.5 7.5 0 0 0 5.766-12.295z"/></symbol><symbol id="si-beatsbydre" viewBox="0 0 24 24"><path fill="#E01F3D" d="M12.0099 15.5996A3.5995 3.5995 0 1 0 8.4103 12a3.5995 3.5995 0 0 0 3.5996 3.5996zm0-15.5981a11.9985 11.9985 0 0 0-3.5996.552v6.6471A5.9992 5.9992 0 1 1 6.0106 12V1.6033A11.9985 11.9985 0 1 0 12.01.0015z"/></symbol><symbol id="si-beatstars" viewBox="0 0 24 24"><path fill="#EB0000" d="m17.217 11.996-3.308 1.079v3.478l-2.052-2.818-3.309 1.079 2.043-2.818-2.043-2.819 3.31 1.08 2.05-2.819v3.487zm0 0v7.277H6.854V4.584h10.363v7.412l4.585-1.49v-7.67L19.135 0H2.198v24h16.92l2.684-2.685v-7.83z"/></symbol><symbol id="si-beekeeperstudio" viewBox="0 0 24 24"><path fill="#FAD83B" d="M21.0092 4.6236 13.8544.5046c-1.1652-.6728-2.5929-.6728-3.7416 0L8.242 1.5877v10.4205c0 1.3292.7057 2.5764 1.8708 3.2492.5744.3282 1.2308.5088 1.8708.5088s1.2964-.1641 1.8708-.5088c1.165-.6728 1.8707-1.9036 1.8707-3.2492 0-1.3292-.7056-2.5764-1.8707-3.2492-.5744-.3282-1.2308-.5087-1.8708-.5087V5.9036c.64 0 1.2964.164 1.8708.5087l2.0348 1.1815c1.1652.6729 1.8708 1.9036 1.8708 3.2493v2.3466c0 1.3293-.7056 2.5765-1.8708 3.2493l-2.0348 1.1815c-.5744.3282-1.2308.5087-1.8708.5087s-1.2964-.164-1.8708-.5087L8.078 16.439c-1.165-.6728-1.8707-1.9036-1.8707-3.2492V2.7528L2.9744 4.6236c-1.1652.6728-1.8708 1.9036-1.8708 3.2492v8.2544c0 1.3292.7056 2.5764 1.8708 3.2492l7.1548 4.119c1.1652.6728 2.5928.6728 3.7416 0l7.1548-4.119c1.1652-.6728 1.8708-1.9036 1.8708-3.2492V7.8728a3.8203 3.8203 0 0 0-1.8872-3.2492ZM9.6862 9.0544c-.2134.164-.3939.3446-.558.5415V6.9703l.558-.3283v2.4124Zm1.4276-.6893c-.1969.0493-.3774.0985-.5579.1805v-2.363c.1805-.082.3774-.1313.558-.1805v2.363Z"/></symbol><symbol id="si-behance" viewBox="0 0 24 24"><path fill="#1769FF" d="M16.969 16.927a2.561 2.561 0 0 0 1.901.677 2.501 2.501 0 0 0 1.531-.475c.362-.235.636-.584.779-.99h2.585a5.091 5.091 0 0 1-1.9 2.896 5.292 5.292 0 0 1-3.091.88 5.839 5.839 0 0 1-2.284-.433 4.871 4.871 0 0 1-1.723-1.211 5.657 5.657 0 0 1-1.08-1.874 7.057 7.057 0 0 1-.383-2.393c-.005-.8.129-1.595.396-2.349a5.313 5.313 0 0 1 5.088-3.604 4.87 4.87 0 0 1 2.376.563c.661.362 1.231.87 1.668 1.485a6.2 6.2 0 0 1 .943 2.133c.194.821.263 1.666.205 2.508h-7.699c-.063.79.184 1.574.688 2.187ZM6.947 4.084a8.065 8.065 0 0 1 1.928.198 4.29 4.29 0 0 1 1.49.638c.418.303.748.711.958 1.182.241.579.357 1.203.341 1.83a3.506 3.506 0 0 1-.506 1.961 3.726 3.726 0 0 1-1.503 1.287 3.588 3.588 0 0 1 2.027 1.437c.464.747.697 1.615.67 2.494a4.593 4.593 0 0 1-.423 2.032 3.945 3.945 0 0 1-1.163 1.413 5.114 5.114 0 0 1-1.683.807 7.135 7.135 0 0 1-1.928.259H0V4.084h6.947Zm-.235 12.9c.308.004.616-.029.916-.099a2.18 2.18 0 0 0 .766-.332c.228-.158.411-.371.534-.619.142-.317.208-.663.191-1.009a2.08 2.08 0 0 0-.642-1.715 2.618 2.618 0 0 0-1.696-.505h-3.54v4.279h3.471Zm13.635-5.967a2.13 2.13 0 0 0-1.654-.619 2.336 2.336 0 0 0-1.163.259 2.474 2.474 0 0 0-.738.62 2.359 2.359 0 0 0-.396.792c-.074.239-.12.485-.137.734h4.769a3.239 3.239 0 0 0-.679-1.785l-.002-.001Zm-13.813-.648a2.254 2.254 0 0 0 1.423-.433c.399-.355.607-.88.56-1.413a1.916 1.916 0 0 0-.178-.891 1.298 1.298 0 0 0-.495-.533 1.851 1.851 0 0 0-.711-.274 3.966 3.966 0 0 0-.835-.073H3.241v3.631h3.293v-.014ZM21.62 5.122h-5.976v1.527h5.976V5.122Z"/></symbol><symbol id="si-bem" viewBox="0 0 24 24"><path fill="#000000" d="M0 5.163h5.61v1.65H0Zm0-3.065h5.61v1.65H0Zm10.067 6.106H0v1.65h9.69c1.06 0 3.536.024 4.455 1.51v-.92c-.448-1.462-1.768-2.24-4.078-2.24Zm.023 3.065H0v1.65h9.69c2.357 0 3.842.095 4.455.425v-.731c-.471-1.155-2.451-1.344-4.055-1.344Zm-.023 7.78H0V17.4h9.69c1.06 0 3.536-.024 4.455-1.509v.92c-.448 1.461-1.768 2.24-4.078 2.24zm.023-3.065H0v-1.65h9.69c2.357 0 3.842-.094 4.455-.424v.73c-.471 1.156-2.451 1.344-4.055 1.344zm6.507 5.918H24v-1.014h-7.19c-.637 0-2.146-.023-2.688-.896v.566c.26.872 1.06 1.344 2.475 1.344zm-.023-1.863h7.403v-1.013H16.81c-1.439 0-2.334-.047-2.688-.26v.448c.283.708 1.485.825 2.452.825z"/></symbol><symbol id="si-bento" viewBox="0 0 24 24"><path fill="#768CFF" d="M0 10.435c0-.256.051-.512.153-.758.233-.56.854-1.046 2.095-2.018l6.206-4.856c1.241-.972 1.862-1.458 2.577-1.64.63-.16 1.308-.16 1.938 0 .715.183 1.336.668 2.577 1.64l6.206 4.856c1.241.972 1.862 1.458 2.095 2.018.102.246.153.502.153.758v3.13c0 .256-.051.512-.153.758-.233.56-.854 1.046-2.095 2.017l-6.206 4.857c-1.241.972-1.862 1.457-2.577 1.64-.63.16-1.308.16-1.938 0-.715-.183-1.336-.668-2.577-1.64L2.248 16.34C1.007 15.37.386 14.883.153 14.323A1.971 1.971 0 0 1 0 13.565v-3.13Zm9.34-3.238.887.694c.62.485.93.728 1.289.82.315.08.653.08.968 0 .358-.092.668-.335 1.29-.82l.886-.694c.62-.486.93-.729 1.047-1.009a.975.975 0 0 0 0-.758c-.116-.28-.427-.523-1.047-1.008l-.887-.694c-.62-.486-.93-.729-1.289-.82a1.984 1.984 0 0 0-.968 0c-.358.091-.668.334-1.29.82l-.886.694c-.62.485-.93.728-1.047 1.008a.975.975 0 0 0 0 .758c.116.28.427.523 1.047 1.009Zm5.91 4.625.887.694c.62.486.931.729 1.29.82.314.08.653.08.968 0 .358-.091.668-.334 1.288-.82l.887-.694c.62-.485.931-.728 1.047-1.008a.976.976 0 0 0 0-.758c-.116-.28-.426-.523-1.047-1.009l-.887-.694c-.62-.485-.93-.728-1.288-.82a1.984 1.984 0 0 0-.969 0c-.358.092-.668.335-1.289.82l-.886.694c-.621.486-.931.729-1.047 1.009a.975.975 0 0 0 0 .758c.116.28.426.523 1.047 1.008Zm-11.82 0 6.797 5.32c.62.486.93.728 1.289.82.315.08.653.08.968 0 .358-.092.668-.334 1.29-.82l.886-.694c.62-.486.93-.729 1.047-1.009a.974.974 0 0 0 0-.758c-.116-.28-.427-.523-1.047-1.008l-6.797-5.32c-.62-.485-.931-.728-1.29-.82a1.984 1.984 0 0 0-.968 0c-.358.092-.668.335-1.288.82l-.887.694c-.62.486-.931.729-1.047 1.009a.975.975 0 0 0 0 .758c.116.28.426.523 1.047 1.008Z"/></symbol><symbol id="si-bentobox" viewBox="0 0 24 24"><path fill="#F15541" d="m7.406 3.821 2.723-2.725a3.74 3.74 0 0 1 5.29 0l.078.078a3.74 3.74 0 0 1 0 5.29l-2.723 2.723-5.368-5.366Zm7.407 7.407 2.723-2.723a3.74 3.74 0 0 1 5.29 0l.078.078a3.74 3.74 0 0 1 0 5.29l-2.725 2.723-5.369-5.368h.003ZM0 11.228l2.723-2.723a3.74 3.74 0 0 1 5.29 0l.079.078a3.742 3.742 0 0 1 0 5.29l-2.724 2.723L0 11.228Zm7.406 7.406 2.723-2.723a3.74 3.74 0 0 1 5.29 0l.078.078a3.74 3.74 0 0 1 0 5.29L12.774 24l-5.368-5.366Z"/></symbol><symbol id="si-bereal" viewBox="0 0 24 24"><path fill="#000000" d="M6.501 10.727c.593 0 1.029.196 1.307.587.279.393.418.857.418 1.391v.312H5.674a.97.97 0 0 0 .343.596c.182.148.422.223.718.223.172 0 .327-.023.464-.066.163-.055.324-.119.48-.192l.297.733a1.73 1.73 0 0 1-.644.296c-.252.063-.46.093-.62.093-.656 0-1.172-.18-1.55-.537-.377-.36-.565-.84-.565-1.441 0-.603.17-1.086.51-1.45.342-.364.806-.545 1.394-.545Zm8.835 0c.593 0 1.028.196 1.307.587.278.393.417.857.417 1.391v.312h-2.552c.038.235.16.447.344.596.182.148.421.223.718.223.171 0 .326-.023.464-.066a4.53 4.53 0 0 0 .48-.192l.297.733a1.728 1.728 0 0 1-.644.296 2.67 2.67 0 0 1-.62.093c-.656 0-1.173-.18-1.55-.537-.377-.36-.566-.84-.566-1.441 0-.603.17-1.086.512-1.45.34-.364.805-.545 1.393-.545Zm3.875.041c.974 0 1.603.502 1.603 1.26v2.579h-1.027v-.561h-.02c-.215.385-.616.62-1.111.62-.756 0-1.265-.473-1.265-1.136v-.008c0-.683.53-1.083 1.465-1.144l.931-.055v-.231c0-.335-.217-.541-.618-.541-.383 0-.615.18-.664.421l-.007.03h-.939l.004-.04c.056-.696.653-1.194 1.648-1.194Zm4.789 2.8v1.039h-1.04v-1.039H24ZM1.982 9.308c.515 0 .934.114 1.257.34.322.225.484.607.484 1.14 0 .198-.046.376-.137.534-.09.16-.21.296-.355.41.24.125.436.294.59.506.153.213.23.483.23.81 0 .489-.171.871-.512 1.146-.34.275-.795.413-1.362.413H0V9.308h1.982Zm8.702 0c.578 0 1.072.133 1.483.398.411.265.617.675.617 1.231 0 .327-.085.609-.254.846a1.714 1.714 0 0 1-.652.549l1.304 2.275h-1.077l-1.124-2.025a3.626 3.626 0 0 1-.367.015h-.585v2.01H9.022V9.308h1.662ZM22.448 9.3v5.307h-1.076V9.3h1.076Zm-2.66 3.661-.777.049c-.397.025-.605.192-.605.46v.007c0 .277.229.442.584.442.46 0 .797-.294.797-.688l.001-.27ZM2.17 12.285H1.007v1.489h1.092c.27 0 .488-.063.652-.188a.622.622 0 0 0 .246-.53c0-.25-.076-.44-.226-.572-.151-.132-.352-.199-.601-.199Zm4.308-.694a.75.75 0 0 0-.523.19c-.14.128-.232.315-.273.558h1.584c-.052-.253-.146-.442-.281-.564a.73.73 0 0 0-.507-.184Zm8.834 0a.75.75 0 0 0-.523.19c-.14.128-.231.315-.273.558h1.585c-.053-.253-.146-.442-.281-.564a.73.73 0 0 0-.508-.184Zm-4.659-1.441h-.624v1.62h.64c.301 0 .551-.06.749-.182.198-.122.296-.324.296-.604 0-.297-.093-.51-.28-.639-.188-.13-.448-.195-.781-.195Zm-8.819 0h-.827v1.316h.749c.281 0 .5-.053.66-.16.158-.105.238-.273.238-.501 0-.25-.073-.422-.219-.515-.146-.093-.346-.14-.601-.14Z"/></symbol><symbol id="si-betfair" viewBox="0 0 24 24"><path fill="#FFB80B" d="M20.218 3.14h-7.083v3.6H9.352l7.359 8.582L24 6.67h-3.782zM0 17.26h3.782v3.6h7.083v-3.6h3.783l-7.29-8.583z"/></symbol><symbol id="si-betterstack" viewBox="0 0 24 24"><path fill="#000000" d="m.7792 10.7479-.7654 6.6384a2.0957 2.0957 0 0 0 .696 1.8122l1.8965 1.672c.6494.5725 1.658.0145 1.5185-.84L2.6039 10.705c-.1723-1.056-1.7022-1.02-1.8247.0429Zm12.3733 8.714L8.63 6.431c-.5023-1.4472-2.6082-1.3845-3.0203.0898l-1.376 4.9234c-.156.559-.216.8822.0005 1.4212h.5225l1.8993 6.0694c.294.7324.9017 1.3009 1.6611 1.5538l2.8315.9435c1.2417.4137 2.4268-.7513 2.004-1.97zm10.6297-1.0332L15.7907 3.4433c-.6971-1.3072-2.5779-1.2727-3.227.0589l-1.9652 3.9555c-.2375.487-.1274.6608.07.9435.1585.2268.526.2447.6758.012.147-.2287.488-.2076.6058.0375l5.1379 10.687a2.735 2.735 0 0 0 2.1416 1.6016l2.7183.3476c1.4628.1924 2.5299-1.3539 1.8343-2.6582z"/></symbol><symbol id="si-bigcartel" viewBox="0 0 24 24"><path fill="#222222" d="M12 13.068v-1.006c0-.63.252-1.256.88-1.508l7.79-4.9c.503-.252.755-.88.755-1.51V0L12 6.03 2.575 0v12.69c0 3.394 1.51 6.284 4.02 7.917L11.875 24l5.28-3.393c2.513-1.51 4.02-4.398 4.02-7.916V7.036L12 13.068z"/></symbol><symbol id="si-bigbasket" viewBox="0 0 24 24"><path fill="#A5CD39" d="M11.543 12.989a3.352 3.352 0 0 0-.871-1.375 2.251 2.251 0 0 0-1.474-.503 2.276 2.276 0 0 0-1.541.536 2.953 2.953 0 0 0-.973 1.375 5.609 5.609 0 0 0-.335 1.845 5.42 5.42 0 0 0 .335 1.809c.192.548.528 1.034.973 1.407.441.339.985.516 1.541.503a2.08 2.08 0 0 0 1.945-1.072h-.002a4.92 4.92 0 0 0 .67-2.649 6.477 6.477 0 0 0-.268-1.876zM20.381.033H3.587A3.584 3.584 0 0 0 0 3.585V20.38a3.59 3.59 0 0 0 3.587 3.586h16.794c1.986 0 3.601-1.6 3.619-3.586V3.585A3.614 3.614 0 0 0 20.381.033zM10.64 3.034h1.911v5.744a3.47 3.47 0 0 0-1.911-.584v-5.16zm-.438 17.93a5.586 5.586 0 0 1-2.278-.369 3.522 3.522 0 0 1-1.174-.804 4.18 4.18 0 0 1-.335-.536l-.033-.134v.302C6.281 21.266 3.4 20.931 3.4 20.931V3.034h3.15v7.442h.034a3.675 3.675 0 0 1 1.541-1.309 4.825 4.825 0 0 1 2.079-.435 4.197 4.197 0 0 1 2.649.871 5.263 5.263 0 0 1 1.675 2.278v-.001c.372.951.565 1.963.569 2.984a8.418 8.418 0 0 1-.571 2.984 5.47 5.47 0 0 1-1.675 2.278 4.161 4.161 0 0 1-2.649.838zm9.828-3.111a5.47 5.47 0 0 1-1.675 2.278 4.173 4.173 0 0 1-2.649.838 5.587 5.587 0 0 1-2.278-.37 4.85 4.85 0 0 1-.362-.186c.444-.36.837-.778 1.168-1.245.353.127.726.189 1.101.185 2.38 0 3.15-2.502 3.15-4.484 0-1.96-.721-4.523-3.15-4.523a3.058 3.058 0 0 0-1.021.163 6.349 6.349 0 0 0-1.017-1.166c.107-.063.218-.121.331-.176a4.72 4.72 0 0 1 6.403 2.715l-.001.004c.373.951.566 1.963.571 2.984a8.409 8.409 0 0 1-.571 2.983z"/></symbol><symbol id="si-bigcommerce" viewBox="0 0 24 24"><path fill="#121118" d="M12.645 13.663h3.027c.861 0 1.406-.474 1.406-1.235 0-.717-.545-1.234-1.406-1.234h-3.027c-.1 0-.187.086-.187.172v2.125c.015.1.086.172.187.172zm0 4.896h3.128c.961 0 1.535-.488 1.535-1.35 0-.746-.545-1.35-1.535-1.35h-3.128c-.1 0-.187.087-.187.173v2.34c.015.115.086.187.187.187zM23.72.053l-8.953 8.93h1.464c2.281 0 3.63 1.435 3.63 3 0 1.235-.832 2.14-1.722 2.541-.143.058-.143.259.014.316 1.033.402 1.765 1.48 1.765 2.742 0 1.78-1.19 3.202-3.5 3.202h-6.342c-.1 0-.187-.086-.187-.172V13.85L.062 23.64c-.13.13-.043.359.143.359h23.631a.16.16 0 0 0 .158-.158V.182c.043-.158-.158-.244-.273-.13z"/></symbol><symbol id="si-bilibili" viewBox="0 0 24 24"><path fill="#00A1D6" d="M17.813 4.653h.854c1.51.054 2.769.578 3.773 1.574 1.004.995 1.524 2.249 1.56 3.76v7.36c-.036 1.51-.556 2.769-1.56 3.773s-2.262 1.524-3.773 1.56H5.333c-1.51-.036-2.769-.556-3.773-1.56S.036 18.858 0 17.347v-7.36c.036-1.511.556-2.765 1.56-3.76 1.004-.996 2.262-1.52 3.773-1.574h.774l-1.174-1.12a1.234 1.234 0 0 1-.373-.906c0-.356.124-.658.373-.907l.027-.027c.267-.249.573-.373.92-.373.347 0 .653.124.92.373L9.653 4.44c.071.071.134.142.187.213h4.267a.836.836 0 0 1 .16-.213l2.853-2.747c.267-.249.573-.373.92-.373.347 0 .662.151.929.4.267.249.391.551.391.907 0 .355-.124.657-.373.906zM5.333 7.24c-.746.018-1.373.276-1.88.773-.506.498-.769 1.13-.786 1.894v7.52c.017.764.28 1.395.786 1.893.507.498 1.134.756 1.88.773h13.334c.746-.017 1.373-.275 1.88-.773.506-.498.769-1.129.786-1.893v-7.52c-.017-.765-.28-1.396-.786-1.894-.507-.497-1.134-.755-1.88-.773zM8 11.107c.373 0 .684.124.933.373.25.249.383.569.4.96v1.173c-.017.391-.15.711-.4.96-.249.25-.56.374-.933.374s-.684-.125-.933-.374c-.25-.249-.383-.569-.4-.96V12.44c0-.373.129-.689.386-.947.258-.257.574-.386.947-.386zm8 0c.373 0 .684.124.933.373.25.249.383.569.4.96v1.173c-.017.391-.15.711-.4.96-.249.25-.56.374-.933.374s-.684-.125-.933-.374c-.25-.249-.383-.569-.4-.96V12.44c.017-.391.15-.711.4-.96.249-.249.56-.373.933-.373Z"/></symbol><symbol id="si-billboard" viewBox="0 0 24 24"><path fill="#000000" d="M3.69685 11.02465h1.12413v3.41864H3.69685Zm1.35662-1.33669h1.12381v4.75533H5.05347Zm1.35641 0H7.5337v4.75533H6.40988Zm13.22037 1.68925v-.35256h-1.12397v3.41864h1.12397v-1.6293c0-.41916.21904-.64528.61843-.64528h.133v-1.17728c-.33918.01334-.58533.11975-.75143.38579zM4.2588 9.50287c-.35974 0-.65171.29187-.65171.65182 0 .35994.29197.65192.6517.65192.36006 0 .65182-.29198.65182-.65192 0-.35995-.29176-.65182-.65181-.65182zm12.89058 1.78207c-.15798-.17233-.52558-.31455-.80468-.31455-.84888 0-1.45782.55964-1.6069 1.39153-.1625-.79809-.8581-1.41215-1.70633-1.41215-.85636 0-1.55753.62123-1.71082 1.4343-.1488-.84507-.81354-1.40519-1.6379-1.40519-.30589 0-.55874.06655-.7783.21936v-1.5097H7.78063v4.75528h1.10409v-.3127c.26603.24615.55194.3592.90456.3592.75922 0 1.39843-.59433 1.53517-1.41357.1611.80168.85261 1.4111 1.70707 1.4111.84713 0 1.52653-.5965 1.69943-1.37761.14296.8532.81898 1.38689 1.62698 1.38689.2791 0 .58527-.0934.79145-.24615v.19284h1.12381v-1.49616a8.92817 8.92817 0 0 0-.0016-.1796 8.7632 8.7632 0 0 0 .0016-.17955v-1.55806H17.1494zm-7.58627 2.11732c-.35995 0-.6517-.29187-.6517-.65192 0-.35984.29175-.65165.6517-.65165.35984 0 .6517.29181.6517.65165.00006.36005-.2918.65192-.6517.65192zm3.46836-.0522c-.35973 0-.65181-.29208-.65181-.65192 0-.35978.29208-.65165.65181-.65165.35984 0 .6517.29187.6517.65165.00006.35979-.2917.65192-.6517.65192zm3.3773.02067c-.35995 0-.65145-.29208-.65145-.65192 0-.35978.29145-.65165.65145-.65165.36026 0 .6517.29187.6517.65165.00006.35984-.29144.65192-.6517.65192zm6.46693-3.6833v1.50976c-.21915-.15292-.4719-.21936-.77816-.21936-.93767 0-1.66916.72485-1.66916 1.76914 0 .98418.70492 1.7424 1.56307 1.7424.35224 0 .6382-.11315.90445-.35915v.3126H24V9.68743Zm-.66194 3.7064c-.35947 0-.65144-.29208-.65144-.65166 0-.36005.29187-.65202.65144-.65202.36005 0 .65192.29197.65192.65202 0 .35958-.29187.65166-.65192.65166zm-20.31164-2.415c-.306 0-.55864.06655-.77832.21936V9.68854H0v4.75528h1.10399v-.3127c.26603.24615.55204.3592.90466.3592.85783 0 1.5628-.75843 1.5628-1.74261 0-1.04393-.7316-1.76888-1.66932-1.76888zm-.11965 2.42343c-.35984 0-.6517-.29187-.6517-.65192 0-.35984.29186-.65165.6517-.65165.35995 0 .65171.29181.65171.65165 0 .36005-.29176.65192-.6517.65192z"/></symbol><symbol id="si-binance" viewBox="0 0 24 24"><path fill="#F0B90B" d="M16.624 13.9202l2.7175 2.7154-7.353 7.353-7.353-7.352 2.7175-2.7164 4.6355 4.6595 4.6356-4.6595zm4.6366-4.6366L24 12l-2.7154 2.7164L18.5682 12l2.6924-2.7164zm-9.272.001l2.7163 2.6914-2.7164 2.7174v-.001L9.2721 12l2.7164-2.7154zm-9.2722-.001L5.4088 12l-2.6914 2.6924L0 12l2.7164-2.7164zM11.9885.0115l7.353 7.329-2.7174 2.7154-4.6356-4.6356-4.6355 4.6595-2.7174-2.7154 7.353-7.353z"/></symbol><symbol id="si-biolink" viewBox="0 0 24 24"><path fill="#000000" d="M3.95192 4.6371V2.75605c0-.26354-.14223-.39521-.42679-.39521H2.2289V5.0323h1.29624c.28456 0 .4268-.13168.4268-.3952zm0 4.2839V6.96087c0-.13696-.03158-.23187-.09482-.28456-.06324-.06324-.1739-.09482-.33197-.09482H2.2289V9.3162h1.29624c.28456 0 .4268-.13168.4268-.39521zM0 .81166h4.17323c1.33842 0 2.00763.57962 2.00763 1.73882v1.77049c0 .77986-.23714 1.2699-.71143 1.4701.47429.17917.71143.63235.71143 1.35953v1.96013c0 1.1698-.6692 1.75466-2.00763 1.75466H0Zm7.56538 0h2.24468v10.05373H7.56538zm5.66357 0h2.11829c1.32777 0 1.9917.57962 1.9917 1.73882v6.56025c0 1.1698-.66393 1.75466-1.9917 1.75466h-2.1183c-1.33832 0-2.00753-.58486-2.00753-1.75466V2.55048c0-1.1592.6692-1.73882 2.00754-1.73882zm1.84948 7.99868V2.8667c0-.26353-.13696-.3952-.41096-.3952h-.75876c-.28455 0-.42678.13167-.42678.3952v5.94364c0 .26354.14223.39521.42678.39521h.75876c.274 0 .41096-.13167.41096-.3952zm5.03262 2.02892c-.75304 0-1.3634-.61045-1.3634-1.3634V9.3879c0-.75304.61036-1.3634 1.3634-1.3634.75295 0 1.3634.61036 1.3634 1.3634v.08796c0 .75295-.61045 1.3634-1.3634 1.3634zM2.25329 21.52851h2.8928v1.65983H.00859V13.13461h2.2447zm3.66888-8.3939h2.24469v10.05373h-2.2447zm7.9241 0h2.07078v10.05373h-2.02338l-2.19727-6.02272v6.02272H9.64144V13.13461h2.03921l2.16561 6.00698zm10.15373 0-2.02338 4.96367L24 23.18834h-2.43433l-1.94439-5.09006 1.94439-4.96367zm-6.67082 10.05373V13.13461h2.24469v10.05373Z"/></symbol><symbol id="si-bisecthosting" viewBox="0 0 24 24"><path fill="#0D1129" d="M22.083 5.023 13.02.302a2.717 2.717 0 0 0-2.488 0L1.917 4.789A2.06 2.06 0 0 0 .805 6.623l.006 10.76c0 .773.426 1.476 1.112 1.834l8.59 4.479c.38.198.813.304 1.245.304v-.002c.432 0 .862-.108 1.244-.306l9.083-4.735a2.053 2.053 0 0 0 1.11-1.835V6.857a2.06 2.06 0 0 0-1.112-1.834zm.222 12.103c.003.441-.24.847-.632 1.05l-9.085 4.736a1.81 1.81 0 0 1-1.664 0l-8.59-4.48a1.184 1.184 0 0 1-.637-1.048L1.691 6.625c0-.44.246-.844.636-1.048l8.615-4.491a1.828 1.828 0 0 1 1.666 0l9.063 4.725c.39.205.634.608.634 1.048v10.267zM4.666 9.2v1.088L9.86 9.44V7.954L4.666 9.2zm4.111-.54.604-.132v.552l-.604.106V8.66zm-3.455.76 2.55-.562v.494l-2.55.46V9.42zm4.541 6.74v-1.486l-5.195-.85v1.088l5.195 1.248zm-1.986-.904-2.553-.562v-.395l2.553.46v.497zm1.506.33-.602-.132v-.526l.602.106v.552zm11.583-8.827-2.33-1.214-1.853.694V4.58L13.69 2.966a4.133 4.133 0 0 0-3.827 0l-6.83 3.561a.298.298 0 0 0-.16.26l.007 10.401c0 .11.06.21.16.26l6.805 3.547c1.2.626 2.627.626 3.827 0l3.1-1.614v-1.66l1.852.694 2.348-1.225a.298.298 0 0 0 .16-.262l-.006-9.908a.288.288 0 0 0-.16-.26zM4.398 10.871V8.75l5.541-1.494a.23.23 0 0 1 .29.22V9.83c0 .204-.152.38-.356.402l-5.475.64v-.001zm5.477 3.01a.404.404 0 0 1 .359.4v2.355a.23.23 0 0 1-.29.22l-5.542-1.494v-2.12l5.473.64zm3.137 6.962s.428-.612.48-1.74V14.62s.042-1.68-1.334-2.601c1.376-.92 1.336-2.6 1.336-2.6V5.096c0-1.272-.488-1.975-.488-1.975l3.307 1.725v5.061c0 .076.06.14.136.146l2.14.154a.15.15 0 0 0 .16-.148V6.12l1.967 1.02v9.684L18.75 17.85v-4.247a.15.15 0 0 0-.16-.148l-2.14.156a.148.148 0 0 0-.137.148v5.366l-3.3 1.72v-.002z"/></symbol><symbol id="si-bit" viewBox="0 0 24 24"><path fill="#592EC1" d="M10.98 12.959q0 .897-.509 1.42-.51.52-1.456.52-.34 0-.643-.072-.303-.073-.546-.194-.291-.17-.328-.364-.036-.194-.036-.388V9.804q0-.219.134-.328.133-.109.4-.109t.4.11q.134.108.134.327v1.553q.145-.097.352-.158.206-.06.424-.06.728 0 1.202.473.473.473.473 1.347zm-2.45.946q.097.073.23.097.134.024.255.024.413 0 .631-.255.219-.254.219-.74 0-.485-.219-.752-.218-.267-.607-.267-.145 0-.279.049-.133.048-.23.121zm4.465-3.81q0 .267-.182.449t-.449.182q-.291 0-.473-.182t-.182-.449q0-.291.182-.461.182-.17.473-.17.267 0 .449.17t.182.461zm-.097 1.48v2.864q0 .218-.134.327-.133.11-.4.11t-.413-.11q-.145-.109-.145-.327v-2.864q0-.218.145-.327.146-.11.413-.11t.4.11q.134.109.134.327zm3.276 2.33q.218 0 .303.182.085.182.085.328 0 .072-.048.157-.049.085-.146.158-.146.073-.364.121-.218.049-.437.049-.437 0-.703-.158-.267-.158-.413-.4-.121-.219-.146-.473-.024-.255-.024-.546v-1.19h-.291q-.219 0-.328-.12-.109-.122-.109-.34 0-.219.11-.34.108-.122.327-.122h.291v-.703q0-.219.134-.328.133-.11.4-.11t.4.11q.134.11.134.328v.703h.68q.218 0 .327.122.11.121.11.34 0 .218-.11.34-.11.12-.328.12h-.68v1.19q0 .12.013.254.012.134.06.255.05.073.122.11.073.036.194.036.049 0 .121-.012.073-.013.122-.013.048-.024.097-.036.048-.012.097-.012zM.012 12.012q0-2.5.947-4.683.946-2.184 2.572-3.81Q5.157 1.893 7.34.946 9.525 0 12 0t4.66.946q2.183.947 3.821 2.573 1.638 1.626 2.56 3.81.947 2.184.947 4.683 0 2.475-.947 4.66-.922 2.183-2.56 3.81-1.638 1.625-3.822 2.572Q14.475 24 12 24q-2.475 0-4.66-.946-2.183-.947-3.81-2.573-1.625-1.626-2.571-3.81-.947-2.184-.947-4.659ZM12 .874q-2.305 0-4.32.873-2.038.874-3.542 2.39-1.505 1.517-2.379 3.531-.873 2.039-.873 4.344t.873 4.32q.874 2.038 2.379 3.543 1.504 1.504 3.542 2.378 2.015.873 4.32.873t4.344-.873q2.014-.874 3.518-2.378 1.505-1.505 2.379-3.543.898-2.015.898-4.32t-.898-4.344q-.874-2.014-2.379-3.53-1.504-1.517-3.518-2.39Q14.305.873 12 .873ZM8.384 3.422q.073.17.024.34-.048.17-.218.266-1.383.728-2.342 1.614-.958.886-1.735 2.342-.097.17-.267.218-.17.049-.315-.024-.17-.097-.219-.267-.048-.17.025-.315.849-1.602 1.905-2.585 1.055-.983 2.536-1.76.17-.096.34-.036.17.061.266.207z"/></symbol><symbol id="si-bitbucket" viewBox="0 0 24 24"><path fill="#0052CC" d="M.778 1.213a.768.768 0 00-.768.892l3.263 19.81c.084.5.515.868 1.022.873H19.95a.772.772 0 00.77-.646l3.27-20.03a.768.768 0 00-.768-.891zM14.52 15.53H9.522L8.17 8.466h7.561z"/></symbol><symbol id="si-bitcoin" viewBox="0 0 24 24"><path fill="#F7931A" d="M23.638 14.904c-1.602 6.43-8.113 10.34-14.542 8.736C2.67 22.05-1.244 15.525.362 9.105 1.962 2.67 8.475-1.243 14.9.358c6.43 1.605 10.342 8.115 8.738 14.548v-.002zm-6.35-4.613c.24-1.59-.974-2.45-2.64-3.03l.54-2.153-1.315-.33-.525 2.107c-.345-.087-.705-.167-1.064-.25l.526-2.127-1.32-.33-.54 2.165c-.285-.067-.565-.132-.84-.2l-1.815-.45-.35 1.407s.975.225.955.236c.535.136.63.486.615.766l-1.477 5.92c-.075.166-.24.406-.614.314.015.02-.96-.24-.96-.24l-.66 1.51 1.71.426.93.242-.54 2.19 1.32.327.54-2.17c.36.1.705.19 1.05.273l-.51 2.154 1.32.33.545-2.19c2.24.427 3.93.257 4.64-1.774.57-1.637-.03-2.58-1.217-3.196.854-.193 1.5-.76 1.68-1.93h.01zm-3.01 4.22c-.404 1.64-3.157.75-4.05.53l.72-2.9c.896.23 3.757.67 3.33 2.37zm.41-4.24c-.37 1.49-2.662.735-3.405.55l.654-2.64c.744.18 3.137.524 2.75 2.084v.006z"/></symbol><symbol id="si-bitcoincash" viewBox="0 0 24 24"><path fill="#0AC18E" d="m10.84 11.22-.688-2.568c.728-.18 2.839-1.051 3.39.506.27 1.682-1.978 1.877-2.702 2.062zm.289 1.313.755 2.829c.868-.228 3.496-.46 3.241-2.351-.433-1.666-3.125-.706-3.996-.478zM24 12c0 6.627-5.373 12-12 12S0 18.627 0 12 5.373 0 12 0s12 5.373 12 12zm-6.341.661c-.183-1.151-1.441-2.095-2.485-2.202.643-.57.969-1.401.57-2.488-.603-1.368-1.989-1.66-3.685-1.377l-.546-2.114-1.285.332.536 2.108c-.338.085-.685.158-1.029.256L9.198 5.08l-1.285.332.545 2.114c-.277.079-2.595.673-2.595.673l.353 1.377s.944-.265.935-.244c.524-.137.771.125.886.372l1.498 5.793c.018.168-.012.454-.372.551.021.012-.935.241-.935.241l.14 1.605s2.296-.588 2.598-.664l.551 2.138 1.285-.332-.551-2.153c.353-.082.697-.168 1.032-.256l.548 2.141 1.285-.332-.551-2.135c1.982-.482 3.38-1.73 3.094-3.64z"/></symbol><symbol id="si-bitcoinsv" viewBox="0 0 24 24"><path fill="#EAB300" d="M14.648 14.423l.003-.004a1.34 1.34 0 0 1-.498.659c-.269.189-.647.338-1.188.364l-1.99.004v-2.93c.288.008 1.565-.013 2.119.015.722.035 1.171.321 1.41.668.262.351.293.82.144 1.224zm-2.129-3.261c.503-.024.852-.162 1.101-.336.214-.146.375-.367.46-.611.134-.375.107-.81-.136-1.135-.223-.319-.638-.584-1.306-.616-.495-.026-1.413-.003-1.664-.01v2.709c.025.004 1.539-.001 1.545-.001zM24 12c0 6.627-5.373 12-12 12S0 18.627 0 12 5.373 0 12 0s12 5.373 12 12zm-6.65 2.142c.022-1.477-1.24-2.332-1.908-2.572.715-.491 1.206-1.043 1.206-2.085 0-1.655-1.646-2.43-2.647-2.529-.082-.009-.31-.013-.31-.013V5.361h-1.633l.004 1.583H10.97V5.367H9.31v1.569c-.292.007-2.049.006-2.049.006v1.401h.571c.601.016.822.362.798.677v6.041a.408.408 0 0 1-.371.391c-.249.011-.621 0-.621 0l-.32 1.588h1.996v1.6h1.661v-1.591h1.091v1.594h1.624v-1.588c1.899.05 3.643-1.071 3.66-2.913z"/></symbol><symbol id="si-bitdefender" viewBox="0 0 24 24"><path fill="#ED1C24" d="M1.685 0v.357l1.232 1.046c1.477 1.204 1.67 1.439 1.67 2.526V24h8.646c4.537 0 9.083-1.629 9.083-6.849 0-3.082-2.174-5.458-5.186-5.797v-.067c2.475-.745 4.169-2.54 4.169-5.253 0-4.372-3.73-6.032-7.349-6.032L1.686 0zm7.176 3.664h3.524c2.383 0 3.121.327 3.844 1.013.548.521.799 1.237.801 2.07 0 .775-.267 1.466-.831 2.004-.705.676-1.674 1.011-3.443 1.011H8.862V3.664zm0 9.758h4.099c3.456 0 5.085.881 5.085 3.39 0 3.153-3.055 3.526-5.256 3.526H8.86v-6.916z"/></symbol><symbol id="si-bitly" viewBox="0 0 24 24"><path fill="#EE6123" d="M13.055 21.26c-1.345.022-2.325-.41-2.386-1.585-.025-.44-.018-.91.002-1.192.137-1.716 1.333-2.95 2.53-3.19 1.482-.294 2.455.38 2.455 2.31 0 1.303-.36 3.618-2.59 3.657h-.016zM11.923 0C5.32 0 0 5.297 0 12.224c0 3.594 1.92 7.062 4.623 9.147.52.4 1.138.367 1.497.02.297-.285.272-.984-.285-1.475-2.16-1.886-3.652-4.76-3.652-7.635 0-5.15 4.58-9.49 9.74-9.49 6.28 0 9.636 5.102 9.636 9.43 0 2.65-1.29 5.84-3.626 7.874.015 0 .493-.942.493-2.784 0-3.13-1.976-4.836-4.28-4.836-1.663 0-2.667.598-3.34 1.152 0-1.272.045-3.652.045-3.652 0-1.572-.54-2.83-2.47-2.86-1.11-.015-1.932.493-2.44 1.647-.18.436-.12.916.254 1.125.3.18.81.046 1.046-.284.165-.21.254-.254.404-.24.24.03.257.405.257.66.014.193.193 2.903.088 9.865C7.98 21.798 9.493 24 13.1 24c1.56 0 2.756-.435 4.493-1.422C20.243 21.08 24 17.758 24 12.128 23.953 5.045 18.265 0 11.933 0"/></symbol><symbol id="si-bitrise" viewBox="0 0 24 24"><path fill="#683D87" d="M23.5154 13.4558c-.2744-1.8854-.692-3.7828-.9904-5.0477-.358-1.5035-1.6349-2.5775-3.1742-2.673-1.5155-.0955-4.0215-.2028-7.3627-.2028-3.3413 0-5.8472.1074-7.3627.2028-1.5394.0955-2.8163 1.1695-3.1743 2.673-.2983 1.265-.716 3.1623-.9904 5.0477-.191 1.2769-.3341 2.7685-.4535 4.463-.0596.9427.2506 1.8496.8831 2.5537.6324.704 1.4916 1.1217 2.4463 1.1575 2.0763.0955 5.2625.2148 8.6634.2148 3.401 0 6.587-.1193 8.6634-.2148.9427-.0477 1.8139-.4535 2.4463-1.1575.6325-.704.9427-1.611.883-2.5537-.1312-1.6945-.2863-3.198-.4773-4.463zm-1.6467 5.9188c-.3342.37-.7876.5848-1.2888.6086-2.0644.0955-5.2148.2148-8.5918.2148-3.3771 0-6.5274-.1193-8.5919-.2148-.5011-.0239-.9546-.2386-1.2887-.6086-.3342-.3699-.5012-.8472-.4654-1.3484.1074-1.6468.2506-3.1026.4415-4.3317.2625-1.8258.6683-3.6754.9666-4.9045.191-.7995.8592-1.3604 1.6826-1.42C6.2244 7.2745 8.6945 7.167 12 7.167c3.2935 0 5.7756.1074 7.2673.2029.8114.0477 1.4916.6205 1.6825 1.42.2864 1.2291.6921 3.0787.9666 4.9045.179 1.2291.3222 2.685.4415 4.3317 0 .5012-.167.9785-.4892 1.3484zM11.988 4.1958c.5608 0 1.0262-.4535 1.0262-1.0143 0-.561-.4534-1.0263-1.0262-1.0263-.5609 0-1.0263.4535-1.0263 1.0263 0 .5489.4654 1.0143 1.0263 1.0143zm5.9665 7.84c-.9069 0-1.6468.7399-1.6468 1.6468h3.2936c0-.907-.728-1.6468-1.6468-1.6468zm-11.933 0c-.907 0-1.6468.7399-1.6468 1.6468h3.2935c0-.907-.728-1.6468-1.6468-1.6468zm5.9665 5.9665c1.4677 0 2.661-1.1933 2.661-2.661h-5.334c0 1.4558 1.1933 2.661 2.673 2.661z"/></symbol><symbol id="si-bitsy" viewBox="0 0 24 24"><path fill="#6767B2" d="M17.143 12v10.29h-3.429v-3.43H6.857v3.43H3.43v-6.86H0V1.71h3.429v3.43h3.428V1.71h3.429V12Zm3.428-3.43V1.71H24v6.86ZM17.143 12V8.57h3.428V12Z"/></symbol><symbol id="si-bittorrent" viewBox="0 0 24 24"><path fill="#050505" d="M12.0002.0014C5.3735.0004.001 5.3718 0 11.9984a11.9986 11.9986 0 0 0 1.7006 6.1593.132.132 0 0 0 .1128.0384c.0288 0 .048-.0696.048-.1104a.739.739 0 0 0-.0336-.1296 22.14 22.14 0 0 1-.4224-2.2941 9.8389 9.8389 0 0 1 .4272-3.866c1.1014-3.3956 3.3332-5.6993 6.664-6.9376a10.302 10.302 0 0 1 3.398-.5951.7823.7823 0 0 1 .8567.763c0 .4488-.3431.7368-.8495.7656a12.853 12.853 0 0 0-1.6078.1656 8.6918 8.6918 0 0 0-4.8642 2.6397C3.3468 10.8169 2.55 13.4566 3.03 16.4539a8.6846 8.6846 0 0 0 2.4454 4.785 8.9414 8.9414 0 0 0 6.3688 2.7597h.156a11.9507 11.9507 0 0 0 5.613-1.3918h-5.5938a8.3988 8.3988 0 0 1-1.4086-.1296c-4.1387-.7467-6.915-4.673-6.2393-8.8238.5627-3.5271 3.4722-6.2073 7.0336-6.4793a7.6407 7.6407 0 0 1 2.1597.1368.7487.7487 0 0 1 .6168.876.7847.7847 0 0 1-.96.6023 6.0836 6.0836 0 0 0-.8014-.1152 6.328 6.328 0 0 0-2.899.504c-2.5052 1.0803-4.0095 3.6719-3.705 6.3832.3566 3.1366 3.0056 5.5091 6.1624 5.5194h6.9904c.6791 0 .84.0144 1.1375-.24.382-.3525.742-.7284 1.0775-1.1255h-9.3302a4.3483 4.3483 0 0 1-2.0733-.516c-2.4037-1.1787-3.3968-4.0828-2.218-6.4865s4.0828-3.3968 6.4866-2.218c.1195.0586.2365.122.3508.1903a.7511.7511 0 0 1 .3168 1.044.7655.7655 0 0 1-1.0655.2711c-1.5988-.9125-3.6346-.356-4.547 1.2428a3.3332 3.3332 0 0 0-.3964 2.1792c.2433 1.6186 1.6388 2.8127 3.2756 2.8029 3.3596.0336 6.7193 0 10.0789 0a.4224.4224 0 0 0 .2807-.144c3.3584-5.7126 1.45-13.0661-4.2626-16.4245a11.9986 11.9986 0 0 0-6.0802-1.655z"/></symbol><symbol id="si-bitwarden" viewBox="0 0 24 24"><path fill="#175DDC" d="M21.722.296A.964.964 0 0 0 21.018 0H2.982a.959.959 0 0 0-.703.296.96.96 0 0 0-.297.702v12c0 .895.174 1.783.523 2.665.349.88.783 1.66 1.3 2.345.517.68 1.132 1.346 1.848 1.993a21.807 21.807 0 0 0 1.98 1.609c.605.427 1.235.83 1.893 1.212.657.381 1.125.638 1.4.772.276.134.5.241.664.311a.916.916 0 0 0 .814 0c.168-.073.389-.177.667-.311.275-.134.743-.394 1.401-.772a25.305 25.305 0 0 0 1.894-1.212A21.891 21.891 0 0 0 18.348 20c.716-.647 1.33-1.31 1.847-1.993s.949-1.463 1.3-2.345c.35-.879.524-1.767.524-2.665V1.001a.95.95 0 0 0-.297-.705zm-2.325 12.815c0 4.344-7.397 8.087-7.397 8.087V2.57h7.397v10.54z"/></symbol><symbol id="si-bitwig" viewBox="0 0 24 24"><path fill="#FF5A00" d="M4.15 7.782a1.59 1.59 0 1 1 3.181 0 1.59 1.59 0 0 1-3.181 0zm5.741 1.591a1.59 1.59 0 1 0 0-3.181 1.59 1.59 0 0 0 0 3.181zm4.218 0a1.59 1.59 0 1 0 0-3.181 1.59 1.59 0 0 0 0 3.181zm4.15 0a1.59 1.59 0 1 0 0-3.181 1.59 1.59 0 0 0 0 3.181zM5.741 10.409a1.59 1.59 0 1 0 0 3.181 1.59 1.59 0 0 0 0-3.181zm8.368 0a1.59 1.59 0 1 0 0 3.181 1.59 1.59 0 0 0 0-3.181zm4.15 0a1.59 1.59 0 1 0 0 3.181 1.59 1.59 0 0 0 0-3.181zm4.15 3.182a1.59 1.59 0 1 0 0-3.181 1.59 1.59 0 0 0 0 3.181zM1.591 10.409a1.591 1.591 0 1 0 0 3.182 1.591 1.591 0 0 0 0-3.182zm4.15 4.218a1.59 1.59 0 1 0 0 3.181 1.59 1.59 0 0 0 0-3.181zm12.518 0a1.59 1.59 0 1 0 0 3.181 1.59 1.59 0 0 0 0-3.181zm4.15 0a1.59 1.59 0 1 0 0 3.181 1.59 1.59 0 0 0 0-3.181zm-20.818 0a1.59 1.59 0 1 0 0 3.181 1.59 1.59 0 0 0 0-3.181m8.3-4.218a1.591 1.591 0 1 0 0 3.182 1.591 1.591 0 0 0 0-3.182Z"/></symbol><symbol id="si-black" viewBox="0 0 24 24"><path fill="#000000" d="M10.506 17.772c-3.358-.211-6.452-1.124-8.347-2.462-.484-.342-1.137-.954-1.43-1.34-.6-.794-.85-1.735-.674-2.548.32-1.478 1.763-2.846 4.016-3.807 1.668-.71 3.533-1.142 5.958-1.379.844-.082 3.291-.069 4.184.024 2.67.276 4.656.795 6.416 1.677 2.259 1.132 3.457 2.63 3.366 4.204q-.103 1.815-2.347 3.303c-2.536 1.684-6.902 2.596-11.142 2.328m3.642-.493c2.17-.206 4.068-.66 5.652-1.35.594-.26.588-.257 1.185-.6 1.687-.972 2.656-2.273 2.58-3.47-.046-.75-.37-1.365-1.112-2.106-1.489-1.489-4.112-2.54-7.46-2.99-.842-.112-1.744-.161-2.991-.16-1.337 0-1.774.022-2.797.142-2.907.343-5.51 1.262-7.108 2.51-.39.305-.89.815-1.102 1.123-.325.472-.567 1.16-.567 1.611 0 .307.123.766.301 1.127 1.13 2.28 5.24 3.992 10.189 4.244.634.032 2.546-.015 3.23-.08m-4.162-.283c-2.184-.21-3.922-.621-5.523-1.305-1.972-.842-3.357-2.079-3.669-3.276-.205-.79.16-1.638 1.087-2.524 1.574-1.504 4.443-2.557 7.927-2.908 1.192-.12 3.207-.121 4.391-.001 2.979.3 5.467 1.092 7.188 2.288.438.304 1.298 1.167 1.49 1.494.478.814.516 1.433.134 2.179-.952 1.861-3.956 3.366-7.825 3.92-1.628.232-3.643.284-5.2.134zM20.237 14.4c.294-.112.716-.42 1.013-.74.237-.257.291-.348.205-.348-.022 0-.186.135-.365.3-.364.338-.6.504-.775.547-.1.024-.12.015-.12-.057 0-.047.051-.197.113-.332.133-.29.118-.47-.054-.675l-.111-.132.183-.205.29-.324c.147-.165.216-.154.195.029-.014.12.003.16.09.218.207.135.447-.009.494-.294.021-.133.006-.174-.107-.287-.236-.236-.463-.152-.928.341-.228.242-.374.358-.52.414-.212.08-.338.068-.338-.032 0-.031.359-.637.798-1.345l.798-1.288h-.72l-.3.358-.728.878c-1.204 1.455-1.92 2.212-2.391 2.524-.208.139-.285.164-.537.178-.278.016-.298.01-.37-.098-.065-.1-.068-.138-.02-.297.116-.39.556-1.143.82-1.407.17-.17.336-.195.287-.044-.08.246-.074.402.019.485.126.115.343.107.443-.016.092-.114.105-.376.028-.546-.16-.352-.914-.306-1.547.095-.134.085-.588.503-1.009.93-.602.61-.788.775-.877.775-.08 0-.113-.022-.113-.075 0-.105.16-.436.464-.97.142-.248.32-.562.395-.7l.138-.249h-.686l-.118.203-.119.202-.083-.16c-.13-.255-.304-.34-.646-.319-.557.035-1.035.345-1.925 1.247-.552.56-1.03.951-1.16.951-.108 0-.122-.118-.054-.447.085-.413.166-.562 1.14-2.12.458-.731.833-1.341.833-1.354s-.152-.023-.336-.022l-.336.002-.282.42a15 15 0 0 1-1.34 1.701c-.227.25-.426.46-.442.468-.015.007-.03-.11-.034-.26-.011-.534-.16-.843-.523-1.095-.096-.067-.176-.136-.176-.153s.147-.103.326-.192c.377-.186.7-.487.85-.791.132-.267.142-.771.02-1.022-.092-.19-.386-.489-.556-.565-.154-.068-.135-.116.097-.245.16-.089.176-.11.107-.134-.103-.036-.367.02-.577.125-.14.07-.212.074-.635.038-1.55-.129-2.884.158-3.88.835-.359.243-.866.8-1.033 1.132-.128.254-.141.311-.114.498.033.225.114.42.23.553.287.326 1.174.36 1.772.069.333-.163.514-.376.757-.89.17-.359.184-.419.2-.82.029-.717.019-.72-.286-.12-.365.72-.599 1.07-.904 1.36-.332.315-.492.394-.849.42l-.292.02-.174-.174c-.16-.16-.174-.192-.174-.41 0-.48.237-.881.758-1.278.751-.572 1.947-.976 2.905-.98.554-.002 1.063.053 1.06.114-.001.028-.11.128-.241.222-.309.221-.873.781-1.2 1.193-.513.643-1.111 1.603-1.354 2.172-.55 1.287-.885 1.66-1.592 1.772-.482.077-.817-.038-1.134-.389-.224-.248-.21-.327.066-.36.491-.058.698-.3.587-.688-.04-.143-.088-.204-.203-.264-.181-.093-.328-.073-.554.077-.249.164-.369.352-.39.608-.038.454.29.909.797 1.107.327.128 1.046.14 1.513.025 1.168-.286 2.071-1.267 2.58-2.802.197-.59.605-1.48.827-1.804.18-.262.729-.84.797-.84.174 0 .456.562.456.91 0 .405-.23.82-.623 1.124-.233.18-.239.182-.35.11-.166-.11-.488-.064-.618.087-.11.126-.122.203-.054.33.052.096.216.109.433.033.136-.047.15-.042.281.1.255.28.244.81-.029 1.351-.3.595-.65.999-1.006 1.16-.235.107-.352.104-.46-.011-.171-.184-.082-.752.149-.944.038-.032.149-.153.246-.269.173-.207.174-.21.053-.164-.438.167-.758.738-.682 1.216.065.403.425.576 1 .48.58-.095.776-.23 1.645-1.126.433-.446.798-.8.81-.788s-.056.148-.153.301c-.36.566-.517 1.177-.362 1.413.09.136.31.236.524.236.294 0 .619-.23 1.22-.861.217-.23.407-.407.42-.394s-.015.15-.064.303c-.145.46-.05.745.296.893.306.13.6.04 1.032-.314.46-.377.417-.366.385-.092-.026.223-.02.25.09.358.098.099.143.114.283.095.307-.041.544-.204 1.037-.71.264-.27.499-.492.522-.492s.013.08-.022.179c-.146.416-.038.774.284.94.167.087.244.099.542.085.298-.015.392-.04.672-.183.289-.147.43-.273 1.267-1.124.519-.528.943-.943.943-.924 0 .041-.464.825-.97 1.634l-.365.585.328.013c.18.007.353.003.382-.008s.225-.306.433-.655c.3-.502.392-.627.448-.602a.8.8 0 0 0 .255.022c.128-.006.192.01.21.055.013.035-.046.224-.132.421-.185.428-.197.608-.048.756.131.132.327.14.629.025zm-7.82-.333c-.088-.087-.086-.143.015-.43.258-.736 1.054-1.566 1.349-1.408.192.103.147.502-.096.855-.373.543-.917 1.051-1.124 1.051a.24.24 0 0 1-.144-.068"/></symbol><symbol id="si-blackberry" viewBox="0 0 24 24"><path fill="#000000" d="M2.05 3.54L1.17 7.7H4.45C6.97 7.7 7.73 6.47 7.73 5.36C7.73 4.54 7.26 3.54 5.21 3.54H2.05M10.54 3.54L9.66 7.7H12.94C15.5 7.7 16.22 6.47 16.22 5.36C16.22 4.54 15.75 3.54 13.7 3.54H10.54M18.32 7.23L17.39 11.39H20.67C23.24 11.39 24 10.22 24 9.05C24 8.23 23.53 7.23 21.5 7.23H18.32M.88 9.8L0 13.96H3.28C5.85 13.96 6.56 12.73 6.56 11.62C6.56 10.8 6.09 9.8 4.04 9.8H.88M9.43 9.8L8.5 13.96H11.77C14.34 13.96 15.11 12.73 15.11 11.62C15.11 10.8 14.64 9.8 12.59 9.8H9.42M17.09 13.73L16.22 17.88H19.5C22 17.88 22.77 16.71 22.77 15.54C22.77 14.72 22.3 13.73 20.26 13.73H17.09M8.2 16.3L7.32 20.46H10.6C13.11 20.46 13.87 19.23 13.87 18.12C13.87 17.3 13.41 16.3 11.36 16.3H8.2Z"/></symbol><symbol id="si-blackmagicdesign" viewBox="0 0 24 24"><path fill="#FFA200" d="M10.385 0c-1.15 0-2.076.93-2.076 2.076V5.31c0 1.148.929 2.076 2.076 2.076h3.23c1.15 0 2.076-.93 2.076-2.076V2.076A2.074 2.074 0 0 0 13.615 0h-3.23zm0 .924h3.23c.638 0 1.155.514 1.155 1.152V5.31c0 .638-.516 1.152-1.155 1.152h-3.23A1.152 1.152 0 0 1 9.23 5.309V2.076c0-.638.516-1.152 1.155-1.152zm0 7.385c-1.15 0-2.076.929-2.076 2.076v3.23c0 1.15.929 2.076 2.076 2.076h3.23c1.15 0 2.076-.929 2.076-2.076v-3.23c0-1.15-.929-2.076-2.076-2.076h-3.23zm0 .921h3.23c.638 0 1.155.516 1.155 1.155v3.23c0 .638-.516 1.155-1.155 1.155h-3.23a1.154 1.154 0 0 1-1.155-1.155v-3.23c0-.638.516-1.155 1.155-1.155zm0 7.385c-1.15 0-2.076.93-2.076 2.076v3.233c0 1.149.929 2.076 2.076 2.076h3.23c1.15 0 2.076-.93 2.076-2.076V18.69a2.075 2.075 0 0 0-2.076-2.076h-3.23zm0 .924h3.23c.638 0 1.155.514 1.155 1.152v3.233c0 .638-.516 1.152-1.155 1.152h-3.23a1.152 1.152 0 0 1-1.155-1.152V18.69c0-.638.516-1.152 1.155-1.152Z"/></symbol><symbol id="si-blazemeter" viewBox="0 0 24 24"><path fill="#CA2133" d="M15.04 17.135c-.256 0-.352-.128-.32-.352l1.696-9.566c.032-.224.16-.352.416-.352h3.584c2.4 0 3.584.736 3.584 2.24 0 .607-.16 1.151-.48 1.6-.32.48-.768.8-1.344.991.384.096.736.32.96.672.256.32.384.768.384 1.28 0 1.215-.416 2.08-1.248 2.655-.832.544-1.952.832-3.328.832H15.04zm3.968-1.664c1.664 0 2.496-.608 2.496-1.823 0-.384-.16-.64-.448-.832-.288-.192-.8-.256-1.472-.256h-2.08l-.512 2.88h2.016v.031zm.768-4.383c1.472 0 2.176-.544 2.176-1.663 0-.352-.128-.576-.416-.736-.288-.16-.736-.224-1.344-.224h-1.984l-.48 2.623h2.048zm-6.88-.256a.608.608 0 0 0-.608-.608H.608a.608.608 0 1 0 0 1.216h11.648c.352 0 .64-.256.64-.608zm1.344-2.175a.608.608 0 0 0-.608-.608H6.464a.608.608 0 1 0 0 1.216h7.168c.32 0 .608-.256.608-.608zm-2.464 6.654a.608.608 0 0 0-.608-.608H8.256a.608.608 0 1 0 0 1.216h2.912c.32 0 .608-.256.608-.608zm-.864-2.271a.608.608 0 0 0-.608-.608H3.2a.608.608 0 1 0 0 1.216h7.104a.63.63 0 0 0 .608-.608z"/></symbol><symbol id="si-blender" viewBox="0 0 24 24"><path fill="#E87D0D" d="M12.51 13.214c.046-.8.438-1.506 1.03-2.006a3.424 3.424 0 0 1 2.212-.79c.85 0 1.631.3 2.211.79.592.5.983 1.206 1.028 2.005.045.823-.285 1.586-.865 2.153a3.389 3.389 0 0 1-2.374.938 3.393 3.393 0 0 1-2.376-.938c-.58-.567-.91-1.33-.865-2.152M7.35 14.831c.006.314.106.922.256 1.398a7.372 7.372 0 0 0 1.593 2.757 8.227 8.227 0 0 0 2.787 2.001 8.947 8.947 0 0 0 3.66.76 8.964 8.964 0 0 0 3.657-.772 8.285 8.285 0 0 0 2.785-2.01 7.428 7.428 0 0 0 1.592-2.762 6.964 6.964 0 0 0 .25-3.074 7.123 7.123 0 0 0-1.016-2.779 7.764 7.764 0 0 0-1.852-2.043h.002L13.566 2.55l-.02-.015c-.492-.378-1.319-.376-1.86.002-.547.382-.609 1.015-.123 1.415l-.001.001 3.126 2.543-9.53.01h-.013c-.788.001-1.545.518-1.695 1.172-.154.665.38 1.217 1.2 1.22V8.9l4.83-.01-8.62 6.617-.034.025c-.813.622-1.075 1.658-.563 2.313.52.667 1.625.668 2.447.004L7.414 14s-.069.52-.063.831zm12.09 1.741c-.97.988-2.326 1.548-3.795 1.55-1.47.004-2.827-.552-3.797-1.538a4.51 4.51 0 0 1-1.036-1.622 4.282 4.282 0 0 1 .282-3.519 4.702 4.702 0 0 1 1.153-1.371c.942-.768 2.141-1.183 3.396-1.185 1.256-.002 2.455.41 3.398 1.175.48.391.87.854 1.152 1.367a4.28 4.28 0 0 1 .522 1.706 4.236 4.236 0 0 1-.239 1.811 4.54 4.54 0 0 1-1.035 1.626"/></symbol><symbol id="si-blibli" viewBox="0 0 24 24"><path fill="#0072FF" d="M5.8018 5.9457c2.4792.2543 4.3228.3814 6.1663.3814l-.89-2.9243a1.0171 1.0171 0 0 0-1.2714-.6357l-3.6235.9536c-.5721.1271-.89.7629-.6357 1.2714l.1907.89zm12.5234 0V3.9114c.0636-.6357-.6357-1.0807-1.2714-.6993l-3.6871 2.4157c-.2543.1272-.445.3814-.5086.6357 1.5257 0 3.1785-.1271 5.467-.3178zm-4.3228-2.0343a1.9707 1.9707 0 1 0-.9536-3.8142 1.9707 1.9707 0 1 0 .9536 3.8142Zm5.1492 2.6067v.0633h-.1266c-3.0514.3178-5.0857.4445-6.9928.4445-2.0343 0-4.0057-.1267-7.1207-.4445h-.0633c-.6357 0-1.0171.3812-.9536 1.0169 1.0172 6.0392 1.0167 9.7901-.509 15.1936C3.1949 23.364 3.7034 24 4.339 24H19.724c.5721 0 1.081-.5726.8902-1.1448a30.1325 30.1325 0 0 1-.509-15.257c.1271-.572-.3179-1.0801-.9536-1.0801Zm-10.298 3.623c.445 0 .7624.3178.7624.6357v.0633c0 .3814-.3173.7003-.7623.7003a.6357.6357 0 0 1-.6357-.7003.6357.6357 0 0 1 .6357-.699zm6.2292 0c.3815 0 .7636.3176.7636.699 0 .3814-.3821.7003-.7636.7003a.6357.6357 0 0 1-.6357-.7636.6357.6357 0 0 1 .6357-.6357Zm-6.6116 2.6061c.3179 0 .5091.2548.5091.5091a2.9243 2.9243 0 0 0 2.9873 2.924c2.2886 0 3.052-1.9704 3.052-2.924 0-.2543.1901-.509.4444-.509s.509.2547.509.509c0 1.2714-.954 3.8142-4.0054 3.8142-2.9878 0-3.9409-2.5428-3.9409-3.8142 0-.2543.1903-.509.4445-.509z"/></symbol></defs></svg>
