<svg xmlns="http://www.w3.org/2000/svg"><defs><symbol id="si-expertsexchange" viewBox="0 0 24 24"><path fill="#00AAE7" d="M7.28.9H0L8.36 12 0 23.1h7.28L15.64 12zM24 .9h-7.28l-2.3 3.06 3.64 4.82zM14.42 20.05l2.3 3.05H24l-5.94-7.88z"/></symbol><symbol id="si-expo" viewBox="0 0 24 24"><path fill="#1C2024" d="M0 20.084c.043.53.23 1.063.718 1.778.58.849 1.576 1.315 2.303.567.49-.505 5.794-9.776 8.35-13.29a.761.761 0 011.248 0c2.556 3.514 7.86 12.785 8.35 13.29.727.748 1.723.282 2.303-.567.57-.835.728-1.42.728-2.046 0-.426-8.26-15.798-9.092-17.078-.8-1.23-1.044-1.498-2.397-1.542h-1.032c-1.353.044-1.597.311-2.398 1.542C8.267 3.991.33 18.758 0 19.77Z"/></symbol><symbol id="si-expressdotcom" viewBox="0 0 24 24"><path fill="#000000" d="M18.904 10.081c-.774 0-1.484.362-1.484 1.24 0 .536.367.893 1.041 1l.756.123c.27.046.408.139.408.323 0 .316-.44.417-.68.417-.433 0-.734-.169-1.05-.455l-.693.45c.494.54 1.02.74 1.636.74.678 0 1.664-.203 1.664-1.295 0-.694-.597-.92-1.32-1.037l-.348-.057c-.346-.056-.506-.152-.506-.345 0-.235.307-.367.516-.367.382 0 .735.168.974.458l.688-.496c-.409-.454-1-.699-1.602-.699Zm3.494 0c-.775 0-1.484.362-1.484 1.24 0 .536.367.893 1.04 1l.755.123c.27.046.408.139.408.323 0 .316-.437.417-.678.417-.433 0-.735-.169-1.05-.455l-.694.45c.494.54 1.02.74 1.637.74.677 0 1.662-.203 1.662-1.295 0-.694-.596-.92-1.32-1.037l-.346-.057c-.348-.056-.506-.152-.506-.345 0-.235.307-.367.516-.367.382 0 .733.168.972.458l.69-.496c-.408-.454-1.001-.699-1.602-.699ZM0 10.185v3.632h2.824v-.705H.91v-.857h1.646v-.703H.909v-.664h1.765v-.703zm3.285 0 1.2 1.677-1.399 1.955h1.098l.86-1.357.837 1.357h1.11L5.6 11.862l1.194-1.677H5.707l-.658 1.107-.662-1.107Zm3.988 0v3.632h.918v-1.174H8.9c1.244 0 1.513-.745 1.513-1.23 0-.72-.36-1.228-1.34-1.228zm3.386 0v3.632h.908v-1.306h.577l.712 1.306h1.016l-.832-1.459c.454-.132.75-.51.75-.98 0-.816-.499-1.193-1.314-1.193zm3.492 0v3.632h2.824v-.705h-1.918v-.857h1.648v-.703h-1.648v-.664h1.766v-.703zm-5.972.672h.74c.415 0 .586.2.586.562 0 .28-.147.55-.56.55h-.766Zm3.388 0h.83c.291.005.485.153.485.49 0 .336-.194.484-.485.49h-.83z"/></symbol><symbol id="si-expressvpn" viewBox="0 0 24 24"><path fill="#DA3940" d="M11.705 2.349a4.874 4.874 0 00-4.39 2.797L6.033 7.893h14.606c.41 0 .692.308.692.668 0 .359-.282.666-.692.666H2.592L0 14.772h2.824c-.796 1.72-1.002 2.567-1.002 3.26 0 2.105 1.72 3.62 4.416 3.62h8.239c1.771 0 3.337-1.412 3.337-3.03 0-1.411-1.206-2.515-2.772-2.515H5.596c-.873 0-1.284-.59-.924-1.335h11.859c4.004 0 7.469-3.029 7.469-6.802 0-3.183-2.618-5.621-6.16-5.621z"/></symbol><symbol id="si-eyeem" viewBox="0 0 24 24"><path fill="#000000" d="M3.673 9.204v-1.04H0v5.722h3.68v-1.048H1.186V11.46h2.158v-1.017H1.186v-1.24zm2.162 6.633l2.532-5.906h-1.24l-.902 2.357-.91-2.357H4.081l1.546 3.604-1.01 2.303zm6.625-3.572v-.445c0-1.232-.75-1.966-1.89-1.966-1.179 0-2.013.78-2.013 2.059 0 1.27.834 2.057 2.043 2.057.926 0 1.684-.536 1.821-1.285l-1.124-.054c-.085.275-.337.436-.727.436-.505 0-.804-.314-.827-.803zm-1.898-1.539c.505 0 .75.314.773.796H9.743c.031-.505.345-.796.82-.796zm6.478-1.524v-1.04h-3.672v5.724h3.68v-1.048h-2.495V11.46h2.158v-1.018h-2.158v-1.24zm5.46.65c-.597 0-.987.269-1.216.629-.26-.406-.697-.627-1.24-.627s-.864.206-1.04.482v-.407h-1.056v3.956h1.117V11.69c0-.474.268-.796.711-.796.406 0 .643.283.643.788v2.205h1.117v-2.333c.046-.399.291-.659.689-.659.428 0 .658.284.658.789v2.204H24V11.46c0-1.002-.597-1.606-1.5-1.606z"/></symbol><symbol id="si-fdroid" viewBox="0 0 24 24"><path fill="#1976D2" d="M20.472,10.081H3.528c-0.877,0-1.589,0.711-1.589,1.589v10.59c0,0.877,0.711,1.589,1.589,1.589h16.944 c0.877,0,1.589-0.711,1.589-1.589V11.67C22.061,10.792,21.349,10.081,20.472,10.081z M12,22.525c-3.066,0-5.56-2.494-5.56-5.56 s2.494-5.56,5.56-5.56c3.066,0,5.56,2.494,5.56,5.56S15.066,22.525,12,22.525z M12,12.411c-2.511,0-4.554,2.043-4.554,4.554 S9.489,21.519,12,21.519s4.554-2.043,4.554-4.554S14.511,12.411,12,12.411z M12,20.274c-1.563,0-2.881-1.103-3.221-2.568h1.67 c0.275,0.581,0.859,0.979,1.551,0.979c0.96,0,1.721-0.761,1.721-1.721c0-0.96-0.761-1.721-1.721-1.721 c-0.649,0-1.2,0.352-1.493,0.874H8.805c0.378-1.412,1.669-2.462,3.195-2.462c1.818,0,3.309,1.491,3.309,3.309 C15.309,18.783,13.818,20.274,12,20.274z M23.849,0.396c-0.001,0.001-0.002,0.002-0.002,0.003 c-0.002-0.002-0.004-0.003-0.006-0.005c0.001-0.001,0.002-0.003,0.004-0.004c-0.116-0.137-0.279-0.231-0.519-0.238 c-0.202,0.005-0.391,0.097-0.512,0.259l-1.818,2.353c-0.164-0.058-0.339-0.095-0.523-0.095H3.528c-0.184,0-0.358,0.038-0.523,0.095 L1.187,0.41c-0.121-0.162-0.31-0.253-0.512-0.259c-0.24,0.006-0.403,0.1-0.519,0.238c0.001,0.001,0.002,0.003,0.004,0.004 C0.157,0.395,0.155,0.397,0.153,0.399C0.153,0.398,0.152,0.397,0.151,0.396C0.085,0.474-0.146,0.822,0.139,1.22l1.909,2.471 C1.981,3.867,1.94,4.057,1.94,4.257v3.707c0,0.877,0.711,1.589,1.589,1.589h16.944c0.877,0,1.589-0.711,1.589-1.589V4.257 c0-0.2-0.041-0.39-0.109-0.566l1.909-2.471C24.146,0.822,23.915,0.474,23.849,0.396z M6.904,8.228c-0.987,0-1.787-0.8-1.787-1.787 s0.8-1.787,1.787-1.787s1.787,0.8,1.787,1.787S7.891,8.228,6.904,8.228z M17.229,8.228c-0.987,0-1.787-0.8-1.787-1.787 s0.8-1.787,1.787-1.787c0.987,0,1.787,0.8,1.787,1.787S18.216,8.228,17.229,8.228z"/></symbol><symbol id="si-f1" viewBox="0 0 24 24"><path fill="#E10600" d="M9.6 11.24h7.91L19.75 9H9.39c-2.85 0-3.62.34-5.17 1.81C2.71 12.3 0 15 0 15h3.38c.77-.75 2.2-2.13 2.85-2.75.92-.87 1.37-1.01 3.37-1.01zM20.39 9l-6 6H18l6-6h-3.61zm-3.25 2.61H9.88c-2.22 0-2.6.12-3.55 1.07C5.44 13.57 4 15 4 15h3.15l.75-.75c.49-.49.75-.55 1.78-.55h5.37l2.09-2.09z"/></symbol><symbol id="si-f5" viewBox="0 0 24 24"><path fill="#E4002B" d="M12 0C5.373 0 0 5.373 0 12a11.943 11.943 0 002.336 7.1113c.509.004.8594-.111.8984-.33.046-.229.0068-.5825-.0332-.9395a55.067 55.067 0 01-.2344-7.4473c-.609.027-1.1547.055-1.6777.086.02-.471.046-.9188.084-1.3828.517-.05 1.064-.0936 1.666-.1446.026-.406.0568-.7983.0918-1.1953.27-2.43 2.828-3.9162 4.959-4.4902.946-.23 1.5245-.3022 1.9785-.3262.164-.005.3405-.0117.5175-.0117.442 0 .8899.0414 1.1739.2344.46.345.9135.6873 1.3965 1.0683.048.065.1024.1678-.0176.3438-.222.26-.4371.5084-.6621.7754-.13.157-.3454.1164-.5274.0664-.38-.194-.7462-.3728-1.1172-.5528-.672-.299-1.3666-.6061-2.1406-.5761-.483.039-.951.532-1 1.209a101.41 101.41 0 00-.1504 3.2285c1.343-.038 2.6837-.0624 4.0957-.0684l-.002.9453c-.46.206-.8954.413-1.3574.623-.953.011-1.8595.0202-2.7715.0352a125.13 125.13 0 00.1192 7.9317c.024.378.0424.7605.1504 1.0175.13.322.8798.5701 2.5098.6621.007.284.0153.5532.0253.8282-2.655-.077-5.205-.3302-7.248-.6992A11.962 11.962 0 0012 24c6.628 0 12-5.373 12-12a11.942 11.942 0 00-2.0957-6.7754c-.147.607-.2252 1.2378-.3672 1.8828-1.8-.234-3.9131-.4053-6.2871-.4883-.191.602-.3711 1.192-.5781 1.836 3.973.245 5.9048 1.2924 7.0508 2.5254 1.113 1.248 1.3501 2.6262 1.2851 3.9062-.143 2.081-1.0613 3.3971-2.3203 4.3711-1.274.96-2.8139 1.436-4.0469 1.539-1.819.137-4.2515-.2962-4.7695-.6132a178.03 178.03 0 01-.9492-2.2012c-.08-.166-.1294-.3371.0976-.5351.354-.339.6928-.6667 1.0508-1.0137.158-.155.3338-.2991.4668-.0781.489.755.9473 1.4477 1.4063 2.1367.522.77 1.3167 1.4695 3.0527 1.3535 1.459-.13 2.5675-1.2333 2.6855-2.4473.128-2.246-2.1446-3.8396-8.0546-4.3496a2571.27 2571.27 0 013.123-9.371c1.404.065 2.7043.1798 3.9453.3398.919.116 1.772.3287 2.627.4277A11.973 11.973 0 0012 0zm10.0195 21.1113c-.5006 0-.9082.4076-.9082.9082 0 .5007.4076.9082.9082.9082.5007 0 .9082-.4075.9082-.9082 0-.5006-.4075-.9082-.9082-.9082zm0 .127c.4318 0 .7793.3495.7793.7812a.7776.7776 0 01-.7793.7793c-.4317 0-.7812-.3475-.7812-.7793a.7809.7809 0 01.7812-.7812zm-.3652.2773v.9961h.1738v-.3926h.1387c.092 0 .1583.0112.1953.0332.062.037.0938.1146.0938.2286v.08l.002.0293a.07.07 0 01.0039.0118c0 .005-.0001.0068.0039.0098h.162l-.0058-.0137a.106.106 0 01-.0078-.0488.6846.6846 0 01-.004-.0743v-.0742a.276.276 0 00-.0527-.1543c-.037-.053-.0948-.0846-.1718-.0976A.408.408 0 0022.328 22c.066-.042.0977-.1103.0977-.1973 0-.124-.0503-.21-.1543-.252a.752.752 0 00-.2695-.035zm.1738.123h.1504a.45.45 0 01.211.0372c.042.024.0664.0735.0664.1445a.153.153 0 01-.1036.1563.451.451 0 01-.166.0214h-.1582z"/></symbol><symbol id="si-facebook" viewBox="0 0 24 24"><path fill="#0866FF" d="M9.101 23.691v-7.98H6.627v-3.667h2.474v-1.58c0-4.085 1.848-5.978 5.858-5.978.401 0 .955.042 1.468.103a8.68 8.68 0 0 1 1.141.195v3.325a8.623 8.623 0 0 0-.653-.036 26.805 26.805 0 0 0-.733-.009c-.707 0-1.259.096-1.675.309a1.686 1.686 0 0 0-.679.622c-.258.42-.374.995-.374 1.752v1.297h3.919l-.386 2.103-.287 1.564h-3.246v8.245C19.396 23.238 24 18.179 24 12.044c0-6.627-5.373-12-12-12s-12 5.373-12 12c0 5.628 3.874 10.35 9.101 11.647Z"/></symbol><symbol id="si-facebookgaming" viewBox="0 0 24 24"><path fill="#005FED" d="M0 0v24h15.67v-7.35H7.35v-9.3H24V0zm8.33 15.68h8.32V24H24V8.32H8.33Z"/></symbol><symbol id="si-facebooklive" viewBox="0 0 24 24"><path fill="#ED4242" d="M9.4777 7.8108a.4611.4611 0 0 0-.462.462v7.452a.461.461 0 0 0 .462.462H23.538v.0024a.4611.4611 0 0 0 .462-.462V8.2728a.4611.4611 0 0 0-.462-.462zm-5.2862.0072C1.879 7.818 0 9.6922 0 12.007c0 2.0922 1.533 3.8267 3.5376 4.1394V13.218h-1.071v-1.211h1.071v-.924c0-1.0497.6208-1.6326 1.578-1.6326.4573 0 .9336.0877.9336.0877v1.0236h-.5237c-.5213 0-.6871.327-.6871.6563v.7866h1.1634l-.1872 1.2108H4.836v2.9286c2.0093-.3104 3.5447-2.0448 3.5447-4.137 0-2.315-1.8766-4.1891-4.1892-4.1891zm7.1676 2.4073h.635v2.9926h1.6278v.5544H11.359zm2.9452 0h.635v3.547h-.635zm1.2439 0h.7014l.8932 2.8078h.0427l.8862-2.8078h.6752l-1.2273 3.547h-.7322zm3.81.0024h2.296v.5473h-1.6609v.9407h1.5709v.5165h-1.5709v.9928h1.661v.5497h-2.296Z"/></symbol><symbol id="si-faceit" viewBox="0 0 24 24"><path fill="#FF5500" d="M23.999 2.705a.167.167 0 00-.312-.1 1141.27 1141.27 0 00-6.053 9.375H.218c-.221 0-.301.282-.11.352 7.227 2.73 17.667 6.836 23.5 9.134.15.06.39-.08.39-.18z"/></symbol><symbol id="si-facepunch" viewBox="0 0 24 24"><path fill="#EC1C24" d="M12 0C5.388 0 0 5.388 0 12s5.388 12 12 12 12-5.388 12-12S18.629 0 12 0zm0 21.314c-5.133 0-9.297-4.164-9.297-9.297S6.867 2.72 12 2.72s9.297 4.164 9.297 9.297-4.164 9.297-9.297 9.297zM10.028 12l1.48 1.479-1.922 1.92-1.478-1.478-1.428 1.444-1.92-1.92L6.203 12l-1.377-1.377 1.92-1.904 1.36 1.377 1.411-1.41 1.921 1.903L10.03 12zm9.162-1.462-1.411 1.411 1.479 1.479-1.92 1.904-1.48-1.48-1.444 1.446-1.904-1.921 1.445-1.428-1.377-1.377 1.904-1.92 1.376 1.376 1.411-1.41 1.92 1.92z"/></symbol><symbol id="si-fairphone" viewBox="0 0 24 24"><path fill="#4495D1" d="M3.25 12.358c.124-.306.25-.612.38-.918.058.306.12.613.185.918H3.25zm.129-1.943a46.426 46.426 0 0 0-1.396 3.151h.649a.234.234 0 0 0 .216-.154c.05-.137.102-.273.155-.41h.957l.103.411a.2.2 0 0 0 .195.155h.667a38.402 38.402 0 0 1-.752-3.152l-.794-.001zm1.935 3.152h.784c.062-1.044.17-2.089.321-3.134h-.783a36.666 36.666 0 0 0-.322 3.134m3.23-2.018c-.029.25-.201.407-.467.407h-.388c.028-.273.06-.546.094-.819h.384c.262 0 .41.134.378.402v.009m.793-.04c0-.008.002-.016.003-.023.037-.318-.026-.56-.172-.734-.17-.206-.461-.318-.871-.318H6.882c-.035.234-.067.468-.096.703h.218c-.103.81-.178 1.62-.226 2.43h.78c.02-.323.043-.646.07-.97h.278c.128.285.26.57.394.856a.2.2 0 0 0 .183.115h.756a53.18 53.18 0 0 1-.542-1.137 1.11 1.11 0 0 0 .64-.922m2.093.062c-.031.264-.212.43-.487.43h-.274c.03-.293.062-.572.099-.865h.27c.283 0 .427.134.393.42l-.001.014m-.257-1.137H9.866c-.033.23-.066.473-.096.703h.217a36.478 36.478 0 0 0-.224 2.432h.78c.018-.303.04-.606.065-.909h.3c.669-.009 1.225-.367 1.31-1.12l.002-.017c.083-.703-.326-1.088-1.046-1.088m3.032 1.19h-.866c.044-.396.096-.793.154-1.19h-.784a36.105 36.105 0 0 0-.32 3.134h.784c.023-.403.053-.806.09-1.209h.867c-.037.403-.067.806-.09 1.21h.788a36.75 36.75 0 0 1 .321-3.135h-.789c-.058.397-.11.794-.154 1.19m6.068.386a52.412 52.412 0 0 1-.847-1.631l-.718.12a36.018 36.018 0 0 0-.312 3.07h.773c.031-.547.076-1.095.133-1.642.278.516.566 1.032.865 1.548a.188.188 0 0 0 .163.094h.59a36.75 36.75 0 0 1 .32-3.134h-.772c-.076.526-.142 1.051-.196 1.576M.941 11.713c.02-.185.042-.37.066-.556h1.427c.031-.24.064-.482.1-.724H.104c-.036.242-.069.483-.1.725h.218A35.93 35.93 0 0 0 0 13.568h.784c.023-.386.052-.773.087-1.16h.845a.247.247 0 0 0 .236-.221c.016-.158.032-.315.05-.473H.94zm21.461 1.147c.015-.18.03-.359.047-.538h.859a.247.247 0 0 0 .237-.221c.014-.149.03-.297.047-.446h-1.075c.02-.172.04-.343.062-.515h1.324c.03-.235.063-.471.097-.707h-2.317c-.035.236-.067.471-.097.707h.218a35.363 35.363 0 0 0-.225 2.427h2.119c.013-.236.03-.471.048-.707h-1.344zm-5.079-.795-.005.049c-.054.542-.293.782-.66.782-.36 0-.59-.332-.535-.874 0-.016.003-.033.005-.049.056-.542.349-.869.71-.869a.46.46 0 0 1 .408.225l-.11.106c.093.15.217.357.188.63m.414-1.202.108-.105c-.212-.243-.52-.383-.903-.383-.818 0-1.52.658-1.616 1.593l-.007.068c-.095.94.463 1.59 1.286 1.59.822 0 1.419-.572 1.513-1.508l.007-.067a1.545 1.545 0 0 0-.388-1.188"/></symbol><symbol id="si-falco" viewBox="0 0 24 24"><path fill="#00AEC7" d="M2.812 0c-.23.012-.416.112-.503.329-.155.382.043.66.298.916l10.186 10.17c.16.16.336.31.523.37l.742-.742c-.06-.187-.212-.363-.373-.523C10.291 7.129 6.897 3.739 3.5.35 3.31.16 3.107-.01 2.812 0Zm.95 4.485a.543.543 0 0 0-.434.178c-.265.262-.246.573-.037.867.094.128.198.248.312.36 2.439 2.436 4.88 4.87 7.323 7.302.165.164.363.333.578.404l.738-.738c-.094-.268-.316-.447-.51-.641a4831.46 4831.315 0 0 0-6.246-6.24c-.431-.43-.861-.865-1.306-1.281a.711.711 0 0 0-.418-.211ZM19.33 8.262a.301.301 0 0 0-.213.078c-1.708 1.699-3.417 3.395-5.127 5.092l-8.027 8.014-.02-.02a56.5 56.498 0 0 0-1.36 1.401c-.233.25-.32.57-.05.86.282.303.623.284.934.054.233-.172.434-.388.64-.594l.543-.54 1.506-1.503c3.656-3.647 7.307-7.298 10.953-10.955l2.637-.46c-.377-.38-1.794-1.44-2.416-1.427Zm-14.78.803a.582.582 0 0 0-.345.193c-.208.228-.206.492-.045.733.15.217.32.42.508.605a773.152 773.129 0 0 0 3.486 3.484c.394.393.787.787 1.195 1.164.09.087.2.15.32.184l.774-.774c-.05-.198-.184-.356-.332-.503a3008.15 3008.06 0 0 0-4.724-4.715 1.443 1.443 0 0 0-.452-.315.725.725 0 0 0-.384-.056Zm15.137 2.56c-.27.018-.485.208-.687.41l-9.86 9.844-.726.724c-.174.175-.352.367-.408.575-.045.164-.013.34.156.521.423.455.82.13 1.154-.205 3.568-3.559 7.134-7.117 10.7-10.68.169-.168.339-.34.357-.6a.562.562 0 0 0-.395-.542.71.71 0 0 0-.29-.046zm.057 3.58c-.226.012-.438.178-.625.364-1.357 1.346-2.706 2.702-4.063 4.05-.474.47-.452.91.018 1.37.796.782 1.59 1.565 2.363 2.37.433.45.907.732 1.518.613.14.01.249.03.353.02.446-.042 1.01-.012 1.024-.626.014-.633-.535-.636-.995-.619-.466.017-.809-.174-1.119-.5-.476-.5-.952-1.004-1.466-1.463-.456-.406-.391-.703.023-1.1 1.091-1.05 2.152-2.132 3.217-3.207.314-.318.593-.697.17-1.096-.143-.134-.283-.183-.418-.176z"/></symbol><symbol id="si-falcon" viewBox="0 0 24 24"><path fill="#F0AD4E" d="M15.929 19.487c0 .035.264.2.592.364 1.578.835 2.55 1.742 2.914 2.75.164.435.171.592.028.92-.178.436-.207.429.95.393 1.043-.035 1.657-.15 1.657-.314 0-.078-.857-.885-1.171-1.093a1.431 1.431 0 0 1-.186-.15 7.636 7.636 0 0 0-.321-.257 11.96 11.96 0 0 1-.372-.278 6.126 6.126 0 0 0-.25-.193l-.45-.35a4.642 4.642 0 0 0-.535-.357c-.328-.178-.528-.307-.571-.357-.05-.057-1.036-.593-1.5-.814-.214-.1-.45-.214-.514-.25-.157-.086-.271-.093-.271-.014zm-5.75-1.536a4.78 4.78 0 0 0-.056.415c-.043.5-.379 1.164-.764 1.52-.465.436-.75.572-.993.48a3.353 3.353 0 0 0-.628-.115c-.357-.043-.486-.022-.657.078-.186.108-.222.179-.222.4 0 .315-.007.307.257.165a1.02 1.02 0 0 1 .3-.108c.15 0 .093.143-.093.229-.207.093-.264.271-.278.828-.007.422.121.586.236.286.035-.093.17-.221.3-.293A1.42 1.42 0 0 0 8 21.43c.186-.314.286-.364.286-.15 0 .457.236.479.436.036.121-.243.186-.307.271-.271.236.1.515.114.615.028.1-.086.092-.114-.043-.257-.086-.093-.15-.179-.129-.193.157-.114.5-.193.85-.193.628 0 .714-.107.714-.914 0-.82-.214-1.406-.564-1.556-.179-.072-.236-.079-.257-.008zM22.535 1.062a1.22 1.22 0 0 0-.193.315c-.414.885-1.785 1.72-3.949 2.392-.193.064-.535.164-.75.236-.214.064-.635.2-.928.285-3.635 1.107-4.27 1.678-5.57 4.963-.586 1.472-.893 1.964-1.5 2.364-.507.343-.92.457-2.07.6-1.829.221-2.536.436-3.107.943-.35.3-.464.614-.464 1.242 0 .286-.029.536-.057.557-.036.022-.1.214-.15.436-.072.3-.072.45-.007.643.1.292.378.535.628.535.178 0 .186-.05.05-.371-.029-.079.014-.179.136-.307.157-.157.235-.179.72-.179.558 0 .744-.057 1.008-.3.15-.135.157-.135.357.086.421.464 1.52 1.121 2.892 1.735.65.293 1.057.643 1.364 1.186.207.357.236.457.236.97 0 .836-.3 1.408-.886 1.68-.1.05-.243.113-.307.15-.071.035-.336.063-.593.063H8.93l-.15.336a8.087 8.087 0 0 1-.25.528c-.078.158-.078.208 0 .322.093.121.122.107.464-.243.358-.364.579-.471.579-.271 0 .057-.129.2-.279.321-.35.278-.4.478-.235.95.135.385.314.5.357.235.014-.078.121-.235.235-.35.115-.107.208-.242.208-.292 0-.05.05-.129.107-.179.157-.128.221.1.121.457-.064.243-.057.314.036.414.071.079.093.186.064.307-.029.129-.014.179.05.179.1 0 .336-.221.336-.314 0-.029.064-.15.15-.264.15-.215.157-.258.021-1.014-.021-.143-.014-.265.014-.265.15 0 .664.329.693.443.05.186.264.079.264-.136a.802.802 0 0 0-.428-.678c-.236-.1-.279-.257-.086-.314.45-.143.871-.4 1.25-.779.457-.442.535-.535.828-.964.407-.592.786-.857 1.221-.857.6 0 2.485.843 3.942 1.764.679.429 2.007 1.357 2.228 1.557.043.043.286.221.543.407.257.179.7.521.986.764.285.236.542.436.57.436.236 0 .315-.614.108-.8a5.417 5.417 0 0 0-.557-.343c-.521-.293-1.528-.971-1.964-1.335-.985-.807-2.242-2.385-3.078-3.864a9.517 9.517 0 0 1-.278-.485c-.6-1.05-1.743-2.385-2.05-2.385-.121 0-.121-.008.072-.929.057-.293.142-.792.185-1.107.129-.87.314-1.863.45-2.356.386-1.45 1.207-2.457 2.7-3.3 2.092-1.192 2.927-1.928 3.527-3.12.322-.636.386-.793.579-1.507.1-.364.221-1.25.171-1.25a.391.391 0 0 0-.1.057zM3.496.484C1.839 2.198 1.003 3.926 1.003 5.647c0 .393.029.729.072.75.043.021.071.114.071.2 0 .2.172.693.4 1.157.3.621.736 1.057 1.921 1.914.929.67 1.443 1.428 1.614 2.385l.093.514.257-.107c.65-.279 1.15-.379 2.642-.536.957-.1 1.328-.243 1.771-.678.629-.629.329-1.036-1.635-2.2-2.114-1.257-2.87-1.842-3.692-2.863-.657-.822-.993-1.5-1.157-2.343-.157-.785.057-2.028.536-3.142.135-.328.25-.614.25-.642 0-.15-.236.007-.65.428Z"/></symbol><symbol id="si-fampay" viewBox="0 0 24 24"><path fill="#FFAD00" d="M14.828 23.971a.206.206 0 01-.233-.016c-.646-.407-3.892-2.571-6.089-5.288-1.34-1.677 3.783-4.173 3.783-3.844.005 1.782.5 6.467 2.603 8.747a.268.268 0 01-.013.356l-.051.035 M13.48 13.082l4.659-2.119a4.386 4.386 0 002.542-2.636l.581-1.634a.174.174 0 00-.11-.222.171.171 0 00-.125 0l-8.897 3.771.033-.142a.902.902 0 01.439-.626c1.505-.927 6.903-3.686 6.903-3.686a6.592 6.592 0 003.53-4.112L23.444.28a.225.225 0 00-.153-.268.222.222 0 00-.144 0s-8.123 3.156-10.734 4.425C9.8 5.707 7.126 7.34 6.2 12.142c-.376 1.945.313 3.592 1.607 5.46-.006-1.836 4.637-4.02 5.673-4.52z M2.026 4.86C1.289 4.299.662 4.25.553 4.299c-.049-.174.846-.597.956-.707.362-.346.565-.804.988-1.098.863-.611 1.93-.424 2.824.064.455.25 1.709 1.071 1.728 1.112A14.02 14.02 0 018.945 5.38a.241.241 0 010 .314c-.211.203-.418.348-.675.565-1.703 1.43-2.73 5.24-2.746 5.711V12s-.999-5.38-3.498-7.14z"/></symbol><symbol id="si-fandango" viewBox="0 0 24 24"><path fill="#FF7300" d="M13.664 6.956L8.05 8.496 9.19 12.72l5.615-1.54L15.95 15.4l-5.615 1.49 1.093 4.224-5.615 1.49L4.42 17.54c.846-.995 1.194-2.386.846-3.728-.398-1.342-1.392-2.385-2.584-2.832L1.29 5.763 12.57 2.78zm7.106-.198L18.932.05 0 5.068l1.838 6.758c1.093.2 2.087 1.043 2.385 2.236.348 1.193-.1 2.385-.944 3.18l1.788 6.708L24 18.882l-1.79-6.708c-1.142-.2-2.086-1.043-2.434-2.236-.298-1.193.1-2.435.994-3.18z"/></symbol><symbol id="si-fandom" viewBox="0 0 24 24"><path fill="#FA005A" d="M8.123.008a.431.431 0 00-.512.42v9.746L4.104 6.666a.432.432 0 00-.66.064.428.428 0 00-.071.239v10.064a2.387 2.387 0 00.701 1.694l4.565 4.57a2.4 2.4 0 001.693.703h3.34c.635 0 1.242-.252 1.691-.701l4.565-4.572a2.394 2.394 0 00.699-1.694V13.41a2.39 2.39 0 00-.7-1.693L8.343.125a.427.427 0 00-.219-.117zM9.646 12.51a.719.719 0 01.508.21l1.848 1.85 1.844-1.85a.714.714 0 011.015 0l1.32 1.321a.724.724 0 01.212.508v1.406a.72.72 0 01-.21.508l-3.68 3.7a.72.72 0 01-1.019 0l-3.668-3.7a.716.716 0 01-.209-.506v-1.408a.71.71 0 01.211-.506l1.32-1.322a.713.713 0 01.508-.211Z"/></symbol><symbol id="si-fanfou" viewBox="0 0 24 24"><path fill="#00CCFF" d="m21.96.0655 1.369 2.082c-3.2662.9041-6.8623 1.5142-10.7875 1.8302v3.8061H22.736c-.448 4.4272-1.616 7.9444-3.5041 10.5525 1.239 1.475 2.8271 2.788 4.7682 3.9381l-1.7 1.6601a25.133 25.133 0 0 1-4.5823-3.7402 20.9459 20.9459 0 0 1-4.9932 3.7402l-1.528-1.726c2.143-1.2121 3.8151-2.4762 5.0192-3.7932-1.599-2.5201-2.6441-5.2913-3.1352-8.3124h-.54c.07 5.5593-.892 10.1604-2.8851 13.8056l-2.002-1.396c1.73-3.0302 2.594-7.2944 2.594-12.7916V1.8966c4.2872-.167 8.1904-.776 11.7125-1.8301Zm-1.8972 10.0384h-4.6102c.35 2.3001 1.115 4.4132 2.2921 6.3353 1.184-1.861 1.9571-3.9732 2.3181-6.3353zM9.4054 3.6227c-.123 1.984-.51 4.0441-1.159 6.1772l-2.1461-.618c.308-.887.584-1.9551.83-3.2002H3.583C2.96 7.4998 2.314 8.8299 1.646 9.9709L0 8.18C1.186 6.0817 2.138 3.3845 2.8581.0924l2.2401.646a63.5656 63.5656 0 0 1-.764 2.8842Zm-.961 15.7546c-1.6161 1.616-3.1532 2.9021-4.6102 3.8602L2.45 21.3274c.255-.22.382-.554.382-1.002V8.4308h2.3451v10.8404c.623-.483 1.396-1.185 2.3181-2.107z"/></symbol><symbol id="si-fantom" viewBox="0 0 24 24"><path fill="#0928FF" d="M10.9604.2299c.5833-.3065 1.4709-.3065 2.0542 0l5.9522 3.1279c.3513.1846.5442.4597.5788.7437h.0057V19.824c-.0077.3097-.2025.6174-.5845.8182l-5.9522 3.1279c-.5833.3065-1.4708.3065-2.0542 0l-5.9521-3.1279c-.3804-.1999-.563-.5098-.572-.8182a1.1165 1.1165 0 0 1-.0002-.0767V4.2025a.7965.7965 0 0 1-.0002-.051l.0004-.05h.0026c.0265-.2871.2106-.5552.5694-.7437Zm7.6538 12.643-5.5996 2.9427c-.5833.3066-1.4709.3066-2.0542 0l-5.5874-2.936v6.9132l5.5874 2.9207c.3155.1678.643.3313.9632.3521l.064.0021c.3336.0011.6575-.1674.986-.327l5.6406-2.973Zm-15.146 6.6093c0 .6022.0703.9982.21 1.2772.1158.2312.2896.4078.6068.6229l.0181.0122a7.138 7.138 0 0 0 .2397.153l.1101.067.3381.2032-.4849.7976-.3784-.2275-.0636-.0388a8.4255 8.4255 0 0 1-.2847-.1817c-.9042-.6065-1.2414-1.2677-1.248-2.6433l-.0001-.0419Zm8.0507-10.8233a.855.855 0 0 0-.121.0514l-5.9521 3.1279a.735.735 0 0 0-.0179.0097l-.005.0029.0093.0053.0136.0073 5.9522 3.1279a.8546.8546 0 0 0 .121.0514zm.9372 0v6.3839a.8538.8538 0 0 0 .121-.0514l5.9521-3.128a.8117.8117 0 0 0 .0179-.0096l.005-.003-.0094-.0052-.0136-.0073-5.9521-3.128a.8534.8534 0 0 0-.121-.0513zm6.1581-3.4421-5.3394 2.806 5.3394 2.8059zM5.373 5.2234v5.5987L10.7 8.0227Zm7.204-4.1692c-.3095-.1627-.8695-.1627-1.179 0L5.4458 4.182a.6432.6432 0 0 0-.0179.0097l-.005.003.0093.0052.0136.0074 5.9522 3.1279c.3095.1626.8695.1626 1.179 0l5.9522-3.128a.643.643 0 0 0 .0179-.0097l.005-.0029-.0094-.0053-.0136-.0073zm6.9169.343.3784.2273.0636.0389c.1094.0672.2.125.2847.1817.9042.6065 1.2414 1.2677 1.248 2.6433l.0001.0419h-.9368c0-.6024-.0704-.9983-.2101-1.2773-.1158-.2312-.2896-.4078-.6068-.6228l-.0181-.0122a7.2984 7.2984 0 0 0-.2397-.1532l-.1101-.067-.3381-.203z"/></symbol><symbol id="si-farcaster" viewBox="0 0 24 24"><path fill="#855DCD" d="M18.24.24H5.76C2.5789.24 0 2.8188 0 6v12c0 3.1811 2.5789 5.76 5.76 5.76h12.48c3.1812 0 5.76-2.5789 5.76-5.76V6C24 2.8188 21.4212.24 18.24.24m.8155 17.1662v.504c.2868-.0256.5458.1905.5439.479v.5688h-5.1437v-.5688c-.0019-.2885.2576-.5047.5443-.479v-.504c0-.22.1525-.402.358-.458l-.0095-4.3645c-.1589-1.7366-1.6402-3.0979-3.4435-3.0979-1.8038 0-3.2846 1.3613-3.4435 3.0979l-.0096 4.3578c.2276.0424.5318.2083.5395.4648v.504c.2863-.0256.5457.1905.5438.479v.5688H4.3915v-.5688c-.0019-.2885.2575-.5047.5438-.479v-.504c0-.2529.2011-.4548.4536-.4724v-7.895h-.4905L4.2898 7.008l2.6405-.0005V5.0419h9.9495v1.9656h2.8219l-.6091 2.0314h-.4901v7.8949c.2519.0177.453.2195.453.4724"/></symbol><symbol id="si-fareharbor" viewBox="0 0 24 24"><path fill="#0A6ECE" d="M2.4746 3.9355c.0004.0135.002.0276.002.041 0 .7804-.6318 1.4122-1.4122 1.4122-.0197 0-.039-.0012-.0585-.002v1.4746c.0195-.0018.0385-.0058.0585-.0058.3534 0 .6387.2873.6387.6406a.6379.6379 0 0 1-.6387.6387c-.02 0-.039-.004-.0585-.0059v1.168c.0195-.0018.0385-.0059.0585-.0059a.6379.6379 0 0 1 .6387.6387c0 .3533-.2853.6406-.6387.6406-.02 0-.039-.004-.0585-.0059v1.166c.0195-.0018.0385-.0059.0585-.0059.3534 0 .6387.2873.6387.6407a.6379.6379 0 0 1-.6387.6386c-.02 0-.039-.004-.0585-.0059v1.4317c.0195-.0008.0388-.004.0585-.004.7804 0 1.4122.6338 1.4122 1.4141v.0117h19.0879v-.0117c0-.7803.6317-1.414 1.412-1.414.0064 0 .0114.0019.0176.002v-1.4258c-.0063.0002-.0112.002-.0175.002-.3534 0-.6407-.2854-.6407-.6387a.6412.6412 0 0 1 .6407-.6406c.0064 0 .0112.0018.0175.002v-1.1582c-.0063.0002-.0112.002-.0175.002a.6412.6412 0 0 1-.6407-.6406c0-.3534.2873-.6387.6407-.6387.0064 0 .0112.0018.0175.002V8.1327c-.0063.0002-.0112.002-.0175.002-.3534 0-.6407-.2854-.6407-.6387a.6412.6412 0 0 1 .6407-.6406c.0064 0 .0112.0017.0175.002V5.3886h-.0175c-.7804 0-1.4121-.6318-1.4121-1.4121 0-.0135.0016-.0276.002-.041zm9.5176.832c.035.0001.07.0088.1016.0274l3.3906 2.0059a.1996.1996 0 0 1 .121.1836.2015.2015 0 0 1-.2011.2011h-.8204v3.6094h1.0176v1.0567l-.6406.6015v1.795h5.371c.187 0 .34-.174.34-.3887V6.039c0-.2148-.153-.3887-.34-.3887h-4.7948V5.248h4.795c.4082 0 .7402.355.7402.791v7.8204c0 .436-.332.791-.7403.791H3.6836c-.4082 0-.7402-.355-.7402-.791V6.039c0-.4361.332-.791.7402-.791h4.7187v.4023H3.6836c-.1868 0-.3398.174-.3398.3887v7.8203c0 .2147.153.3886.3398.3886h5.3281v-1.8046l-.6308-.5918v-1.0567h1.0175V7.1855H8.582a.2032.2032 0 0 1-.1953-.1484.1993.1993 0 0 1 .0918-.2246l3.4121-2.0176a.1977.1977 0 0 1 .1016-.0273zm0 .4337-2.6777 1.582h5.3535zm7.1445 1.662a.203.203 0 0 1 .166.1485.2001.2001 0 0 1-.1406.2461l-3.2305.877a.2007.2007 0 0 1-.0527.0078.2008.2008 0 0 1-.1934-.1485.2002.2002 0 0 1 .1407-.246l3.2304-.879a.1993.1993 0 0 1 .0801-.0058zM5.0312 6.916a.202.202 0 0 1 .0801.0059l2.9278.8261a.201.201 0 0 1-.0547.3946.1996.1996 0 0 1-.0547-.0078l-2.9258-.8262a.201.201 0 0 1-.1387-.248.1983.1983 0 0 1 .166-.1446Zm4.7696.2695v3.6094h1.996v-.6094c-.5804-.0931-1.0253-.5967-1.0253-1.203 0-.6064.4449-1.11 1.0254-1.2032v-.5938zm2.3984 0v.5977c.5734.0992 1.0117.5979 1.0117 1.1992 0 .6014-.4383 1.102-1.0117 1.2012v.6113h1.9824V7.1855Zm-.207.9786c-.451 0-.8184.3674-.8184.8183 0 .451.3674.8184.8184.8184s.8164-.3674.8164-.8184-.3654-.8183-.8164-.8183zm-7.8477.6308h3.4297a.1998.1998 0 0 1 .1992.2012.1999.1999 0 0 1-.1992.2012H4.1445a.2015.2015 0 0 1-.2011-.2012.2015.2015 0 0 1 .2011-.2012zm12.1465 0h3.4297a.2015.2015 0 0 1 .2012.2012.2015.2015 0 0 1-.2012.2012H16.291a.2015.2015 0 0 1-.2012-.2012.2015.2015 0 0 1 .2012-.2012zm-8.2832.9024a.2011.2011 0 0 1 .17.1425.2009.2009 0 0 1-.1348.25l-2.7207.8204a.2043.2043 0 0 1-.0586.0078.2021.2021 0 0 1-.1934-.1426.2008.2008 0 0 1 .1348-.25l2.7226-.8203a.2033.2033 0 0 1 .0801-.0078zm7.8496 0a.204.204 0 0 1 .0801.0078l3.0762.9238a.2009.2009 0 0 1 .1347.25.2018.2018 0 0 1-.1933.1426.1912.1912 0 0 1-.0567-.0078l-3.0761-.9238a.201.201 0 0 1-.1348-.25.2007.2007 0 0 1 .17-.1426zm-7.0762 1.5v.4804l.5157.4825h5.3886l.5157-.4825v-.4804H9.3984Zm.631 1.3652v1.1563l3.0038-1.1563Zm4.121 0-4.0937 1.5762c-.009.0034-.0184.0018-.0274.0039v.1054h2.5352l2.6113-1.1074v-.5781Zm1.0254 1.0137-1.6074.6718h1.6074zM0 17.6172v2.4121h.5078v-.9336h1.1777v-.4824H.5078v-.5137h1.336v-.4824zm9.5195 0v2.4121h.4844v-1.0117h1.002v1.0117h.5058v-2.4121h-.5058v.9433h-1.002v-.9433zm10.9434.3476c-.6406 0-1.1074.4721-1.1074 1.0489v.0059c0 .5766.461 1.0449 1.1015 1.0449.6407 0 1.1055-.4742 1.1055-1.0508v-.0059c0-.5766-.459-1.043-1.0996-1.043zm-17.5645.0215-.8906 2.043h.4668l.1895-.455h.877l.1894.455h.4785l-.8906-2.043zm9.9805 0-.8887 2.043h.4649l.1894-.455h.879l.1894.455h.4766l-.8887-2.043ZM4.707 18v2.0293h.457v-.6504h.3575l.4453.6504H6.5l-.5059-.7246c.264-.0955.4454-.3015.4454-.629V18.67c0-.4173-.2939-.6699-.7832-.6699Zm2.4395 0v2.0293h1.582v-.3984h-1.127v-.4258h.9786v-.3965h-.9785v-.4121h1.1113V18Zm7.541 0v2.0293h.457v-.6504h.3594l.4453.6504h.5332l-.5078-.7246c.264-.0955.4453-.3015.4453-.629V18.67c0-.4173-.2938-.6699-.7832-.6699Zm2.3828 0v2.0293h.9863c.4686 0 .7774-.1857.7774-.5566v-.006c0-.2723-.1485-.4082-.3887-.498.1483-.081.2735-.2085.2735-.4375v-.0059c0-.3187-.2616-.5253-.6856-.5253Zm5.1348 0v2.0293h.457v-.6504h.3594l.4453.6504H24l-.5078-.7246c.264-.0955.4453-.3015.4453-.629V18.67c0-.4173-.2938-.6699-.7832-.6699Zm-1.748.377c.3678 0 .6269.289.6269.6367v.0059c0 .3476-.2534.6328-.6211.6328-.3677 0-.629-.2909-.629-.6387v-.0059c0-.3478.2555-.6308.6231-.6308zm-2.9434.0136h.4511c.1928 0 .3008.0758.3008.209v.006c0 .1506-.1285.2148-.33.2148h-.422zm-12.3496.0117h.453c.2225 0 .3595.0998.3595.291v.006c0 .171-.1272.287-.3496.287h-.463Zm9.9804 0h.4551c.2224 0 .3574.0998.3574.291v.006c0 .171-.1271.287-.3496.287h-.4629zm7.5176 0h.455c.2225 0 .3575.0998.3575.291v.006c0 .171-.1271.287-.3496.287h-.4629zm-19.5605.1192.2773.6582h-.5527Zm9.9824 0 .2754.6582h-.5508zm4.4297.67h.5293c.2343 0 .3379.0844.3379.2206v.006c0 .1506-.1225.2187-.3243.2187h-.543z"/></symbol><symbol id="si-farfetch" viewBox="0 0 24 24"><path fill="#000000" d="M24 10.248V6.749H13.586c-3.062 0-4.737 1.837-4.737 4.488v2.231H4.321V8.599c0-3.425.332-5.074 4.212-5.074H24V0H6.259C2.336 0 0 2.589 0 6.386V24h4.321v-7.033h4.527V24h4.339v-7.033H24v-3.499H13.188v-1.155c0-1.461.232-2.064 2.257-2.064H24z"/></symbol><symbol id="si-fastly" viewBox="0 0 24 24"><path fill="#FF282D" d="M13.919 3.036V1.3h.632V0H9.377v1.3h.631v1.749a10.572 10.572 0 00-8.575 10.384C1.433 19.275 6.17 24 12 24c5.842 0 10.567-4.737 10.567-10.567 0-5.186-3.729-9.486-8.648-10.397zm-1.628 15.826v-.607h-.619v.607c-2.757-.158-4.955-2.38-5.101-5.137h.607v-.62h-.607a5.436 5.436 0 015.101-5.089v.607h.62v-.607a5.435 5.435 0 015.137 5.114h-.607v.619h.607a5.444 5.444 0 01-5.138 5.113zm2.26-7.712l-.39-.389-1.979 1.725a.912.912 0 00-.316-.06c-.534 0-.971.448-.971.995 0 .547.437.996.971.996.535 0 .972-.45.972-.996a.839.839 0 00-.049-.304Z"/></symbol><symbol id="si-fathom" viewBox="0 0 24 24"><path fill="#9187FF" d="M14.185 0c-1.702.008-3.693.467-6.068 1.331C.115 4.244-1.581 7.881 1.33 15.883c2.912 8.002 6.55 9.698 14.552 6.786 8.002-2.913 9.699-6.55 6.786-14.552C20.62 2.491 18.214-.018 14.185 0zm2.77 6.57h1.253a.25.25 0 01.199.098.25.25 0 01.043.217L15.672 17.22a.25.25 0 01-.241.186h-1.254a.25.25 0 01-.242-.315l.169-.628.123-.457 2.486-9.252a.25.25 0 01.241-.185zm-9.184.808h.504a.25.25 0 01.25.25v.844a.25.25 0 01-.25.25h-.428a1.7 1.7 0 00-.258.012.221.221 0 00-.12.048.197.197 0 00-.049.078.886.886 0 00-.043.315v.641h.898a.25.25 0 01.25.25v.844a.25.25 0 01-.25.25h-.898v5.094a.25.25 0 01-.25.25h-.985a.25.25 0 01-.25-.25v-7.23a1.723 1.723 0 01.169-.78 1.395 1.395 0 01.453-.523c.37-.257.826-.341 1.257-.343zm3.85 2.344c.767 0 1.419.218 1.883.622.465.404.725.994.723 1.668v1.683l-.755 2.809h-.48a.25.25 0 01-.25-.25v-.187a1.84 1.84 0 01-.223.167c-.335.213-.79.352-1.39.352a2.936 2.936 0 01-1.337-.29 1.898 1.898 0 01-.883-.907 2.193 2.193 0 01-.187-.916 1.907 1.907 0 01.245-.99 1.724 1.724 0 01.646-.618c.52-.293 1.16-.396 1.788-.48H11.4c.342-.046.616-.075.827-.103a1.968 1.968 0 00.431-.088.147.147 0 00.065-.04l.01-.021a.319.319 0 00.009-.086v-.035a.809.809 0 00-.274-.638c-.178-.155-.458-.26-.847-.261-.385 0-.686.106-.89.262a.821.821 0 00-.338.588.25.25 0 01-.249.228H9.101a.25.25 0 01-.25-.261 2.139 2.139 0 01.825-1.593c.491-.391 1.165-.615 1.945-.615zm1.121 3.783c-.09.024-.187.047-.296.068-.303.06-.67.113-1.025.163a2.855 2.855 0 00-.692.171c-.196.082-.333.186-.407.308a.569.569 0 00-.08.307v.007a.604.604 0 00.062.275.554.554 0 00.176.198c.16.115.428.194.79.194.56-.002.915-.164 1.14-.39.223-.228.33-.542.332-.896v-.404z"/></symbol><symbol id="si-fauna" viewBox="0 0 24 24"><path fill="#3A1AB6" d="M17.864 5.034c-1.454.496-2.155 1.385-2.632 2.77-.123.369-.43.778-.777 1.053l1.193 1.306-3.787-2.706L1.411 0s.754 5.003 1.015 6.844c.185 1.298.5 1.88 1.5 2.47l.401.22 1.724.928-1.024-.543 4.726 2.636-.031.07-5.087-2.407c.27.944.793 2.761 1.016 3.564.238.865.508 1.18 1.331 1.487l1.516.566.94-.378-1.194.81L2.28 24c3.963-3.76 7.319-5.097 9.774-6.19 3.132-1.385 5.018-2.274 6.249-5.468.877-2.242 1.562-5.113 2.432-6.222l1.855-2.423s-3.84 1.039-4.726 1.337z"/></symbol><symbol id="si-favro" viewBox="0 0 24 24"><path fill="#512DA8" d="M11.586 1.655a6.623 6.623 0 0 0-6.62 6.62v.773a7.503 7.503 0 0 1 3.31 3.269V8.276a3.302 3.302 0 0 1 3.31-3.31A1.66 1.66 0 0 0 13.24 3.31a1.66 1.66 0 0 0-1.656-1.655zm-9.93 7.448A1.66 1.66 0 0 0 0 10.758c0 .91.745 1.655 1.655 1.655a3.302 3.302 0 0 1 3.31 3.31v4.966c0 .91.745 1.655 1.655 1.655a1.66 1.66 0 0 0 1.655-1.655v-4.966a6.623 6.623 0 0 0-6.62-6.621zm15.724 0a6.623 6.623 0 0 0-6.622 6.621 6.623 6.623 0 0 0 6.622 6.621 6.583 6.583 0 0 0 3.462-.979c.262.58.84.98 1.503.98A1.66 1.66 0 0 0 24 20.69v-9.93a1.66 1.66 0 0 0-1.655-1.655c-.676 0-1.241.4-1.503.979a6.574 6.574 0 0 0-3.462-.98zm0 3.311a3.303 3.303 0 0 1 3.31 3.31 3.303 3.303 0 0 1-3.31 3.31 3.302 3.302 0 0 1-3.31-3.31 3.303 3.303 0 0 1 3.31-3.31z"/></symbol><symbol id="si-fawry" viewBox="0 0 24 24"><path fill="#FFD300" d="M1.834 18.305c-1.06-1.594-1.63-3.36-1.79-5.261C-.238 9.474.84 6.34 3.318 3.74 5.311 1.65 7.788.435 10.652.11c2.882-.325 5.538.325 7.966 1.907.227 1.012.037 1.975-.331 2.925-.534 1.398-1.313 2.65-2.19 3.851-.177.251-.447.49-.27.84.197.362.54.233.853.209.65-.062 1.294-.099 1.944-.166.264-.025.368.043.331.337-.073.472-.11.957-.16 1.435-.024.24 0 .46.264.552.27.098.466-.018.626-.24 1.232-1.771 2.336-3.61 2.637-5.806 2.692 4.206 2.09 10.18-1.41 14.055A12.05 12.05 0 0 1 6.09 22.432c-.147-.08-.282-.178-.417-.27.89-.172 1.778-.374 2.618-.73 2.282-.944 4.268-2.342 6.114-3.937.282-.245.454-.294.7.013.208.263.471.484.692.73.172.19.368.318.638.226.264-.086.288-.325.313-.545.251-2.042.49-4.09.748-6.133.055-.447-.141-.68-.601-.637-2.091.171-4.188.35-6.28.54-.508.048-.65.422-.312.815.276.331.576.638.895.92.294.251.313.417 0 .674-1.288 1.073-2.618 2.085-4.09 2.888-1.613.877-3.25 1.668-5.176 1.38h.007c0-.061-.037-.086-.105-.073"/></symbol><symbol id="si-fcc" viewBox="0 0 24 24"><path fill="#1C3664" d="M21.412 17.587A7.89 7.89 0 0 1 10.268 6.414a7.867 7.867 0 0 1 11.144 0 8 8 0 0 1 .839.996L24 6.116a10.03 10.03 0 0 0-8.16-4.196c-5.19 0-9.458 3.942-9.996 9.002h-3.82V4.328H6.78L8.508 1.92H0v20.16l2.024-1.488V13.08h3.82c.538 5.059 4.806 9 9.996 9A10.03 10.03 0 0 0 24 17.884l-1.749-1.296a8 8 0 0 1-.84.999m-5.57-9.205a3.61 3.61 0 0 1 2.97 1.572l1.752-1.296a5.77 5.77 0 0 0-4.723-2.456c-3.194 0-5.782 2.595-5.782 5.798s2.588 5.796 5.782 5.797a5.77 5.77 0 0 0 4.723-2.455l-1.751-1.296a3.61 3.61 0 1 1-2.972-5.664"/></symbol></defs></svg>
