<svg xmlns="http://www.w3.org/2000/svg"><defs><symbol id="si-mistralai" viewBox="0 0 24 24"><path fill="#FA520F" d="M17.143 3.429v3.428h-3.429v3.429h-3.428V6.857H6.857V3.43H3.43v13.714H0v3.428h10.286v-3.428H6.857v-3.429h3.429v3.429h3.429v-3.429h3.428v3.429h-3.428v3.428H24v-3.428h-3.43V3.429z"/></symbol><symbol id="si-mitsubishi" viewBox="0 0 24 24"><path fill="#E60012" d="M8 22.38H0l4-6.92h8zm8 0h8l-4-6.92h-8zm0-13.84l-4-6.92-4 6.92 4 6.92Z"/></symbol><symbol id="si-mix" viewBox="0 0 24 24"><path fill="#FF8126" d="M.001 0v21.61c0 1.32 1.074 2.39 2.4 2.39a2.396 2.396 0 0 0 2.402-2.39V8.54c0 .014-.005.026-.006.04V6.364a2.395 2.395 0 0 1 2.399-2.393 2.396 2.396 0 0 1 2.398 2.393v9.356a2.394 2.394 0 0 0 2.398 2.393 2.394 2.394 0 0 0 2.398-2.39v-3.692a2.398 2.398 0 0 1 2.385-2.078 2.4 2.4 0 0 1 2.41 2.389v1.214a2.397 2.397 0 0 0 2.408 2.389 2.399 2.399 0 0 0 2.406-2.39V.006a4.61 4.61 0 0 0-.145-.004c-1.31 0-2.558.264-3.693.74A9.449 9.449 0 0 1 23.841 0z"/></symbol><symbol id="si-mixcloud" viewBox="0 0 24 24"><path fill="#5000FF" d="M2.462 8.596l1.372 6.49h.319l1.372-6.49h2.462v6.808H6.742v-5.68l.232-.81h-.402l-1.43 6.49H2.854l-1.44-6.49h-.391l.222.81v5.68H0V8.596zM24 8.63v1.429L21.257 12 24 13.941v1.43l-3.235-2.329h-.348l-3.226 2.329v-1.43l2.734-1.94-2.733-1.942V8.63l3.225 2.338h.348zm-7.869 2.75v1.24H9.304v-1.24z"/></symbol><symbol id="si-mixpanel" viewBox="0 0 24 24"><path fill="#7856FF" d="M6.967 9.996h3.053c-.763-.477-1.048-1.145-1.431-2.384L7.443 3.366C6.919 1.458 6.49.551 4.39.551H.004v1.145h.621c1.286 0 1.431.477 1.814 1.908L3.44 7.326c.524 1.814 1.337 2.67 3.53 2.67h-.003Zm7.06 0h3.053c2.194 0 2.956-.86 3.484-2.67l1.001-3.722c.382-1.431.57-1.908 1.814-1.908H24V.551h-4.34c-2.146 0-2.576.86-3.053 2.815l-1.145 4.246c-.384 1.286-.673 1.907-1.435 2.384Zm-4.007 4.008h4.007V9.996H10.02v4.008ZM0 23.449h4.39c2.1 0 2.529-.907 3.053-2.815l1.146-4.246c.383-1.239.668-1.907 1.431-2.384H6.967c-2.194 0-3.007.86-3.531 2.67l-1.001 3.722c-.383 1.431-.524 1.907-1.814 1.907H0v1.146Zm19.65 0h4.343v-1.146h-.622c-1.239 0-1.431-.476-1.814-1.907l-1.001-3.722c-.524-1.814-1.286-2.67-3.483-2.67h-3.046c.762.477 1.041 1.098 1.424 2.384l1.145 4.246c.477 1.955.907 2.815 3.054 2.815Z"/></symbol><symbol id="si-mlb" viewBox="0 0 24 24"><path fill="#041E42" d="M22.003 5.53a1.988 1.988 0 011.99 1.827l.007.177v8.927a2.007 2.007 0 01-1.848 2.002l-.15.006H2.002a2.003 2.003 0 01-1.42-.586 1.979 1.979 0 01-.575-1.245L0 16.46V7.535a1.994 1.994 0 01.583-1.427 2.016 2.016 0 011.242-.57l.176-.007h20.002zm-7.5.703H2.001a1.312 1.312 0 00-.926.375 1.299 1.299 0 00-.374.926v8.927a1.282 1.282 0 00.374.922c.246.245.579.383.926.384h8.116a92.275 92.275 0 00-.495-.843H8.66c0-2.402.812-3.73 1.784-3.995.133-.024.07-.68-.1-.88h-.561c-.09 0-.038-.169-.038-.169l.456-.972-.062-.266H8.455l1.383-.967c.064-2.55 2.68-2.748 4.255-1.686.937.62 1.008 1.849.937 2.698-.012.054-.244.018-.244.018s-.16.937.257.937h1.838c.749-.03 1.472.478 1.472.478l.176-.643-4.026-5.244zm7.5 0h-5.59l3.207 5.36.296.038.187.245v.229l.202.041.188.255v.221l.21.037.211.23v.51c.252.228.536.418.843.563.283.108.315.562.486.803.213.352.505.493.444.69-.143.526-.682 1.414-1.184 1.456h-1.986v.85h2.488a1.3 1.3 0 001.294-1.311V7.534h-.002a1.285 1.285 0 00-1.294-1.3zM4.022 14.404a.888.888 0 01-.638 1.513.879.879 0 01-.88-.888.888.888 0 011.518-.625z"/></symbol><symbol id="si-mocha" viewBox="0 0 24 24"><path fill="#8D6748" d="M13.325 0c-.907 1.116-2.442 2.302-.768 4.814.558.628.838 1.953.768 2.372 0 0 2.512-1.464.977-4.116-.907-1.395-1.326-2.582-.977-3.07zm-2.79 2.582c-.628.767-1.605 1.535-.489 3.279.35.349.489 1.256.489 1.535 0 0 1.673-.978.627-2.792-.628-.907-.906-1.743-.627-2.022zm-5.094 6a.699.699 0 0 0-.697.698c0 2.372.349 10.535 3.837 14.512.14.139.28.208.489.208h5.86c.21 0 .35-.069.489-.208 3.488-3.908 3.837-12.07 3.837-14.512a.7.7 0 0 0-.698-.699H12zm2.023 2.163h9.21c.349 0 .697.278.697.697 0 1.953-.348 7.465-2.72 10.326-.21.14-.35.208-.559.208H9.976a.633.633 0 0 1-.488-.208c-2.372-2.79-2.652-8.373-2.722-10.326 0-.35.28-.697.698-.697zm8.792 4.744s-.071.627-1.745 1.255c-2.303.837-6.348.28-6.348.28.349 1.465.906 2.86 1.743 3.907.07.14.28.209.419.209h3.489c.14 0 .279-.07.418-.209 1.186-1.395 1.745-3.558 2.024-5.442z"/></symbol><symbol id="si-modal" viewBox="0 0 24 24"><path fill="#7FEE64" d="M4.89 5.57 0 14.002l2.521 4.4h5.05l4.396-7.718 4.512 7.709 4.996.037L24 14.057l-4.857-8.452-5.073-.015-2.076 3.598L9.94 5.57Zm.837.729h3.787l1.845 3.252H7.572Zm9.189.021 3.803.012 4.228 7.355-3.736-.027zm-9.82.346L6.94 9.914l-4.209 7.389-1.892-3.3Zm9.187.014 4.297 7.343-1.892 3.282-4.3-7.344zm-6.713 3.6h3.79l-4.212 7.394H3.361Zm11.64 4.109 3.74.027-1.893 3.281-3.74-.027z"/></symbol><symbol id="si-modelscope" viewBox="0 0 24 24"><path fill="#624AFF" d="M2.667 5.333V8H0v5.333h2.667v-2.666H.5V8.5h2.166v2.166h2.666V8H8V5.333Zm0 8v5.334H8V16H5.333v-2.667Zm13.333-8V8h2.667v2.667h2.666V8.5H23.5v2.166h-2.166v2.666H24V8h-2.667V5.333Zm5.333 8h-2.666V16H16v2.667h5.333zM8 10.667v2.666h2.667v-2.666zm2.667 2.666V16h2.666v-2.667zm2.666 0H16v-2.666h-2.667z"/></symbol><symbol id="si-modin" viewBox="0 0 24 24"><path fill="#001729" d="M6.4403 7.3914H8.506a.3583.3583 0 0 0 .3536-.3536.3583.3583 0 0 0-.3536-.3583H6.4403a.3583.3583 0 1 0 0 .7119zm14.0794 7.0816a1.7402 1.7402 0 0 0-1.7727 1.7774 1.7727 1.7727 0 0 0 1.7727 1.796h1.703A1.7727 1.7727 0 0 0 24 16.2735a1.7448 1.7448 0 0 0-1.7773-1.7774zm1.703-4.9506A1.7448 1.7448 0 0 0 24 7.745a1.7727 1.7727 0 0 0-1.7773-1.7727h-1.703A1.7727 1.7727 0 0 0 18.747 7.745a1.7402 1.7402 0 0 0 1.7727 1.7774zm-1.703.6979a1.7774 1.7774 0 0 0-1.7727 1.7774 1.7402 1.7402 0 0 0 1.7727 1.7774h1.703A1.7448 1.7448 0 0 0 24 11.9977a1.7774 1.7774 0 0 0-1.7773-1.7728zm-4.8854 4.2527a1.7402 1.7402 0 0 0-1.7728 1.7774 1.768 1.768 0 0 0 1.7728 1.796h.6327a1.7727 1.7727 0 0 0 1.7774-1.7728 1.7448 1.7448 0 0 0-1.7774-1.8006zm.6327-4.9506a1.7448 1.7448 0 0 0 1.7774-1.7774 1.7727 1.7727 0 0 0-1.7774-1.7727h-.6514A1.768 1.768 0 0 0 13.843 7.745a1.7402 1.7402 0 0 0 1.7727 1.7774zm-.6514.6979a1.7774 1.7774 0 0 0-1.754 1.7774 1.7402 1.7402 0 0 0 1.7727 1.7774h.6327a1.7448 1.7448 0 0 0 1.796-1.7774 1.7774 1.7774 0 0 0-1.796-1.7774zM3.9138 8.8244h1.033a.3536.3536 0 0 0 .3582-.3536.363.363 0 0 0-.3583-.3582H3.9324a.3536.3536 0 0 0 0 .7072zm-3.15-2.131h.2699a.3536.3536 0 0 0 .3583-.3536.363.363 0 0 0-.3583-.3582H.7638a.3536.3536 0 0 0 0 .7072zm5.6765 9.9106H8.506a.3536.3536 0 0 1 .3536.3536.3583.3583 0 0 1-.3536.3583H6.4403a.3583.3583 0 1 1 0-.712zm-2.5079-1.4191h1.033a.3536.3536 0 1 1 0 .7072h-1.033a.3536.3536 0 0 1 0-.7072zm-3.15 2.131h.2699a.3536.3536 0 0 1 .3583.3536.363.363 0 0 1-.3583.3582H.7824a.3536.3536 0 0 1 0-.7072zm1.5867.7304h9.0264a1.7727 1.7727 0 0 0 1.7728-1.7727 1.7402 1.7402 0 0 0-1.7728-1.7774H1.6944a.3583.3583 0 0 0 0 .712h.9306a.3536.3536 0 0 1 0 .7072H.3172a.3583.3583 0 0 0 0 .7118H5.17a.3583.3583 0 0 1 0 .712H2.3784a.3536.3536 0 0 0-.3397.3535.3583.3583 0 0 0 .3536.3583Zm4.0712-6.3883H8.506a.3536.3536 0 0 0 .3536-.3536.3583.3583 0 0 0-.3536-.3583H6.4403a.363.363 0 0 0-.3583.3583.3583.3583 0 0 0 .3583.3536zm-2.5079 1.4238h1.033a.3583.3583 0 1 0 0-.7119h-1.033a.3536.3536 0 0 0-.3536.3536.3583.3583 0 0 0 .3536.3583zm-3.15-2.131h.2699a.3536.3536 0 1 0 0-.7072H.7824a.3583.3583 0 0 0-.3536.3536.3583.3583 0 0 0 .3536.3582zm1.5867-.7119h9.0264a1.7774 1.7774 0 0 1 1.7728 1.7588 1.7402 1.7402 0 0 1-1.7728 1.7774H1.6944a.3536.3536 0 0 1 0-.7073h.9306a.3583.3583 0 0 0 .3536-.3582.3583.3583 0 0 0-.3536-.3537H.3172a.3583.3583 0 0 1 0-.7118H5.17a.3583.3583 0 0 0 0-.712H2.3784a.3583.3583 0 0 1 0-.7118zm0-4.2527h9.0264a1.7727 1.7727 0 0 1 1.7728 1.7727 1.7402 1.7402 0 0 1-1.7728 1.7774H1.6944a.3583.3583 0 0 1-.3536-.3536.3536.3536 0 0 1 .3396-.3583h.9306a.3536.3536 0 0 0 0-.7072H.3172a.3583.3583 0 0 1 0-.7119H5.17a.3583.3583 0 0 0 0-.7118H2.3784a.3536.3536 0 0 1-.3397-.3537.3583.3583 0 0 1 .3304-.3908Z"/></symbol><symbol id="si-modx" viewBox="0 0 24 24"><path fill="#102C53" d="M19.145 9.49l4.47-7.19H12.118l-1.24 2.023zM2.92 0v11.497l2.48 1.55 13.435-3.1zm18.16 24V12.503l-1.984-1.263-5.168 8.267zM5.165 14.053l-4.78 7.648h11.497L18.6 10.953Z"/></symbol><symbol id="si-mojeek" viewBox="0 0 24 24"><path fill="#7AB93C" d="M22.141 16.488c-.53 0-.824-.353-.824-1.147 0-.795.49-4.182.68-5.736.35-2.885-1.313-4.976-3.725-4.976-1.912 0-3.37.756-4.514 1.973-.776-1.173-1.648-1.973-3.343-1.973-1.652 0-2.676.605-3.684 1.574C6.189 5.138 5.222 4.63 3.777 4.63 2.578 4.629.967 5.23 0 5.825l1.077 2.44c.734-.409 1.336-.718 1.853-.718.566 0 .902.408.808 1.262-.09.824-1.09 10.268-1.09 10.268H5.9s.638-6.061.863-7.885c.264-2.137 1.299-3.49 2.774-3.49 1.294 0 1.735 1.018 1.642 2.21-.08 1.037-1.025 9.165-1.025 9.165h3.27s.72-6.738.946-8.408c.293-2.17 1.692-2.967 2.57-2.967 1.443 0 1.882 1.18 1.747 2.299-.11.91-.5 4.118-.62 5.782-.147 2.058.824 3.589 2.663 3.589 1.206 0 2.412-.344 3.27-.835l-.703-2.413c-.41.177-.797.364-1.155.364"/></symbol><symbol id="si-moleculer" viewBox="0 0 24 24"><path fill="#3CAFCE" d="M15.442.718a2.58 2.58 0 0 0-2.579 2.579 2.58 2.58 0 0 0 1.368 2.275L12.809 8.27a3.505 3.505 0 0 0-1.077-.172 3.505 3.505 0 0 0-3.505 3.505 3.505 3.505 0 0 0 .085.745l-2.83 1.036a2.97 2.97 0 0 0-2.513-1.39A2.97 2.97 0 0 0 0 14.962a2.97 2.97 0 0 0 2.97 2.97 2.97 2.97 0 0 0 2.969-2.97 2.97 2.97 0 0 0-.072-.634l2.716-1.193a3.505 3.505 0 0 0 3.15 1.972 3.505 3.505 0 0 0 2.129-.724l2.276 2.167a4.305 4.305 0 0 0-.749 2.426 4.305 4.305 0 0 0 4.306 4.305A4.305 4.305 0 0 0 24 18.977a4.305 4.305 0 0 0-4.305-4.305 4.305 4.305 0 0 0-2.718.969l-2.424-1.964a3.505 3.505 0 0 0 .684-2.074 3.505 3.505 0 0 0-1.521-2.89l1.204-2.891a2.58 2.58 0 0 0 .522.054 2.58 2.58 0 0 0 2.58-2.58 2.58 2.58 0 0 0-2.58-2.578Z"/></symbol><symbol id="si-momenteo" viewBox="0 0 24 24"><path fill="#5A6AB1" d="M17.925 6.615c-.6.01-1.154.323-1.472.831-.348.41-3.163 3.98-4.142 5.22l.765.968c1.036-1.306 4.096-5.169 4.243-5.348a.765.765 0 011.265 0c.344.42 1.624 2.047 2.703 3.408.482.591.926 1.213 1.328 1.862.626 1.043-.395 2.02-.792 2.457l-3.254-4.098a.811.811 0 00-1.25-.016L14.2 15.836 7.548 7.447a1.774 1.774 0 00-3.02.024c-.059.067-1.706 2.156-2.989 3.776-.528.701-.956 1.33-1.178 1.7-1.048 1.75.441 3.462 1.239 4.165.174.16.399.257.636.272a.727.727 0 00.677-.368l3.145-3.97s2.882 3.644 3.227 4.07a.64.64 0 001.033-.005c.198-.253.76-.962 1.373-1.733l-.765-.964c-.548.69-1.021 1.286-1.127 1.426l-3.118-3.938a.811.811 0 00-1.25.016l-3.254 4.099c-.397-.438-1.416-1.415-.792-2.458a17.57 17.57 0 011.329-1.861c1.078-1.362 2.358-2.989 2.703-3.408a.765.765 0 011.264 0l7 8.823a.64.64 0 001.034.005c.345-.426 3.227-4.07 3.227-4.07l3.146 3.968a.727.727 0 00.675.367c.238-.015.463-.11.638-.272.797-.702 2.286-2.414 1.238-4.165-.222-.37-.65-1-1.179-1.7-1.282-1.621-2.929-3.71-2.989-3.777a1.774 1.774 0 00-1.546-.854z"/></symbol><symbol id="si-monero" viewBox="0 0 24 24"><path fill="#FF6600" d="M12 0C5.365 0 0 5.373 0 12.015c0 1.335.228 2.607.618 3.81h3.577V5.729L12 13.545l7.805-7.815v10.095h3.577c.389-1.203.618-2.475.618-3.81C24 5.375 18.635 0 12 0zm-1.788 15.307l-3.417-3.421v6.351H1.758C3.87 21.689 7.678 24 12 24s8.162-2.311 10.245-5.764h-5.04v-6.351l-3.386 3.421-1.788 1.79-1.814-1.79h-.005z"/></symbol><symbol id="si-moneygram" viewBox="0 0 24 24"><path fill="#DA291C" d="M24 12c0 6.6274-5.3726 12-12 12S0 18.6274 0 12c0-1.8257.4071-3.5554 1.1374-5.1051C.6514 8.1257.433 9.3446.433 10.4863c0 5.4334 4.3868 6.2203 6.2537 6.2023 2.8371-.0257 6.1543-1.416 8.9485-3.9909l-.4714 2.6494c-.1054.606.2906 1.1392.8957 1.1426h.2503c.6274 0 1.0732-.5108 1.1863-1.1426l1.0063-5.6622c.12-.6283-.2932-1.14-.9214-1.14h-5.6726c-.6309 0-1.2077.3342-1.32.9677l-.0446.2554c-.09.6026.33 1.0569.9317 1.0569h2.9589a9.48 9.48 0 0 0-.1414.1388c-2.04 1.9312-4.5558 2.988-6.6403 2.988-2.0803 0-4.41-1.3123-4.41-4.2686C3.2426 3.5546 8.9906 0 12 0c6.6137 0 12 5.3726 12 12"/></symbol><symbol id="si-mongodb" viewBox="0 0 24 24"><path fill="#47A248" d="M17.193 9.555c-1.264-5.58-4.252-7.414-4.573-8.115-.28-.394-.53-.954-.735-1.44-.036.495-.055.685-.523 1.184-.723.566-4.438 3.682-4.74 10.02-.282 5.912 4.27 9.435 4.888 9.884l.07.05A73.49 73.49 0 0111.91 24h.481c.114-1.032.284-2.056.51-3.07.417-.296.604-.463.85-.693a11.342 11.342 0 003.639-8.464c.01-.814-.103-1.662-.197-2.218zm-5.336 8.195s0-8.291.275-8.29c.213 0 .49 10.695.49 10.695-.381-.045-.765-1.76-.765-2.405z"/></symbol><symbol id="si-monkeytie" viewBox="0 0 24 24"><path fill="#1A52C2" d="M12.002 0C9.79 0 7.575.71 5.722 2.127a.472.472 0 00-.093.658.46.46 0 00.654.093 9.404 9.404 0 0111.44 0c.202.16.5.116.653-.093a.474.474 0 00-.093-.658A10.323 10.323 0 0012.003 0zm.03 3.11a11.947 11.947 0 00-5.966 1.608 13.784 13.784 0 00-4.83 4.747c-.303.536.444 1.021.8.497a12.816 12.816 0 014.494-4.43 11.015 11.015 0 015.5-1.481c1.905.003 3.78.507 5.432 1.462 1.71.977 3.26 2.457 4.503 4.45a.46.46 0 00.414.23.46.46 0 00.4-.252.461.461 0 00-.022-.474v-.002c-1.31-2.12-2.982-3.71-4.834-4.77A11.795 11.795 0 0012.03 3.11zM12 6.164a9.27 9.27 0 00-3.71.73c-1.643.706-2.97 1.88-4.064 3.343-1.096 1.46-1.97 3.213-2.73 5.102a.474.474 0 00.262.612c.375.134.552-.144.6-.267.985-2.46 2.16-4.624 3.697-6.14a8.28 8.28 0 012.6-1.784 8.415 8.415 0 013.34-.648 9.51 9.51 0 012.98.447 7.345 7.345 0 013.39 2.25c.898 1.057 1.557 2.423 1.917 4.09.172.83.255 1.675.255 2.524a9.204 9.204 0 01-.17 1.837.47.47 0 00.355.556.472.472 0 00.558-.36c.134-.67.2-1.351.19-2.033 0-.916-.09-1.827-.272-2.722a11.155 11.155 0 00-1.207-3.2 8.394 8.394 0 00-3.288-3.232c-1.358-.731-2.95-1.104-4.7-1.104zm.102 3.076a7.51 7.51 0 00-2.214.3 5.317 5.317 0 00-1.45.7 6.552 6.552 0 00-1.787 1.906c-.702 1.093-1.19 2.33-1.698 3.479a17.31 17.31 0 01-.793 1.626c-.27.478-.594.92-.964 1.314-.418.459.216 1.094.665.662v.002c.763-.78 1.28-1.754 1.75-2.776.348-.76.664-1.541 1.007-2.277.247-.543.53-1.065.846-1.567A5.4 5.4 0 019.2 10.865c.718-.425 1.603-.685 2.802-.685a5.82 5.82 0 012.565.538c.518.25.986.59 1.385 1.003.6.633 1.05 1.395 1.322 2.226a8.63 8.63 0 01.438 2.776c-.002.98-.145 1.955-.425 2.895a8.869 8.869 0 01-1.21 2.563.472.472 0 00.122.65.465.465 0 00.646-.11 9.887 9.887 0 001.34-2.836c.3-1.024.458-2.09.46-3.157a9.76 9.76 0 00-.385-2.753c-.39-1.317-1.084-2.5-2.128-3.363a5.768 5.768 0 00-1.824-1.008 7.525 7.525 0 00-2.204-.364zm-.094 3.083c-.726.01-1.425.27-1.986.73a3.712 3.712 0 00-1.23 1.779c-.116.358-.185.749-.283 1.189a8.902 8.902 0 01-.782 2.249c-.438.838-1.11 1.757-2.22 2.72a.474.474 0 00-.052.66c.168.198.465.22.66.05.7-.6 1.32-1.285 1.846-2.038a8.727 8.727 0 001.266-2.705c.11-.393.187-.754.254-1.065a8.48 8.48 0 01.19-.777c.168-.525.49-.988.922-1.33a2.264 2.264 0 011.405-.522c.31.005.617.077.898.213.458.23.84.57 1.12.996.282.414.44.9.45 1.402.02 1.09-.11 2.18-.397 3.234a9.355 9.355 0 01-2.403 4.09c-.18.186-.18.48.002.665.272.242.566.113.662-.005a10.309 10.309 0 002.642-4.495 12.48 12.48 0 00.438-3.49 3.37 3.37 0 00-.284-1.327 3.843 3.843 0 00-1.245-1.567 3.125 3.125 0 00-1.873-.656zm-.015 3.08a.468.468 0 00-.466.47h.002a7.5 7.5 0 01-.244 1.972 7.319 7.319 0 01-1.163 2.395c-.61.819-1.27 1.59-1.994 2.308a.474.474 0 00.015.667.468.468 0 00.662-.016c1.05-1.096 1.958-2.1 2.622-3.252a7.46 7.46 0 00.76-1.868c.186-.72.282-1.461.274-2.205a.47.47 0 00-.468-.47z"/></symbol><symbol id="si-monogame" viewBox="0 0 24 24"><path fill="#E73C00" d="M24 10.356V7.083a7.083 7.083 0 0 0-12-5.098A7.083 7.083 0 0 0 0 7.083v9.834A7.083 7.083 0 0 0 7.083 24h9.834a7.083 7.083 0 0 0 7.07-7.51H24v-4.332H9.834v4.332h9.834v.427a2.751 2.751 0 0 1-2.751 2.751H7.083a2.751 2.751 0 0 1-2.751-2.751V7.083a2.751 2.751 0 1 1 5.502 0v3.273h4.332V7.083a2.751 2.751 0 1 1 5.502 0v3.273z"/></symbol><symbol id="si-monoprix" viewBox="0 0 24 24"><path fill="#FB1911" d="M21.072 8.042C21.072 3.612 16.981 0 12 0 6.991 0 2.928 3.612 2.928 8.042S6.99 16.085 12 16.085c.282 0 .564-.029.847-.043.62.339.747.706.761.988.142 1.608-2.44 5.08-4.303 6.49l.254.48c.113-.028 10.723-3.47 11.429-15.026.056-.283.07-.565.084-.875v-.043z"/></symbol><symbol id="si-monster" viewBox="0 0 24 24"><path fill="#6D4C9F" d="M0 0V24H5.42V12.39L12 18.19L18.58 12.39V24H24V0L12 11.23L0 0Z"/></symbol><symbol id="si-moo" viewBox="0 0 24 24"><path fill="#00945E" d="M11.964 24c-2.525 0-4.801-1.107-6.34-3.138-1.109-1.417-1.661-3.078-1.661-4.86 0-.555.06-1.109.185-1.602.299-1.785 1.59-4.678 3.93-8.678C9.805 2.767 11.215.554 11.289.554c.123-.246.308-.554.675-.554.372 0 .555.308.741.555 0 0 1.477 2.215 3.199 5.168 2.342 4 3.631 6.893 3.939 8.678.131.492.193 1.045.193 1.6 0 1.785-.555 3.445-1.65 4.861C16.766 22.834 14.424 24 11.964 24zm0-2.092c1.905 0 3.629-.861 4.801-2.341.799-1.044 1.229-2.337 1.229-3.69 0-.432-.059-.801-.123-1.229-.246-1.354-1.293-3.692-3.074-6.833-1.357-2.399-2.525-4.121-2.525-4.121l-.31-.433-.254.37s-1.171 1.785-2.521 4.125c-1.843 3.149-2.893 5.474-3.072 6.839-.061.431-.123.8-.123 1.229 0 1.355.429 2.587 1.229 3.693 1.11 1.538 2.831 2.399 4.74 2.399l.003-.008z"/></symbol><symbol id="si-moodle" viewBox="0 0 24 24"><path fill="#F98012" d="M12 0C5.3726 0 0 5.3726 0 12s5.3726 12 12 12 12-5.3726 12-12S18.6274 0 12 0Zm1.1348 5.7402.0351.123-2.7363 1.9903c.3694.2606.7968.609 1.0078.8438l.0762.1035c-1.2878 2.2571-3.737 3.0557-6.3164 2.1816l.0195-.1601h-.002c-.0784-.5679-.0962-1.0524-.0585-1.463-.7507-.003-1.5298-.0402-2.2832-.0663l-.5157.0175c-.0994.8449-.0351 2.135-.0254 2.3223.3492 1.2819.2977 2.2907.295 3.5293-.4134-1.0028-.8995-2.097-.416-3.4668l-.0098-.3183c-.0007-.0143-.0683-1.1532.037-2.0625l-.4081.0136-.0371-.1191C5.7922 6.8402 8.5032 6.218 13.1348 5.7402Zm1.623 2.5137c1.2202 0 2.1885.2691 2.9043.8066.8138.601 1.2207 1.4866 1.2207 2.6582v5.6856h-2.7344v-5.3691c0-1.1225-.4634-1.6836-1.3906-1.6836-.9278 0-1.3906.561-1.3906 1.6836v5.3691h-2.7344v-5.3691c0-.5183-.0986-.9144-.293-1.1934.6172-.435 1.1534-1.0124 1.5723-1.7246.0297.029.0597.0574.0879.0879.5044-.6349 1.4233-.9512 2.7578-.9512zm-9.6094 3.2344c.932.3 1.8614.393 2.7364.287a3.5455 3.5455 0 0 0-.0098.2599v5.3691H5.1426v-5.6855c0-.0787.0022-.1544.0058-.2305z"/></symbol><symbol id="si-moonrepo" viewBox="0 0 24 24"><path fill="#6F53F3" d="M 19.514 7.342 C 19.711 7.862 19.814 8.413 19.816 8.969 C 19.816 12.494 15.998 14.697 12.946 12.934 C 11.529 12.116 10.657 10.605 10.657 8.969 C 10.657 5.646 14.085 3.431 17.115 4.793 C 15.26 3.373 12.99 2.607 10.655 2.612 C 4.772 2.614 0.005 7.381 0 13.265 C 0.002 19.148 4.772 23.918 10.655 23.92 C 16.538 23.916 21.306 19.147 21.31 13.265 C 21.312 11.155 20.687 9.095 19.514 7.342 Z M 14.841 4.666 C 14.841 8.191 18.657 10.395 21.709 8.632 C 23.127 7.814 24 6.302 24 4.666 C 24 1.14 20.184 -1.061 17.13 0.699 C 15.714 1.519 14.841 3.03 14.841 4.666"/></symbol><symbol id="si-moonshotai" viewBox="0 0 24 24"><path fill="#000000" d="m1.053 16.91 9.538 2.55a21 20.981 0 0 0 .06 2.031l5.956 1.592a12 11.99 0 0 1-15.554-6.172m-1.02-5.79 11.352 3.035a21 20.981 0 0 0-.469 2.01l10.817 2.89a12 11.99 0 0 1-1.845 2.004L.658 15.918a12 11.99 0 0 1-.625-4.796m1.593-5.146L13.573 9.17a21 20.981 0 0 0-1.01 1.874l11.297 3.02a21 20.981 0 0 1-.67 2.362l-11.55-3.087L.125 10.26a12 11.99 0 0 1 1.499-4.285ZM6.067 1.58l11.285 3.016a21 20.981 0 0 0-1.688 1.719l7.824 2.091a21 20.981 0 0 1 .513 2.664L2.107 5.218a12 11.99 0 0 1 3.96-3.638M21.68 4.866 7.222 1.003A12 11.99 0 0 1 21.68 4.866"/></symbol><symbol id="si-moqups" viewBox="0 0 24 24"><path fill="#006BE5" d="M8.219 0c-2.367 0-3.55 0-4.824.41A5.053 5.053 0 0 0 .402 3.457c-.4 1.297-.4 2.501-.4 4.91v7.266c0 2.409 0 3.613.4 4.91a5.053 5.053 0 0 0 2.993 3.047c1.273.41 2.457.41 4.824.41h7.562c2.367 0 3.55 0 4.824-.41a5.053 5.053 0 0 0 2.993-3.047c.4-1.297.4-2.501.4-4.91V8.367c.003-2.409.002-3.613-.398-4.91A5.053 5.053 0 0 0 20.607.41C19.334 0 18.151 0 15.785 0ZM6.502 6.918a2.618 2.618 0 0 1 1.76.533c.266.226.456.528.545.865a4.309 4.309 0 0 1 3.056-1.398c.433-.017.86.102 1.221.342.342.266.547.67.559 1.103a5.014 5.014 0 0 1 1.564-1.123 3.984 3.984 0 0 1 1.563-.322c.502-.014.994.152 1.386.467.418.402.63.973.573 1.55-.001.201-.014.401-.04.6-.037.302-.044.359-.216 1.154l-.614 2.903a4.317 4.317 0 0 0-.115.842c-.02.16.032.321.143.439.145.09.316.13.486.113a1.76 1.76 0 0 0 1.037-.4c.229-.171.437-.368.62-.588a.08.08 0 0 1 .134.066h.004l-.395 1.895a.552.552 0 0 1-.228.348c-.676.453-1.477.772-2.395.775a2.12 2.12 0 0 1-1.386-.467 1.893 1.893 0 0 1-.573-1.55 6.34 6.34 0 0 1 .155-1.276c.244-1.126.48-2.253.716-3.38.066-.277.103-.559.114-.843a.542.542 0 0 0-.143-.439.785.785 0 0 0-.484-.115c-.38.018-.744.159-1.037.4a2.946 2.946 0 0 0-1.125 1.756l-1.157 5.463a.302.302 0 0 1-.294.24H9.98a.146.146 0 0 1-.142-.178l1.314-6.191a4.16 4.16 0 0 0 .133-.957.517.517 0 0 0-.142-.42.75.75 0 0 0-.465-.113c-.372.015-.73.149-1.02.383l-.01.005a3.063 3.063 0 0 0-1.187 1.838l-1.15 5.44a.244.244 0 0 1-.239.193h-2.08a.159.159 0 0 1-.156-.191l1.37-6.414c.056-.315.065-.586.067-.702a.764.764 0 0 0-.191-.533.56.56 0 0 0-.418-.21 1.42 1.42 0 0 0-.61.142 3.529 3.529 0 0 0-.59.353 3.1 3.1 0 0 0-.624.602l.451-2.094a.45.45 0 0 1 .201-.289c.146-.092.296-.177.45-.256a3.37 3.37 0 0 1 1.56-.361Z"/></symbol><symbol id="si-morrisons" viewBox="0 0 24 24"><path fill="#007531" d="M11.514 11.486c0 .28-.224.523-.523.523a.511.511 0 0 1-.524-.523c0-.28.225-.523.524-.523.28 0 .504.243.523.523m2.318-2.112a.52.52 0 0 1-.505.523.519.519 0 0 1-.523-.504.52.52 0 0 1 .504-.524.507.507 0 0 1 .524.505m-1.234-1.57c0 .71-.617 1.103-.617 1.103s-.617-.393-.617-1.103.617-1.103.617-1.103.617.392.617 1.103M10 8.869s-.15.71.355 1.215c.505.505 1.215.337 1.215.337s.15-.71-.355-1.215C10.71 8.72 10 8.869 10 8.869m-.822 1.178c.616.355.654 1.065.654 1.065s-.654.337-1.271-.019c-.617-.355-.654-1.084-.654-1.084s.654-.317 1.27.038m-.317 2.336s.168.71.822.953c.673.243 1.253-.205 1.253-.205s-.15-.71-.823-.953c-.673-.243-1.252.205-1.252.205m4.448-.747c-.299.635-1.028.728-1.028.728s-.392-.616-.093-1.252c.299-.635 1.028-.729 1.028-.729s.392.598.093 1.253m2.785-1.608s-.654-.336-1.27.019c-.617.355-.655 1.084-.655 1.084s.654.336 1.271-.019c.617-.374.654-1.084.654-1.084m-1.757 3.308c-.672.243-1.252-.205-1.252-.205s.15-.71.823-.953c.672-.243 1.252.186 1.252.186s-.15.73-.823.972M5.607 17.28c-.86 0-1.514-.616-1.514-1.439 0-.822.655-1.44 1.514-1.44.86 0 1.514.618 1.514 1.44 0 .823-.654 1.44-1.514 1.44m0-2.15c-.392 0-.691.318-.691.729s.299.729.691.729c.393 0 .692-.318.692-.73 0-.41-.299-.728-.692-.728m6.804 2.056v-2.673a.04.04 0 0 0-.037-.037h-.73a.04.04 0 0 0-.037.037v2.673a.04.04 0 0 0 .038.037h.729a.04.04 0 0 0 .037-.037m4.449.093c-.86 0-1.514-.616-1.514-1.439 0-.822.654-1.44 1.514-1.44s1.514.618 1.514 1.44c0 .823-.654 1.44-1.514 1.44m0-2.15c-.393 0-.692.318-.692.729s.3.729.692.729c.392 0 .691-.318.691-.73 0-.41-.299-.728-.691-.728m4.486 2.056v-1.701c0-.71-.337-1.065-.99-1.065-.319 0-.636.13-.842.373v-.261a.04.04 0 0 0-.037-.038h-.71a.04.04 0 0 0-.038.038v2.654a.04.04 0 0 0 .037.037h.73a.04.04 0 0 0 .037-.037v-1.234c0-.112.018-.224.037-.317a.64.64 0 0 1 .617-.468c.243 0 .336.112.336.449v1.57a.04.04 0 0 0 .038.037h.729c.037 0 .056-.018.056-.037M3.7 17.224h-.748a.04.04 0 0 1-.037-.037c0-.841-.056-1.794-.094-2.094-.28.393-.523.823-.71 1.271 0 .02-.019.02-.037.02h-.411c-.02 0-.038 0-.038-.02a6.507 6.507 0 0 0-.71-1.27c-.019.299-.094 1.252-.094 2.093a.04.04 0 0 1-.037.037H.037A.04.04 0 0 1 0 17.187c0-1.14.075-2.636.28-3.402 0-.019.02-.019.038-.037h.58c.018 0 .018 0 .018.018.374.412.691.879.934 1.365a6.79 6.79 0 0 1 .935-1.365l.019-.018h.58a.04.04 0 0 1 .037.037c.186.766.28 2.262.28 3.402.037.019.019.037 0 .037m4.617-.037V16.12c0-.13.018-.261.056-.392a.662.662 0 0 1 .635-.486h.169l.018-.019v-.729a.04.04 0 0 0-.037-.037h-.094a.885.885 0 0 0-.747.411v-.336a.04.04 0 0 0-.038-.038h-.71a.04.04 0 0 0-.037.038v2.673a.04.04 0 0 0 .037.037h.73c0-.019.018-.037.018-.056m2 .037h-.73a.04.04 0 0 1-.037-.037v-2.673a.04.04 0 0 1 .038-.037h.71a.04.04 0 0 1 .037.037v.336a.984.984 0 0 1 .748-.41h.094a.04.04 0 0 1 .037.037v.71c0 .019 0 .019-.019.019 0 0-.018.018-.037 0h-.131a.66.66 0 0 0-.635.486c-.038.13-.057.261-.057.392v1.066c.02.056.02.074-.018.074.018 0 0 0 0 0m4.747-.86c0 .58-.43.898-1.158.898-.43 0-.767-.15-1.14-.412-.02 0-.02-.018-.02-.037v-.019l.318-.486c0-.018.02-.018.038-.018h.018c.318.205.543.299.823.299.187 0 .299-.056.299-.168v-.02c0-.13-.112-.186-.411-.28l-.112-.037c-.468-.13-.898-.336-.898-.86v-.018c0-.524.43-.86 1.103-.86.337 0 .654.093.954.261.018 0 .018.02.018.038v.019l-.28.542c0 .018-.019.018-.038.018h-.018c-.28-.13-.449-.187-.636-.187-.168 0-.28.075-.28.169v.018c0 .131.168.187.448.262l.094.037c.449.113.878.337.878.841m8.038-.86-.094-.037c-.28-.074-.448-.13-.448-.261v-.02c0-.111.112-.167.28-.167.187 0 .374.056.636.187h.018c.019 0 .019 0 .038-.02l.299-.485v-.019c0-.018 0-.018-.019-.037a1.925 1.925 0 0 0-.953-.262c-.673 0-1.103.318-1.103.86v.019c0 .523.43.729.897.86l.112.037c.28.093.412.15.412.28v.019c-.02.112-.113.168-.3.168-.28 0-.504-.093-.822-.299h-.019c-.018 0-.018 0-.037.019l-.318.486v.018c0 .02 0 .02.019.038.374.262.71.411 1.14.411.73 0 1.159-.318 1.159-.878v-.02c-.019-.522-.449-.747-.897-.896m-10.617-2c0 .28-.224.504-.505.504a.503.503 0 0 1-.504-.504c0-.28.224-.505.504-.505.28.019.505.224.505.505"/></symbol><symbol id="si-moscowmetro" viewBox="0 0 24 24"><path fill="#D9232E" d="M16.603 11.85l-2.481-6.26-2.092 3.66-2.092-3.66-2.481 6.262H6.74v.941h3.736v-.941h-.553l.538-1.555 1.569 2.57 1.569-2.57.538 1.555h-.553v.941h3.751v-.941zm5.335-1.912A9.933 9.933 0 0 0 12 0C6.516 0 2.062 4.453 2.062 9.938c0 2.75 1.121 5.23 2.914 7.023a.804.804 0 0 0 1.375-.568.825.825 0 0 0-.239-.582 8.303 8.303 0 0 1-2.42-5.873c0-4.588 3.72-8.324 8.308-8.324 4.588 0 8.324 3.736 8.324 8.324a8.289 8.289 0 0 1-2.436 5.888l-7.024 7.023L12 24l7.039-7.039a9.891 9.891 0 0 0 2.899-7.023Z"/></symbol><symbol id="si-motorola" viewBox="0 0 24 24"><path fill="#E1140A" d="M12 0C5.373 0 0 5.373 0 12s5.373 12 12 12 12-5.373 12-12C24.002 5.375 18.632.002 12.007 0H12zm7.327 18.065s-.581-2.627-1.528-4.197c-.514-.857-1.308-1.553-2.368-1.532-.745 0-1.399.423-2.2 1.553-.469.77-.882 1.573-1.235 2.403 0 0-.29-.675-.63-1.343a8.038 8.038 0 0 0-.605-1.049c-.804-1.13-1.455-1.539-2.2-1.553-1.049-.021-1.854.675-2.364 1.528-.948 1.574-1.528 4.197-1.528 4.197h-.864l4.606-15.12 3.56 11.804.024.021.024-.021 3.56-11.804 4.61 15.113h-.862z"/></symbol><symbol id="si-movistar" viewBox="0 0 24 24"><path fill="#019DF4" d="M4.512 5.187c-1.113.018-3.165.567-4.102 4.401-.409 1.67-.567 3.413-.217 5.485.322 1.912.893 3.562 1.278 4.471.132.314.339.64.498.842.456.579 1.217.542 1.536.384.348-.172.748-.586.605-1.534-.07-.458-.272-1.127-.386-1.499-.349-1.141-.814-2.518-.854-3.5-.054-1.311.463-1.483.806-1.56.576-.126 1.06.508 1.52 1.303.548.949 1.488 2.63 2.255 3.915.692 1.16 1.97 2.401 4.02 2.316 2.091-.087 3.633-.886 4.427-3.402.594-1.882.999-3.289 1.651-4.729.75-1.657 1.75-2.543 2.592-2.272.782.25.977 1.016.986 2.14.009.996-.107 2.093-.196 2.898-.032.293-.09.881-.066 1.207.047.643.325 1.284 1.046 1.386.77.109 1.387-.506 1.633-1.25.098-.293.18-.742.225-1.06.226-1.608.284-2.689.183-4.333-.12-1.924-.495-3.678-1.152-5.196-.627-1.452-1.635-2.382-2.927-2.464-1.43-.091-3.072.86-3.934 2.704-.793 1.7-1.428 3.444-1.814 4.336-.39.903-.965 1.459-1.847 1.552-1.08.114-2.01-.67-2.692-1.79-.593-.975-1.77-2.832-2.4-3.456-.592-.584-1.267-1.317-2.674-1.295z"/></symbol><symbol id="si-mozilla" viewBox="0 0 24 24"><path fill="#161616" d="M4.819 24H1.75V0H4.82zM7.33 12.242H19.48v-.69L11.562 8.67V6.25l7.918-2.872v-.7H10.1V0h12.149v4.89l-6.445 2.224v.69l6.445 2.224v4.89H7.33zm0-9.565h2.77v2.77H7.33z"/></symbol><symbol id="si-mqtt" viewBox="0 0 24 24"><path fill="#660066" d="M10.657 23.994h-9.45A1.212 1.212 0 0 1 0 22.788v-9.18h.071c5.784 0 10.504 4.65 10.586 10.386Zm7.606 0h-4.045C14.135 16.246 7.795 9.977 0 9.942V6.038h.071c9.983 0 18.121 8.044 18.192 17.956Zm4.53 0h-.97C21.754 12.071 11.995 2.407 0 2.372v-1.16C0 .55.544.006 1.207.006h7.64C15.733 2.49 21.257 7.789 24 14.508v8.291c0 .663-.544 1.195-1.207 1.195ZM16.713.006h6.092A1.19 1.19 0 0 1 24 1.2v5.914c-.91-1.242-2.046-2.65-3.158-3.762C19.588 2.11 18.122.987 16.714.005Z"/></symbol><symbol id="si-msi" viewBox="0 0 24 24"><path fill="#FF0000" d="M16.362 10.042c-1.044.56-2.193 1.05-3.7 1.142a4.26 4.26 0 0 1-2.321-.556c-.155-.09-.51-.26-.503-.457.011-.242.582-.303.816-.306 5.262-.178 6.29-2.472 6.286-2.563 0-.083-.09.011-.09.011-1.38 1.777-4.937 1.973-4.937 1.973-.877.121-1.761-.08-2.215-.529a.794.794 0 0 1-.215-.39c-.102.122-.17.25-.291.379-.114.128-.458.499-.484.06-.019-.325.076-.393.2-.586a5.178 5.178 0 0 1 .193-.276c.374-.49.684-.997 1.123-1.402.037-.038.11-.075.09-.11a6.221 6.221 0 0 0-3.624 4.166 6.508 6.508 0 0 0-.23 1.72c0 .62.082 1.209.21 1.75.258 1.073.56 1.817 1.033 2.66.155-.211.219-.491.306-.752.098-.276.166-.642.302-.87.321-.528 2.079-.396 1.599-.763a3.613 3.613 0 0 1-.397-.359 7.083 7.083 0 0 1-.673-.831c-.412-.582-.756-1.285-.79-2.2.469 1.21 1.18 2.222 2.313 2.774.378.182.813.378 1.323.367-1.341-.253-2.162-1.285-2.717-2.374-.087-.17-.208-.332-.25-.476a.4.4 0 0 1-.011-.189c.076-.336.484-.17.726-.083a8.489 8.489 0 0 0 3.602.438 6.678 6.678 0 0 0 1.874-.476c.545-.227 1.04-.518 1.452-.896m-2.34 2.657a8.001 8.001 0 0 1-2.4-.189 3.969 3.969 0 0 1-1.754-.865c-.181-.166-.295-.469-.597-.397-.026.22.151.378.272.514a3.507 3.507 0 0 0 1.573.896c.835.257 2.003.283 2.906.038M11.35 10.22c-.178 0-.771-.098-.786.098-.012.121.245.212.381.25.53.136 1.255.086 1.784.037a8.515 8.515 0 0 0 2.098-.465c.99-.362 1.795-.88 2.457-1.55.181-.18.162-.234-.034-.067a6.365 6.365 0 0 1-1.769 1.032c-1.172.472-2.517.665-4.131.665m6.576-6.717c.136.034.299.027.37.068.133.08.133.273.224.431-.54.091-.718-.302-.972-.585.091.007.227.052.378.086M7.325 16.57c-.393-.613-2.39-3.19-.832-6.989 2.128-5.178 7.88-3.772 8.421-3.557.064-.434.257-.884.764-.994a1.712 1.712 0 0 1 .612 0c-.522.193-1.077.427-1.05.976.022.49.52.835.936.91 0 0 .33.072.567-.075a.019.019 0 0 0 .016-.012c.064-.037.12-.075.204-.105a.979.979 0 0 1 .529-.023c.049.011.143.09.227.087.052 0 .136-.076.211-.087.2-.038.397.072.582.147.125.053.465.099.488.273.011.12-.178.264-.28.34a1.765 1.765 0 0 1-.423.23c.56-.045 1.682-.48 1.512.246-.015.076-.057.14-.042.178.578-.197.76-.685.673-1.372-.076.022-.14.17-.2.215v-.004c0-.196.01-.491-.125-.612.068.359-.121.53-.382.654a6.176 6.176 0 0 0-.695-.975c-.027.113-.012.26-.046.37a.518.518 0 0 0-.438-.351c-.129-.02-.272.022-.427 0-.2-.034-.431-.174-.446-.325-.027-.25.423-.367.65-.428.049.163.117.295.17.45a1.693 1.693 0 0 1 .964-.43c.102 0 .329.037.363.113.079.162-.129.355-.19.427-.037.038-.098.08-.079.102.39-.102.567-.355.84-.544.143.189.196.59.173.858.31-.303.318-.824.291-1.376a1.761 1.761 0 0 1 .749.597 1.943 1.943 0 0 0-.68-.756c-.1-.064-.228-.094-.303-.166-.068-.068-.151-.303-.242-.322-.113-.022-.265.11-.397.118-.238.019-.367-.144-.416-.378-.578.158-.8-.197-.937-.632-.023-.075-.023-.18-.06-.264-.042-.106-.273-.212-.394-.257a1.092 1.092 0 0 0-.548-.068c-.17.026-.294.113-.491.12-.476.027-.971-.18-1.357-.37A8.289 8.289 0 0 1 12.896.113c-.03-.038-.053-.094-.11-.113.125.385.348.707.556 1.005.639.915 1.47 1.58 2.283 2.215a1.308 1.308 0 0 1-.805-.208 4.165 4.165 0 0 1-.65-.416c-.85.726-2.548.81-3.916 1.134.567-.019 1.417.163 1.916.246h-.015c-2.389.094-4.449.794-5.877 2.147.37-.136.706-.306 1.118-.405-.59.537-1.171 1.096-1.644 1.75-.468.647-.967 1.33-.986 2.404.287-.28.578-.642.979-.847a13.108 13.108 0 0 0-.85 2.268c-.197.718-.492 1.913-.02 2.582.03-.238.03-.51.19-.624.28.661.76 1.996 2.26 3.319m5.68-14.095c.114.102.333.273.465.265.208 0 .314-.189.458-.272-.719-.321-1.388-.786-2.034-1.168.098.151.227.28.355.435.239.272.477.506.756.74m-8.05 5.16c.075.155 0 .366.011.517.234-.635.688-1.134 1.119-1.572.023-.026.087-.08.049-.072-.227.11-.355.314-.665.34-.174-.196-.174-.793.06-.922.288.087.477-.162.446-.427-.056-.423-.578-.707-.816-.877.125.159.367.303.423.537.02.083.015.242-.075.268-.133.038-.208-.11-.34-.09-.114.018-.167.219-.19.359a2.76 2.76 0 0 0-.03.529c0 .087.034.219-.03.283-.08-.038-.098-.136-.132-.215-.125-.276-.34-.647-.254-1.013.057-.023.163.007.2-.03.02-.227-.143-.443-.29-.586a.983.983 0 0 0-.926-.227c.211.038.68.068.684.302 0 .087-.102.212-.129.28-.166.408.023.93.22 1.194.113.152.28.295.181.575-.128-.008-.246-.09-.363-.155-.166-.095-.34-.185-.423-.329-.083-.162-.09-.325-.204-.446-.284-.321-.896-.544-1.342-.272.378-.011.73.011.877.26a1.119 1.119 0 0 1 .12.454c.008.068-.01.16.023.208.057.098.235.083.34.144.14.08.227.298.382.435a1.02 1.02 0 0 0 .133.102c.242.143.816.196.937.446m3.046 10.057c-.578.306-.914.907-.986 1.67.113-.302.43-.46.767-.615.216-.099.601-.197.662-.397.053-.155.037-.405-.038-.507-.083-.113-.227-.147-.405-.15m1.406 2.683a1.708 1.708 0 0 0-.907 1.38c.117-.28.424-.398.734-.53.189-.076.517-.162.578-.317.045-.125.045-.326-.023-.416-.064-.095-.283-.167-.382-.121m1.701 1.625c-.321.287-.506.88-.476 1.444.08-.321.325-.446.605-.631.162-.102.491-.261.552-.42a.469.469 0 0 0-.118-.461c-.181-.151-.453-.026-.567.072m2.627.567c-.313.276-.415.831-.34 1.432.076-.302.238-.45.454-.635.128-.113.332-.264.374-.42.068-.256-.208-.51-.491-.377m.544-6.085c.174.022.34.113.476.158.011-.049-.05-.071-.08-.098-.385-.329-1.277-.196-1.473.208.034.072.155.076.173.162.016.091-.117.223-.185.295-.177.193-.344.303-.544.439-.098.068-.185.181-.302.17.06-.238.189-.333.29-.537.076-.136.25-.499.152-.646-.057-.095-.355-.046-.4-.151-.039-.087.03-.197.079-.25.14-.151.43-.234.687-.287-.393 0-1.103.132-1.27.457-.113.22-.015.53.231.556.095.306-.151.684-.333.824a.344.344 0 0 1-.15.083c-.303.038-.22-.31-.296-.53-.026-.075-.075-.139-.12-.2-.084.783.086 1.554.264 2.17-.019-.215.015-.43.151-.495.31-.151.726.075 1.089.098.378.019.597-.212.858-.22.136 0 .234.092.359.061.087-.022.159-.181.234-.28a1.017 1.017 0 0 1 .265-.256c.359-.208.73.075.967.208-.211-.39-.914-.688-1.451-.428-.113.053-.204.193-.336.265-.205.121-.48.087-.745.076-.09-.008-.189.019-.26-.042.067-.34.392-.351.634-.499.348-.208.68-.525.718-1.02 0-.068-.026-.163.027-.227.049-.068.174-.076.29-.06m3.138 5.204c-.136-.17-.446-.125-.488.087-.038.215.151.438.284.574a1.126 1.126 0 0 0 .514.36c.011 0 .019.018.022 0a1.01 1.01 0 0 1-.215-.477c-.038-.211-.026-.43-.12-.548m.585-9.343c.359.026.847.14.979.348-.087-.284-.631-1.867-3.156-1.758.503.151 1.077.321 1.512.597.132.08.325.204.302.405-.026.223-.446.434-.748.457-.325.023-.575-.128-.764-.227.321.409.847.715 1.591.635-.018-.094-.143-.204-.09-.347.038-.099.2-.125.374-.114m2.086 6.04c-.098.023-.219.163-.208.302.02.19.254.28.465.265a1.175 1.175 0 0 0 .718-.291c-.396.102-.672-.34-.975-.276m.34-.922c.235-.34.31-.896.393-1.414.042-.276.08-.529.16-.733.09-.22.241-.393.294-.616.05-.216-.038-.37-.113-.548-.174-.4-.348-.798-.673-1.002-.386-.245-.987-.177-1.535-.132a18.282 18.282 0 0 0-.767.076 5.216 5.216 0 0 1-.794.064c-1.096-.02-1.727-.548-1.848-1.542 0 0 0-.012-.011-.008-.151.99.408 1.576 1.21 1.75.064.136.21.257.162.446-.053.227-.424.234-.684.2a1.425 1.425 0 0 1-.658-.28 3.383 3.383 0 0 1-.854-1 2.699 2.699 0 0 0 2.721 1.836c.48-.034.919-.14 1.3-.287-.555 0-1.292.019-1.451-.367a.503.503 0 0 1 .06-.438c.47.056.889-.046 1.282-.068a2.744 2.744 0 0 1 .96.117 1.22 1.22 0 0 1 .642.438c.272.4.303.987.204 1.561a7.181 7.181 0 0 1-.453 1.41c-.37.922-1.111 2.317-1.697 2.835-.703.593-1.584.937-2.608 1.202a6.66 6.66 0 0 1-1.323.208c-1.054.045-1.901-.102-2.46-.598a2.445 2.445 0 0 1-.605-.914 6.474 6.474 0 0 1-.363-3.04c-.038-.007-.064.035-.083.046-.03.03-.057.065-.09.091-.371.333-1.146.813-1.834.488a.635.635 0 0 1-.314-.288c-.189-.363.095-.676.314-.846.162-.125.382-.284.654-.216.162.038.416.246.416.416 0 .098-.223.28-.394.28-.177 0-.29-.144-.377-.227-.016-.027-.046-.087-.087-.06-.19.83.986.8 1.39.404.348-.34.48-1.062.163-1.52-.189-.264-.54-.366-.93-.31-.347.053-.812.152-1.028.314-.302.235-.34.726-.46 1.111a3.651 3.651 0 0 1-.454.972c-.027.038-.072.064-.065.11.465.03.862.15 1.002.487a.907.907 0 0 1 .038.465c-.065.302-.238.555-.102.915.226.597 1.092.71 1.36 1.254.114.223.091.537.235.756.177.269.597.238.986.303.22.045.439.09.605.192.321.19.332.632.718.768.23.075.43-.038.624-.091.15-.042.31-.064.453-.09.337-.054.582.026.9.12a1.406 1.406 0 0 0 .895 0c.257-.098.443-.276.643-.438.408-.325.809-.631 1.353-.805.552-.174 1.21-.261 1.512-.643a2.124 2.124 0 0 0 .302-.839c.14-.631.344-1.202.639-1.652.151-.226.37-.4.525-.623m1.24-4.12c-.087.117-.28.132-.408.212-.027.46.476-.02.408-.216m.19 2.192c-.186.121-.553-.064-.711.095-.084.605.653.159.729-.068 0-.015 0-.03-.023-.027"/></symbol><symbol id="si-msibusiness" viewBox="0 0 24 24"><path fill="#9A8555" d="m15.215 10.794 3.78 2.416h-2.663l-3.78-2.416h2.663zM5.656 8.518l-.438 1.626-.175.65-.652 2.416-.175.65-.437 1.622h1.869l.437-1.622.175-.65.651-2.416.175-.65.438-1.626H5.656zm6.06 5.342-.437 1.622h4.947l2.543-1.622h-7.053zm3.556-5.342-2.548 1.626h7.086l.438-1.626h-4.976zm6.86 0-.438 1.626-.175.65-.651 2.416-.175.65-.437 1.622h1.869l.437-1.622.175-.65.651-2.416.175-.65L24 8.518h-1.868zm-20.255 0-.438 1.626-.175.65-.651 2.416-.175.65L0 15.482h1.869l.437-1.622.175-.65.651-2.416.175-.65.438-1.626H1.877zm7.536 0-.438 1.626-.175.65-.651 2.416-.175.65-.437 1.622h1.869l.437-1.622.175-.65.651-2.416.175-.65.438-1.626H9.413z"/></symbol><symbol id="si-mta" viewBox="0 0 24 24"><path fill="#0039A6" d="M15.171 10.07l-1.293-.109v6.861l-1.926.34-.004-7.371-1.637-.145V6.944l4.86.85zm3.668 5.884l-1.142.198-.134-1-1.113.145-.14 1.1-1.473.26 1.458-8.651 1.385.24zm-1.48-2.492l-.305-2.642h-.068l-.31 2.682zM10.991 24c6.59 0 11.932-5.373 11.932-12 0-6.628-5.342-12-11.932-12C6.86 0 3.22 2.112 1.077 5.323l3.307.583.91 6.965c.003-.012.066-.004.066-.004l.998-6.615 3.309.58v10.735l-2.089.367V13.32s.078-1.987.032-2.327c0 0-.09.002-.092-.005l-1.246 7.18-2.075.366L2.672 10.8l-.092-.007c-.032.28.112 2.707.112 2.707v5.298l-1.364.24C3.498 22.044 7.016 24 10.991 24z"/></symbol><symbol id="si-muller" viewBox="0 0 24 24"><path fill="#F46519" d="M17.433 14.671c-.056-1.287-.138-2.808-.138-3.013 0-.623.097-2.252.21-2.64.138-.47.76-.582.76-1.133 0-.868-1.388-.91-1.996-.91-1.833 0-1.843.414-2.553 1.711-.5.914-1.067 2.584-1.496 2.487-.613-.138-1.471-2.405-1.956-3.217-.419-.704-.388-.98-2.012-.98-1.113 0-2.4.189-2.4.98 0 .567.792.664.93.95.153.322.209.75.209 1.578 0 2.002-.128 3.288-.24 4.447-.107 1.134-.94.486-.94 1.272 0 .72 1.261.76 1.747.76.54 0 2.027-.03 2.027-.816 0-.746-.889-.056-.889-1.532 0-.455-.138-2.283.291-2.283.25 0 .399.419.485.598l.802 1.797c.832 1.864.945 1.833 1.17 1.864.439.056.939-1.522 1.245-2.155.332-.705.777-1.92 1.205-1.92.486 0 .21 2.375.154 2.61-.097.444-.72.525-.72 1.01 0 .884 1.9.828 2.471.828.608 0 2.507.04 2.507-.884 0-.623-.832-.403-.873-1.409zm5.004-4.157c-.75.787-1.317 1.15-2.343 1.492 1.031.362 1.598.735 2.343 1.531 1.297 1.39 1.609 2.635 1.548 4.632v5.81h-5.827c-1.833.016-3.104-.31-4.498-1.536-.843-.74-1.241-1.307-1.66-2.35-.347 1.032-.715 1.604-1.511 2.35-1.39 1.312-2.748 1.65-4.647 1.537H.005v-5.811c-.05-1.772.312-3.12 1.553-4.504.766-.858 1.358-1.261 2.435-1.66-1.077-.382-1.67-.776-2.435-1.618C.29 9.003.015 7.68.005 5.842V.001h5.837c1.9-.016 3.15.29 4.534 1.542.848.77 1.241 1.368 1.624 2.446.429-1.083.848-1.675 1.726-2.446C15.105.343 16.386.052 18.158 0h5.827v5.841c.092 1.87-.225 3.284-1.548 4.672zm-.893-8.042h-3.79c-1.68-.04-2.88.22-4.197 1.317-.76.634-1.123 1.119-1.531 2.017-.383-.893-.736-1.378-1.471-2.017-1.312-1.138-2.41-1.297-4.259-1.317H2.512l-.005 3.784c-.02 1.532.169 2.599 1.088 3.87.669.925 1.22 1.384 2.252 1.87-1.037.505-1.588.98-2.252 1.924-.888 1.262-1.088 2.155-1.072 3.794v3.769h3.773c1.793-.01 2.957-.158 4.274-1.302.73-.639 1.083-1.124 1.456-2.017.413.898.78 1.378 1.542 2.017 1.312 1.093 2.446 1.378 4.187 1.312h3.789v-3.779c-.01-1.521-.082-2.568-.97-3.824-.685-.965-1.282-1.44-2.375-1.895 1.098-.47 1.69-.955 2.375-1.93.878-1.25.934-2.323.97-3.794z"/></symbol><symbol id="si-mullvad" viewBox="0 0 24 24"><path fill="#294D73" d="M12 0C5.371 0 0 5.362 0 12c0 6.629 5.381 12 12 12s12-5.371 12-12S18.629 0 12 0zm1.651 3.363c1.908-.02 4.059 1.28 4.701 2.951.381 1 .267 2.086-.057 3.086-.266.819-1.238 2-.876 2.886-.143-.038-3.124-1.048-3.98-1.505-1.344-.838-2.544-1.867-3.448-2.657l-.03-.029-3.047-1.447a1.037 1.037 0 0 1-.104-.058c.419.029 2.085.23 2.828.058-.143-.39-.105-.896.095-1.372.286-.657.83-1.095 1.343-1.095.105 0 .2.019.296.057A3.411 3.411 0 0 1 12.39 3.6a3.49 3.49 0 0 1 1.26-.237zm-2.499.97c-.457 0-.962.42-1.228 1.02-.2.447-.229.933-.086 1.304a.813.813 0 0 0 .41.457.696.696 0 0 0 .285.058c.457 0 .962-.42 1.22-1.02.161-.362.209-.742.152-1.076a.91.91 0 0 0-.467-.676.6.6 0 0 0-.286-.067zm0 .286c.057 0 .115.01.172.038.152.067.266.238.304.467.048.276.01.6-.133.905-.21.485-.619.838-.962.838a.444.444 0 0 1-.162-.029c-.142-.057-.219-.19-.257-.295-.114-.286-.085-.705.076-1.086.21-.495.62-.838.962-.838zM3.01 6.362 2.943 7.79l.133.037.943-1.123-.648 1.104c1.01-.2 2.658-.247 4.42-.114l1.837.895c.915.8 2.124 1.839 3.486 2.686l3.553 1.4.438.638h-.372l.781.943-.714-.114c.01.066.714.876.714.876l-.562.076c.02.067.572.753.572.753l-.42-.03c.03.106.677 1.153.677 1.163 0 .01-.229-.057-.381-.105.543 1.21 1.324 1.448 1.362 1.943-2.667 3.419-9.667 3.952-12.771.124-.067-.314.619-.838 1.057-1.429.21-.286.4-.59.533-.905.19-.58-.21-.533-.476-1.028-.047-.086-.086-.2-.047-.305.057-.19.38-.324.438-.286 1.314.877 3.762.59 5.266-1.142 0 0 .458.114.696.18l-.686-.457-.048-.028c-.028.019-.067.038-.095.057-3.124 2.38-5.152 1.352-5.152 1.352a3.243 3.243 0 0 0-.438-.39c-2.124-1.495-3.639-3.505-4.324-4.81l-.257 1.381.057-1.838-.914 1.276.676-1.371c-.505-.067-.79-.572-.676-.981.094-.426.63-.738 1.096-.527z"/></symbol><symbol id="si-multisim" viewBox="0 0 24 24"><path fill="#57B685" d="M20.3636 5.7778c-.1616.3232-.5656.5656-.9697.5656-.6464 0-1.1313-.4848-1.1313-1.1313s.4849-1.1313 1.1313-1.1313c.404 0 .7273.2424.9697.5657h3.5556V.1212H0v2.7475h15.0303c.1616-.3232.5657-.5657.9697-.5657.6465 0 1.1313.4849 1.1313 1.1313S16.6465 4.5657 16 4.5657c-.404 0-.7273-.2425-.9697-.5657H0v6.5455h2.101V6.505h10.586c.1616-.3232.5656-.5656.9697-.5656.6464 0 1.1313.4848 1.1313 1.1313s-.485 1.1313-1.1314 1.1313c-.404 0-.7273-.2424-.9697-.5656H3.313v3.0707h11.798c.1616-.3233.5657-.5657.9697-.5657.6465 0 1.1313.4849 1.1313 1.1313s-.4848 1.1313-1.1313 1.1313c-.404 0-.7273-.2424-.9697-.5656H0v3.0707h6.5455c.1616-.3232.5656-.5657.9697-.5657.6464 0 1.1313.4849 1.1313 1.1313 0 .6465-.4849 1.1314-1.1313 1.1314-.404 0-.7273-.2425-.9697-.5657H0v3.0707h7.6768c.1616-.3232.5656-.5657.9697-.5657.6464 0 1.1313.4849 1.1313 1.1314 0 .6464-.4849 1.1313-1.1313 1.1313-.404 0-.7273-.2424-.9697-.5657H0v3.6364h12.606v-7.4344c-.3232-.1616-.5656-.5656-.5656-.9697 0-.6464.4849-1.1313 1.1313-1.1313s1.1313.4849 1.1313 1.1313c0 .404-.2424.7273-.5656.9697v7.4344h2.6666v-5.6566c-.3232-.1616-.5656-.5656-.5656-.9697 0-.6464.4848-1.1313 1.1313-1.1313s1.1313.4849 1.1313 1.1313c0 .404-.2424.7273-.5656.9697v5.6566h2.6666v-8.3232c-.3232-.1617-.5656-.5657-.5656-.9697 0-.6465.4848-1.1314 1.1313-1.1314.6464 0 1.1313.4849 1.1313 1.1314 0 .404-.2424.7272-.5657.9697v8.3232H24V9.9798h-2.9899c-.1616.3232-.5657.5657-.9697.5657-.6465 0-1.1313-.4849-1.1313-1.1314s.4848-1.1313 1.1313-1.1313c.404 0 .7273.2425.9697.5657H24V5.697l-3.6364.0808z"/></symbol><symbol id="si-muo" viewBox="0 0 24 24"><path fill="#C60D0D" d="M4.887 6.016 0 10.903v7.048h19.108l4.873-4.874v-7.06Zm5.46 3.57a.295.295 0 0 1 .314.314v3.652h3V9.9a.303.303 0 0 1 .331-.314.295.295 0 0 1 .315.314v3.72a.506.506 0 0 1-.56.552h-3.18a.502.502 0 0 1-.551-.552V9.9a.303.303 0 0 1 .33-.314zm-5.113.041a.597.597 0 0 1 .465.22l1.638 1.99L8.96 9.81a.47.47 0 0 1 .378-.183h.164a.18.18 0 0 1 .183.183.193.193 0 0 1-.046.128L7.668 12.4a.433.433 0 0 1-.33.19.443.443 0 0 1-.323-.185l-1.45-1.753v3.246a.303.303 0 0 1-.331.315.295.295 0 0 1-.315-.315V9.942a.295.295 0 0 1 .315-.315zm9.942 0h3.334a.502.502 0 0 1 .552.552v3.44a.502.502 0 0 1-.552.553h-3.334a.502.502 0 0 1-.552-.552v-3.44a.502.502 0 0 1 .552-.553zm.093.62v3.304h3.148v-3.303zm-5.775.584c.032 0 .191.012.191.25v2.817a.303.303 0 0 1-.33.315.295.295 0 0 1-.315-.315V11.49a.591.591 0 0 1 .133-.378l.131-.164.012-.013c.058-.058.104-.104.178-.104zM24 14.498l-3.486 3.486H24Z"/></symbol><symbol id="si-mural" viewBox="0 0 24 24"><path fill="#FF4B4B" d="M20.53 8.118H24v13.258h-3.47V8.118zM5.497 6.094A2.03 2.03 0 0 1 7.524 8.12h3.47a5.503 5.503 0 0 0-5.497-5.497A5.503 5.503 0 0 0 0 8.121h3.47a2.03 2.03 0 0 1 2.027-2.027zm2.027 15.285 3.47-.002V8.12h-3.47v13.258zm8.952-.005v-3.468h-3.47l-2.013.001v3.47l5.483-.003zm0-13.256a2.03 2.03 0 0 1 2.027-2.027V2.62a5.503 5.503 0 0 0-5.497 5.497v9.788h3.47V8.118zm4.055 0H24a5.503 5.503 0 0 0-5.497-5.497v3.47a2.03 2.03 0 0 1 2.027 2.027zM0 21.378h3.47V8.122H0V21.38z"/></symbol></defs></svg>
