<svg xmlns="http://www.w3.org/2000/svg"><defs><symbol id="si-keploy" viewBox="0 0 24 24"><path fill="#FF914D" d="M7.438 0C6.8952-.0029 6.3924.2006 5.954.6725c-.6953.7482-.354 1.7371.5356 2.7936 2.751.6529 6.3299 2.3982 9.4374 4.8783C14.4729 6.0506 10.37.0158 7.4381 0ZM4.2622 3.5776c-1.304.0225-2.2213.4728-2.4983 1.4363C.7452 8.5564 13.576 10.6173 13.576 10.6173c.269.0468.4741.2807.4741.5625 0 .292-.22.5298-.5034.564-7.508-.303-8.8518 4.309-8.8518 4.309C3.2689 20.6625 7.6858 24 7.6858 24c-2.1293-8.5433 7.0439-4.9774 7.0439-4.9774 7.5638 2.5793 7.8292.526 7.4649-1.0566-.0027-.0127-.0037-.0256-.0067-.0386C20.4495 9.987 9.3782 3.4895 4.262 3.5776Zm14.3353 10.5971c.2358-.0018.524.1173.7714.3406.396.3576.5366.8461.3148 1.091-.222.2447-.723.1535-1.1193-.2035-.3954-.3573-.536-.8458-.3141-1.0906.0832-.0918.2058-.1364.3472-.1375z"/></symbol><symbol id="si-keras" viewBox="0 0 24 24"><path fill="#D00000" d="M24 0H0v24h24V0zM8.45 5.16l.2.17v6.24l6.46-6.45h1.96l.2.4-5.14 5.1 5.47 7.94-.2.3h-1.94l-4.65-6.88-2.16 2.08v4.6l-.19.2H7l-.2-.2V5.33l.17-.17h1.48z"/></symbol><symbol id="si-keycdn" viewBox="0 0 24 24"><path fill="#047AED" d="M2.3043 19.0607c.2259.01.4538.04.6667.12v-.003l.032.012 2.8091-2.7391.102.137c.146.1998.2999.3798.4638.5597l.06.068c.043.043.077.086.12.13l.3259.3249.077.07.07.06a7.4626 7.4626 0 004.6534 1.7753 7.5146 7.5146 0 004.0087-1.0396l.216.224c.2499.2658.5068.5327.7557.7997a8.8581 8.8581 0 01-5.0154 1.3995 8.8341 8.8341 0 01-5.4612-2.0623l.01-.015-1.8024 1.7764A2.2463 2.2463 0 110 21.305a2.2453 2.2453 0 012.2453-2.2453h.058zM19.4737 7.4765a8.8321 8.8321 0 011.2796 4.8264 8.7872 8.7872 0 01-2.2073 5.6152l.01.01 1.1066 1.1766c.4459-.06.8918.094 1.2017.4199a1.3935 1.3935 0 01-.052 1.9663 1.3935 1.3935 0 01-1.9664-.052 1.3826 1.3826 0 01-.3519-1.2196 336.5811 336.5811 0 00-1.9493-2.0693l-.11-.12.128-.103a6.9212 6.9212 0 00.9277-.8846 7.4256 7.4256 0 001.8793-4.7755 7.4376 7.4376 0 00-.9267-3.8118l1.0297-.9796zM3.8267 2.226c.395-.006.7648.15 1.0397.432.31.3258.4399.7817.353 1.2195L7.3475 6.111l-.128.104a6.9208 6.9208 0 00-.9276.8847 7.4906 7.4906 0 00-.9617 8.5942l-1.0217.9957A8.7602 8.7602 0 013.021 11.838c.044-2.0673.8498-4.0646 2.2033-5.6201L4.0517 4.9933a1.4005 1.4005 0 01-1.2026-.42 1.3955 1.3955 0 01.052-1.9673c.2169-.204.4968-.3349.7937-.3699.044-.006.09-.007.133-.01zM21.746.4427a2.2473 2.2473 0 11-.6998 4.3806l-.002.002-.033-.012-3.049 2.894-.102-.1379a7.1777 7.1777 0 00-.5328-.6268l-.034-.043-.2659-.2659-.12-.103-.077-.07-.06-.0499-.0769-.07a7.4556 7.4556 0 00-4.6185-1.7514A7.4336 7.4336 0 008.0724 5.629l-.9797-1.0216a8.8371 8.8371 0 015.0154-1.3996 8.7912 8.7912 0 015.4622 2.0694h.017l2.0194-1.9164A2.2463 2.2463 0 0121.75.4438zM11.956 5.4581c.254 0 .5069.02.7598.05 3.6228.4548 6.19 3.7608 5.7441 7.3846a6.6239 6.6239 0 01-7.3846 5.7451 6.6239 6.6239 0 01-5.7461-7.3846c.4318-3.3619 3.257-5.7831 6.6258-5.7951zm-.1 2.839c-1.4655.117-2.5271 1.2267-2.5651 2.6992.027 1.0537.5648 1.9394 1.5045 2.4252l-.5118 2.3993h3.4219l-.5099-2.3993c.9347-.5068 1.4896-1.3455 1.5046-2.4222-.02-1.5215-1.1977-2.6671-2.7052-2.7051l-.14.004zm.052-.015h-.01z"/></symbol><symbol id="si-keystone" viewBox="0 0 24 24"><path fill="#166BFF" d="M4.5 0A4.5 4.5 0 000 4.5v15A4.5 4.5 0 004.5 24h15a4.5 4.5 0 004.5-4.5v-15A4.5 4.5 0 0019.5 0zm5.47 14.789v3.586H6.744V5.692H9.97v5.45h.167l4.218-5.45h3.463l-4.385 5.599 4.64 7.084h-3.788l-3.2-5.001z"/></symbol><symbol id="si-khanacademy" viewBox="0 0 24 24"><path fill="#14BF96" d="M21.724 4.973L13.418.328a3.214 3.214 0 0 0-2.828 0L2.276 4.973A3.05 3.05 0 0 0 .862 7.371v9.256a3.05 3.05 0 0 0 1.414 2.4l8.306 4.645a3.214 3.214 0 0 0 2.828 0l8.314-4.645a3.05 3.05 0 0 0 1.414-2.4V7.373a3.05 3.05 0 0 0-1.414-2.4zM12 4.921a2.571 2.571 0 1 1 .001 5.143A2.571 2.571 0 0 1 12 4.92zm3.094 13.627a9.119 9.119 0 0 1-3.103.549 8.972 8.972 0 0 1-3.076-.55 8.493 8.493 0 0 1-5.486-7.987v-.857c4.646.017 8.074 3.823 8.074 8.51v.198h.926v-.197c0-4.688 3.445-8.51 8.056-8.51.026.29.043.582.086.856a8.502 8.502 0 0 1-5.477 7.988z"/></symbol><symbol id="si-khronosgroup" viewBox="0 0 24 24"><path fill="#CC3333" d="M.496 12.919H0V10.38h.496zm.008-1.261.768-1.278h.554l-.814 1.26.814 1.277h-.554zm3.02.23v1.031h-.497V10.38h.497v1.031h.818V10.38h.497v2.539h-.497v-1.031zm3.272 1.031h-.497V10.38h.603c.192 0 .335.006.429.02s.174.035.239.065c.145.068.255.162.33.283s.114.263.114.426c0 .197-.054.363-.162.5-.107.137-.254.223-.44.261l.635.984h-.592l-.658-1.177zm0-1.301h.11c.202 0 .355-.037.46-.11.104-.072.157-.179.157-.318 0-.135-.044-.234-.132-.298s-.224-.097-.41-.097h-.185zm8.262 1.301h-.488V10.38h.472l1.05 1.621V10.38h.488v2.539h-.461l-1.061-1.67zm2.876-1.275c0-.139.019-.271.056-.395.038-.124.093-.239.166-.347.125-.183.283-.324.472-.423.19-.099.396-.149.621-.149.169 0 .331.033.488.098.156.065.295.159.419.281.127.126.224.269.29.427.067.158.099.325.099.499 0 .182-.031.351-.094.51s-.154.301-.274.424c-.122.129-.265.228-.427.297-.161.069-.332.104-.509.104-.189 0-.363-.034-.524-.101q-.2385-.102-.423-.3a1.3 1.3 0 0 1-.27-.422c-.06-.158-.09-.325-.09-.503m.519-.018c0 .109.017.211.054.305.036.094.089.18.16.258.078.085.167.151.266.196s.202.069.307.069c.222 0 .409-.079.559-.237.151-.158.226-.355.226-.591 0-.215-.077-.4-.228-.553-.152-.152-.335-.229-.548-.229-.222 0-.411.077-.565.228-.153.153-.231.337-.231.554m3.291.507.455-.002v.037c0 .106.027.192.082.256s.129.096.221.096c.099 0 .177-.03.234-.089.058-.06.087-.14.087-.243 0-.163-.117-.281-.35-.351-.03-.009-.054-.016-.071-.023-.197-.061-.344-.149-.439-.262-.095-.112-.143-.257-.143-.43 0-.238.066-.43.198-.574s.307-.217.528-.217c.205 0 .37.064.491.192.122.128.191.309.205.539h-.45v-.021c0-.08-.026-.146-.074-.194-.049-.049-.113-.074-.192-.074-.082 0-.146.025-.193.076-.048.051-.07.12-.07.208 0 .038.005.07.015.098.01.029.025.054.046.076.048.053.15.101.307.146.07.019.123.034.161.047.174.059.303.145.386.255.082.11.124.252.124.424 0 .262-.073.471-.218.63-.146.159-.339.238-.578.238-.227 0-.409-.076-.549-.229-.138-.155-.21-.359-.213-.609m-4.886 1.298-.067.076a.34.34 0 0 0-.101-.063.28.28 0 0 0-.107-.02c-.078 0-.143.026-.195.081-.052.054-.078.121-.078.2s.027.145.078.199a.262.262 0 0 0 .195.082.27.27 0 0 0 .097-.017c.03-.011.059-.027.086-.049v-.168h-.151v-.099h.258v.326a.57.57 0 0 1-.143.083.41.41 0 0 1-.147.028c-.111 0-.202-.037-.275-.109-.073-.073-.109-.165-.109-.275a.39.39 0 0 1 .1-.261c.037-.04.079-.07.127-.091.047-.022.1-.032.157-.032.053 0 .105.01.154.029s.09.045.121.08m1.06-.091h.139q.0585 0 .096.006a.25.25 0 0 1 .067.022c.031.016.056.041.074.073.017.033.027.071.027.111 0 .047-.015.089-.046.124s-.073.056-.124.065l.222.301-.103.044-.245-.355v.337l-.109.009zm.109.095v.232h.039c.046 0 .082-.01.109-.031.025-.022.038-.05.038-.088s-.012-.065-.036-.084-.06-.029-.108-.029zm1.687-.114q.072 0 .135.024c.043.015.082.038.114.068.043.039.077.082.099.133.023.05.034.104.034.159 0 .047-.008.095-.026.14a.43.43 0 0 1-.075.122c-.037.04-.078.07-.127.091-.047.022-.1.032-.157.032a.4.4 0 0 1-.136-.024.33.33 0 0 1-.113-.068.39.39 0 0 1-.099-.134.38.38 0 0 1-.035-.159c0-.055.011-.109.035-.159a.38.38 0 0 1 .099-.133c.033-.029.07-.052.113-.068.045-.016.09-.024.139-.024m0 .102c-.078 0-.143.026-.194.081-.053.054-.078.121-.078.199 0 .079.026.146.078.2s.116.08.195.08c.078 0 .142-.028.195-.081.052-.054.079-.121.079-.2s-.027-.145-.078-.199a.27.27 0 0 0-.197-.08m1.518-.093v.414c0 .087.011.149.034.185.022.035.06.053.114.053s.093-.017.117-.05c.023-.034.036-.089.036-.167v-.424l.105-.01v.459c0 .059-.004.105-.012.137a.22.22 0 0 1-.044.082c-.02.024-.049.043-.084.058a.3.3 0 0 1-.112.021c-.087 0-.154-.025-.197-.074s-.065-.124-.065-.224v-.448zm1.471.01h.193c.082 0 .146.019.19.056.044.038.065.093.065.165 0 .067-.025.121-.075.161s-.119.059-.207.059c-.011 0-.03-.001-.055-.002h-.002v.288l-.109.009zm.109.096v.244l.03.003c.011.002.022.002.036.002.053 0 .093-.01.12-.032.028-.021.042-.051.042-.092 0-.043-.013-.074-.038-.094s-.065-.031-.119-.031zm-11.68-.683c-.871-.031-2.061-.428-2.308-1.003-.213-.522-.001-1.13 1.004-1.563.597-.248 1.499-.318 2.195-.254.987.09 1.927.6 1.928.603v.715l-.001.048s-.306-.277-.688-.5c-.36-.211-.69-.359-1.344-.419-.153-.014-.414-.049-.836.01-.171.024-.411.042-.953.28-.175.084-.337.173-.463.277-.065.054-.154.13-.216.195-.155.193-.236.339-.197.602.045.198.133.322.387.512.11.082.123.081.172.106.455.236.818.322 1.337.388zm.048-2.231c.873-.004 2.112.346 2.434.91.282.513.152 1.128-.794 1.598-.561.272-1.452.378-2.154.341-.997-.051-2.002-.524-2.004-.525l-.095-.713-.006-.048s.342.265.753.473c.388.195.736.331 1.397.365.154.008.418.031.832-.043.167-.03.405-.058.913-.316.164-.09.313-.186.423-.295.058-.056.137-.136.191-.203.128-.199.19-.347.117-.608-.072-.195-.176-.316-.454-.495-.121-.078-.133-.076-.186-.1-.485-.217-.859-.288-1.386-.334zM24 10.58c0 .046-.011.089-.035.129a.257.257 0 0 1-.094.094.265.265 0 0 1-.129.035.243.243 0 0 1-.129-.035.243.243 0 0 1-.094-.094.255.255 0 0 1-.035-.129c0-.047.011-.089.035-.13.022-.04.055-.071.094-.094.04-.022.082-.035.129-.035.046 0 .089.012.129.035s.071.054.094.094c.024.041.035.084.035.13m-.05 0c0-.058-.02-.107-.062-.147a.203.203 0 0 0-.146-.062c-.058 0-.107.021-.147.062-.04.04-.061.09-.061.147 0 .056.02.106.061.146.04.04.09.062.147.062s.106-.02.146-.062c.042-.04.062-.089.062-.146m-.325-.138h.123c.035 0 .06.007.076.021s.024.033.024.056c0 .019-.006.035-.017.048-.013.014-.032.024-.057.029.01.004.019.009.024.012a.14.14 0 0 1 .023.028c0 .001.015.028.045.08h-.082c-.026-.052-.043-.084-.052-.094s-.018-.015-.028-.015c-.002 0-.005 0-.009.001v.109h-.069zm.068.117h.03c.02 0 .034-.003.041-.01a.031.031 0 0 0 .013-.025.034.034 0 0 0-.011-.025c-.008-.006-.022-.01-.041-.01h-.032z"/></symbol><symbol id="si-kia" viewBox="0 0 24 24"><path fill="#05141F" d="M13.923 14.175c0 .046.015.072.041.072a.123.123 0 0 0 .058-.024l7.48-4.854a.72.72 0 0 1 .432-.13h1.644c.252 0 .422.168.422.42v3.139c0 .38-.084.6-.42.801l-1.994 1.2a.137.137 0 0 1-.067.024c-.024 0-.048-.019-.048-.088v-3.663c0-.043-.012-.071-.041-.071a.113.113 0 0 0-.058.024l-5.466 3.551a.733.733 0 0 1-.42.127h-3.624c-.254 0-.422-.168-.422-.422V9.757c0-.033-.015-.064-.044-.064a.118.118 0 0 0-.057.024L7.732 11.88c-.036.024-.046.041-.046.058 0 .014.008.029.032.055l2.577 2.575c.034.034.058.06.058.089 0 .024-.039.043-.084.043H7.94c-.183 0-.324-.026-.423-.125l-1.562-1.56a.067.067 0 0 0-.048-.024.103.103 0 0 0-.048.015l-2.61 1.57a.72.72 0 0 1-.423.122H.425C.168 14.7 0 14.53 0 14.279v-3.08c0-.38.084-.6.422-.8L2.43 9.192a.103.103 0 0 1 .052-.016c.032 0 .048.03.048.1V13.4c0 .043.01.063.041.063a.144.144 0 0 0 .06-.024L9.407 9.36a.733.733 0 0 1 .446-.124h3.648c.252 0 .422.168.422.42l-.002 4.518z"/></symbol><symbol id="si-kibana" viewBox="0 0 24 24"><path fill="#005571" d="M2.625 0v21.591L21.375 0zm10.864 12.47L3.477 24h17.522a18.755 18.755 0 0 0-7.51-11.53z"/></symbol><symbol id="si-kicad" viewBox="0 0 24 24"><path fill="#314CB0" d="M7.4668 7.3039c-.472.0238-.8477.4142-.8477.8906 0 .4918.3994.8906.8926.8906.4933 0 .8926-.3988.8926-.8906 0-.4918-.3993-.8906-.8926-.8906-.0154 0-.0297-.0008-.0449 0zM.25 8.0109c-.1394 0-.25.1214-.25.254v8.1777c0 .1325.1106.2539.25.2539h8.5215c.1394 0 .248-.1214.248-.254V8.2649c0-.1327-.1083-.2539-.248-.2539h-.2598c.011.0595.0176.121.0176.1836 0 .0605-.0054.1201-.0156.1777h.1445v7.963H.3613v-7.963h6.1485a1.0179 1.0179 0 0 1-.0157-.1777c0-.0628.0066-.1238.0176-.1836zm.2617.5117v7.664h7.9961v-7.664h-.0332a1.025 1.025 0 0 1-.4883.5703.8482.8482 0 0 1-.4746.1426.8483.8483 0 0 1-.4746-.1426 1.025 1.025 0 0 1-.4883-.5703zm21.5606.252c.0966.1084.1562.2266.1797.3555.0116.0615.0175.1992.0175.4101v1.664c-.2753-.2606-.6554-.3906-1.1386-.3906-.3662 0-.6896.1007-.9707.3028-.5946.4276-.8926 1.2249-.8926 2.3906 0 .3515.0469.67.1406.957.1347.41.3487.7335.6387.9707.3075.252.669.379 1.0879.379.495 0 .9034-.1574 1.2226-.4708v.373H24c-.1347-.1492-.2012-.4072-.2012-.7733v-6.168Zm-9.6328.2988c-.785 0-1.463.2873-2.0372.8613-.6209.621-.9316 1.4593-.9316 2.5137 0 .9402.253 1.7238.7598 2.3535.5447.6795 1.2746 1.0196 2.1914 1.0196.577 0 1.0987-.131 1.5644-.3946.2636-.1494.414-.22.4492-.211l-.7304-1.1952c-.3456.3807-.7404.5703-1.1856.5703-.249 0-.4834-.0782-.703-.2363-.4717-.3398-.7071-.9749-.7071-1.9063 0-.328.0322-.628.0996-.9004.205-.8318.6447-1.248 1.3183-1.248.4306 0 .7755.1641 1.0332.4922l.7872-1.1426c-.085-.009-.1964-.0508-.334-.127-.536-.2987-1.0617-.4492-1.5742-.4492zM.5605 9.175H2.625c-.164.164-.2461.4474-.246.8515v1.6133l1.2616-1.5957c.2578-.325.3867-.5674.3867-.7285 0-.0585-.0088-.1054-.0234-.1406h2.2012c-.167.0937-.375.2901-.627.5918-.0673.079-.1856.2247-.3554.4355L3.5703 12.259l1.9727 2.7148c.12.164.2725.3497.457.5547.0498.0527.1211.1144.2148.1875H3.957a.7156.7156 0 0 0 .0254-.1797c0-.1611-.1114-.3946-.334-.6992L2.379 13.1066v1.754c0 .407.082.6914.2461.8554H.5605c.1143-.1142.1866-.2442.2188-.3906.0175-.082.0273-.2355.0273-.461v-4.8379c0-.2255-.0098-.3789-.0273-.4609-.0322-.1464-.1045-.2764-.2188-.3906zm16.2032 1.6386c-.2373 0-.4561.0195-.6582.0605l-.5977.1504c-.2812.0703-.4717.1055-.5683.1055l.4355 1.0488c.41-.2167.8019-.3242 1.1738-.3242.4364 0 .6543.2511.6543.752-.2167-.0116-.3691-.0176-.457-.0176-.618 0-1.0987.083-1.4414.25-.5946.29-.8906.7384-.8906 1.3476 0 .2666.0469.506.1406.7168.1318.2959.3409.5244.6308.6856.2754.1522.5831.2276.92.2246.4745-.006.8623-.1632 1.164-.4707v.373h1.6387c-.0996-.1083-.1621-.2276-.1855-.3594-.0117-.0644-.0176-.2031-.0176-.414V12.794c0-.4305-.0587-.791-.1758-1.084-.2402-.5974-.8284-.8964-1.7656-.8964zm-10.211.0957h1.7266v4.0332c0 .211.0059.3497.0176.4141.0234.1318.086.251.1855.3594H6.5488c.0996-.1083.1602-.2276.1836-.3594.0117-.0644.0176-.2032.0176-.414V11.675c0-.2109-.0059-.3467-.0176-.4082-.0234-.1289-.083-.249-.1797-.3574zM21.623 11.929c.2373 0 .4532.082.6465.246v2.1934c-.2284.1845-.4668.2754-.7129.2754-.4715 0-.707-.4025-.707-1.211 0-1.0016.258-1.5038.7734-1.5038zm-4.793 1.6484c.123 0 .2403.009.3516.0293v.7617c-.1464.252-.38.377-.6992.377-.1728 0-.3154-.046-.4297-.1367-.126-.0996-.1894-.2315-.1894-.3985 0-.2226.1114-.3906.334-.502.1757-.0878.3867-.1308.6328-.1308z"/></symbol><symbol id="si-kick" viewBox="0 0 24 24"><path fill="#53FC19" d="M1.333 0h8v5.333H12V2.667h2.667V0h8v8H20v2.667h-2.667v2.666H20V16h2.667v8h-8v-2.667H12v-2.666H9.333V24h-8Z"/></symbol><symbol id="si-kickstarter" viewBox="0 0 24 24"><path fill="#05CE78" d="M7.168 0c-3.2 0-5.797 2.579-5.797 5.758v12.484C1.371 21.42 3.968 24 7.168 24c1.981 0 3.716-.978 4.768-2.479l.794.79c2.26 2.245 5.943 2.245 8.203 0a5.724 5.724 0 001.696-4.075 5.724 5.724 0 00-1.696-4.074l-2.182-2.168 2.182-2.156a5.724 5.724 0 001.696-4.074 5.724 5.724 0 00-1.696-4.074c-2.26-2.246-5.942-2.246-8.203 0l-.794.789A5.797 5.797 0 007.168 0Z"/></symbol><symbol id="si-kik" viewBox="0 0 24 24"><path fill="#82BC23" d="M11.482 16.752c-.01.688-.56 1.242-1.238 1.242-.689 0-1.23-.541-1.244-1.23h-.016v-6.243H9v-.029c0-.693.556-1.256 1.237-1.256s1.236.563 1.236 1.258v.045h.016v6.225h-.016l.009-.012zm11.137-4.889c.75 0 1.381.618 1.381 1.377 0 .76-.631 1.375-1.381 1.375-.766 0-1.395-.615-1.395-1.379 0-.766.615-1.381 1.379-1.381l.016.008zm-2.084 4.186c.121.195.193.432.193.686 0 .703-.553 1.26-1.244 1.26-.463 0-.869-.256-1.08-.631l-2.053-2.746-.631.586v1.635h-.014c-.039.652-.57 1.168-1.225 1.168-.674 0-1.221-.553-1.221-1.238v-.025h-.016v-9.45h.027v-.047c0-.69.551-1.253 1.23-1.253.674 0 1.225.562 1.225 1.253v.07h.016l.01 4.597 2.311-2.261c.229-.255.559-.405.928-.405.689 0 1.248.57 1.248 1.26 0 .346-.133.646-.344.871l.012.015-1.621 1.605 2.281 3.061-.016.016-.016-.027zm-13.246 0c.12.195.195.432.195.686 0 .703-.555 1.26-1.244 1.26-.466 0-.871-.256-1.081-.631l-2.054-2.746-.63.586v1.631H2.46c-.036.654-.57 1.17-1.221 1.17-.676 0-1.225-.555-1.225-1.238v-.027H0V7.29h.031c-.004-.015-.004-.029-.004-.044 0-.69.551-1.252 1.23-1.252.675 0 1.225.559 1.225 1.25v.07h.016l.01 4.6 2.311-2.261c.23-.255.562-.405.931-.405.687 0 1.245.57 1.245 1.26 0 .33-.131.646-.346.871l.016.015-1.627 1.605 2.271 3.061-.016.016-.004-.027z"/></symbol><symbol id="si-kimi" viewBox="0 0 24 24"><path fill="#000000" d="M21.765.351C22.998.351 24 1.353 24 2.586S22.998 4.82 21.765 4.82h-1.974c-.15 0-.26-.12-.26-.26V2.586A2.237 2.237 0 0 1 21.765.35M9.41 13.388l8.447-8.377c.16-.16.07-.471-.14-.471h-4.55s-.1.02-.14.06l-9.099 9.029c-.14.14-.35.02-.35-.21V4.81c0-.15-.1-.27-.221-.27H.22c-.12 0-.22.12-.22.27v18.57c0 .15.1.27.22.27h3.137c.12 0 .22-.12.22-.27v-3.79c0-.08.03-.16.08-.21l2.826-2.796c.07-.07.16-.08.241-.03l7.546 5.551a8.9 8.9 0 0 0 4.018 1.493c.12.01.23-.11.23-.27V19.76c0-.14-.08-.25-.19-.26a5.8 5.8 0 0 1-2.355-.942l-6.533-4.73c-.14-.09-.15-.32-.03-.441"/></symbol><symbol id="si-kingstontechnology" viewBox="0 0 24 24"><path fill="#000000" d="M14.123.0007c-.5442-.0038-1.0301.008-1.4389.0204C7.185.1697 4.2115 1.7057 4.2115 1.7057s-.2967.1988-.148.8428c0 0 .0993.7921.1983 1.139l.0494.0996c-.099.099-.4958.2973-.6445.4954-.3468.446-.0493 2.4772-.0493 2.4772.3468 2.1303.6938 2.5265.6938 2.5265s.4956.6436 1.1892 1.0895c.2973.1486.2477.4954.2477.4954L3.3203 24h16.3492l-3.4187-7.4808c.6936 0 2.1306.3464 2.9232-1.883.7432-2.1303 1.1397-5.3502 1.1893-6.2915.099-.9414-.0999-2.9233-.0503-3.4187 0-.1486.3473-.6442.3473-.9415.0496-.4459-.0006-.8418-.0996-1.585-.0496-.2972-.0983-.644-.1974-.9908-.0496-.2478-.0999-.3964-.298-.4955C17.91.1701 15.7555.0124 14.123.0007Zm-1.4389.4171c.545 0 5.1027-.0492 7.233.8922.1983.1486.0498.8915-.0493 1.2879-.0495.2972-.3967.3967-.3967.3967-.3468.099-.446.3464-.446.3464s.4458 4.3102.4954 4.4589c.0495.1981-.1485.1981-.5448.2477-.1982 0-2.4772.0493-2.4772.0493s-.4956-.0491-.446-.3464c0-.1981.0992-.595.1983-.595h.4461s.991.0497.6938-.0494l-1.0402-.2477s-.2483.0004-.3474.149c-.0495.1486-.297.9415-.297.9415s-.0002.0491.0493.0987c.0495.0495 2.5768 1.883 2.5768 1.883s-2.1311-.199-2.7752-.0503c-.644.1486-1.9813.8422-2.8235.9908-.8422.1487-3.9636.4955-4.1618.4955l-1.2386-5.35s-.1484-1.3375-1.5356-1.288c-1.0404.0495-1.189.2967-1.2386.3958-.099.1981 0 .3967 0 .3967l3.3693 5.7468s-2.2792-1.0896-3.171-2.3282c-.4954-.644-.9416-3.8645-.6444-4.4095.2973-.4954 2.1306-.8915 2.9233-.7925.3963.0496.7433.4452.9415.6929.0495.099.0985.0501.148.0996 0 0-.1982-1.2383-.9909-1.2879-1.1394-.099-2.3774.3464-2.3774.3464s-.0995-.0004-.149-.149c-.0496-.1982-.1984-1.2386-.1984-1.2386s.0495-.198.2477-.297c0 0 3.2209-1.4863 8.0265-1.4863zm.6435 1.4273c-.0704.003-.0987.0096-.0987.0096-2.0808.8423-3.765 2.675-3.765 2.5759.1981.0495.594 0 .594 0 1.8332-1.5854 3.4187-2.2295 3.4187-2.2295 1.3377 0 3.6165.7927 3.765.7432.0496 0 .0498-.2475-.0493-.297-.2477-.0496-.7433-.2973-1.6846-.4955-1.3748-.2973-1.9688-.316-2.1801-.3067Zm6.788 1.3972c.1981.0496.198.049.297.148.1486.0992.0991.3966 0 .4461-.099.0991-.1484-.0988-.7925-.0493 0 0 .2973-.5943.4955-.5448zm-4.8711.1016c-.3623-.0186-.8641.0469-1.4215.1955-.7431.1982-2.2294.9415-2.2294.9415.5945.2477 1.5861.3468 2.5275.4954 1.0404.0991 2.179-.446 2.179-.446-.0495-.1487-.3963-1.0408-.743-1.14-.0868-.0247-.1919-.0402-.3126-.0464zm.7867 7.4015c.7242.0174 1.5759.1012 2.449.3241 0 0 .4957.3964.4461.7432 0 0-3.567.198-4.9543-.9416 0 0 .852-.1548 2.0592-.1257zm-9.7383.176 1.5356 1.0403 2.5265 11.5429H3.9145Zm11.8032 1.4554a8.479 8.479 0 0 1 .7315.031s.2973.2475-.4954 1.0401c-.9909.9414-2.7256 1.6843-4.2615 1.288 0 0 .5664-2.351 4.0254-2.3591zm-8.0875 4.1918s3.1216 1.9323 3.617 2.6755l.3464 4.3108h-2.2787Zm5.3007 3.9634s1.8335 1.6852 2.3785 3.0229h-3.0713z"/></symbol><symbol id="si-kinopoisk" viewBox="0 0 24 24"><path fill="#FF5500" d="M12.049 0C5.45 0 .104 5.373.104 12S5.45 24 12.049 24c3.928 0 7.414-1.904 9.592-4.844l-9.803-5.174 6.256 6.418h-3.559l-4.373-6.086V20.4h-2.89V3.6h2.89v6.095L14.535 3.6h3.559l-6.422 6.627 9.98-5.368C19.476 1.911 15.984 0 12.05 0zm10.924 7.133-9.994 4.027 10.917-.713a11.963 11.963 0 0 0-.923-3.314zm-10.065 5.68 10.065 4.054c.458-1.036.774-2.149.923-3.314l-10.988-.74z"/></symbol><symbol id="si-kinsta" viewBox="0 0 24 24"><path fill="#5333ED" d="M10.2228 10.4037a1.9856 1.9856 0 0 0-.6276-.4289 1.9113 1.9113 0 0 0-.7624-.1548 1.9704 1.9704 0 0 0-.72.1348 1.9909 1.9909 0 0 0-.6166.3812l-.3169-.3678a.1816.1816 0 0 0-.1358-.0624h-.01a.1796.1796 0 0 0-.1796.18v4.0695a.1806.1806 0 0 0 .1796.181h.7662a.1806.1806 0 0 0 .1802-.181v-2.3478a.831.831 0 0 1 .0658-.3288.843.843 0 0 1 .181-.2706.8525.8525 0 0 1 .6066-.2478.8134.8134 0 0 1 .3255.0658.8515.8515 0 0 1 .4493.4522.8406.8406 0 0 1 .0658.3288v2.3511a.181.181 0 0 0 .1802.181h.7652a.1806.1806 0 0 0 .1797-.181v-2.3506a1.9537 1.9537 0 0 0-.1544-.772 2.0218 2.0218 0 0 0-.4217-.6318zm8.692-.4865h-3.0191a.1801.1801 0 0 0-.1792.1806v.7624a.1796.1796 0 0 0 .1792.1801h.1906a.1806.1806 0 0 1 .1801.1806v1.135a1.9504 1.9504 0 0 0 .154.7696 2.009 2.009 0 0 0 1.055 1.0574 1.906 1.906 0 0 0 .767.1554h.6744a.1806.1806 0 0 0 .18-.1811v-.7624a.1801.1801 0 0 0-.18-.1806h-.6762a.8396.8396 0 0 1-.3336-.0681.8749.8749 0 0 1-.2716-.1835.8477.8477 0 0 1-.1815-.2711.8387.8387 0 0 1-.0653-.3336v-1.135a.1806.1806 0 0 1 .1796-.1806h1.348a.1801.1801 0 0 0 .1802-.1801v-.7625a.1806.1806 0 0 0-.1816-.1825zm4.9081-.082h-.008a.1787.1787 0 0 0-.1396.0662l-.2645.3169a.1792.1792 0 0 1-.2535.0229 2.9934 2.9934 0 0 0-.202-.1568 2.5312 2.5312 0 0 0-.3774-.2235 2.2239 2.2239 0 0 0-.4079-.1491 1.7264 1.7264 0 0 0-.425-.0538 2.2506 2.2506 0 0 0-.8768.172 2.1862 2.1862 0 0 0-.719.4803 2.281 2.281 0 0 0-.4847.7424 2.4826 2.4826 0 0 0-.1768.9497 2.5998 2.5998 0 0 0 .1768.9888 2.1538 2.1538 0 0 0 .4846.7343 2.0795 2.0795 0 0 0 .7176.457 2.426 2.426 0 0 0 .8768.1577 1.684 1.684 0 0 0 .4227-.0543 2.3054 2.3054 0 0 0 .4064-.1468 2.4864 2.4864 0 0 0 .3774-.2197 3.3448 3.3448 0 0 0 .1959-.1472.1787.1787 0 0 1 .2583.0348l.2697.375a.1796.1796 0 0 0 .326-.1058v-4.0608a.1801.1801 0 0 0-.1788-.1806zm-1.0426 2.616a1.2947 1.2947 0 0 1-.2411.3846 1.2051 1.2051 0 0 1-.357.2687.9768.9768 0 0 1-.4354.101 1.2037 1.2037 0 0 1-.4346-.0785.9768.9768 0 0 1-.3545-.2321 1.086 1.086 0 0 1-.2383-.3779 1.5753 1.5753 0 0 1 0-1.0307 1.1022 1.1022 0 0 1 .2383-.3778.9864.9864 0 0 1 .3545-.2316 1.2075 1.2075 0 0 1 .4346-.0786.9711.9711 0 0 1 .4355.101 1.185 1.185 0 0 1 .3569.2687 1.2961 1.2961 0 0 1 .2411.3846 1.1913 1.1913 0 0 1 0 .8996zM.9561 9.9091H.1808a.1801.1801 0 0 0-.1806.18v4.0695a.181.181 0 0 0 .1806.181h.7738a.1806.1806 0 0 0 .1802-.181v-4.0694A.1801.1801 0 0 0 .955 9.909zm3.1688.3068a.181.181 0 0 0-.1363-.2987h-.8692a.1787.1787 0 0 0-.1362.0634L1.2367 12.011a.1796.1796 0 0 0 0 .2382l1.7465 2.03a.1787.1787 0 0 0 .1362.0629h.8682a.181.181 0 0 0 .1363-.2993l-1.551-1.794a.1806.1806 0 0 1 0-.2383zm1.6873-.3073h-.01a.1792.1792 0 0 0-.1363.0629l-.0362.0424-.72.8343a.1787.1787 0 0 0-.0438.1182v3.1927a.1801.1801 0 0 0 .1797.1805h.7652a.1806.1806 0 0 0 .1797-.1805v-4.07a.1806.1806 0 0 0-.1797-.1805Zm9.2043 2.0728a1.3819 1.3819 0 0 0-.4455-.2711 1.5248 1.5248 0 0 0-.5442-.0953H12.854a.2664.2664 0 0 1-.1982-.0848.283.283 0 0 1-.0824-.205.282.282 0 0 1 .2806-.281h2.1015a.1801.1801 0 0 0 .1796-.1802v-.7662a.1801.1801 0 0 0-.1796-.1806h-2.102a1.3819 1.3819 0 0 0-.5489.1096 1.391 1.391 0 0 0-.7438.7462 1.4367 1.4367 0 0 0 0 1.1007 1.4167 1.4167 0 0 0 .7438.753 1.3571 1.3571 0 0 0 .549.1114h1.2093a.2411.2411 0 0 1 .2416.2159.2383.2383 0 0 1-.2382.2597h-2.436a.1796.1796 0 0 0-.1791.1801v.7624a.1796.1796 0 0 0 .1792.1801h2.394a1.3905 1.3905 0 0 0 .9897-.4112 1.4624 1.4624 0 0 0 .3011-.447 1.3643 1.3643 0 0 0 .1115-.548 1.2666 1.2666 0 0 0-.1115-.5332 1.3009 1.3009 0 0 0-.2997-.415z"/></symbol><symbol id="si-kirby" viewBox="0 0 24 24"><path fill="#000000" d="M16.571 12l-2.857 1.48v.234h2.857V16H7.43v-2.286h2.857v-.25L7.429 12V9.143L12 11.598l4.571-2.455M12 0l10.286 5.999V18L12 24 1.714 18.001V6zM2.857 6.682v10.636L12 22.651l9.143-5.333V6.682L12 1.349Z"/></symbol><symbol id="si-kit" viewBox="0 0 24 24"><path fill="#000000" d="m3.5 11.633-2.434 2.408V8.687a.53.53 0 0 0-.533-.527.53.53 0 0 0-.533.527v6.624a.528.528 0 0 0 .532.526.533.533 0 0 0 .377-.153l2.974-2.939 2.974 2.94a.535.535 0 0 0 .754 0 .522.522 0 0 0 0-.746l-2.974-2.938L7.61 9.06a.522.522 0 0 0 0-.745.538.538 0 0 0-.753 0l-3.344 3.307c-.003 0-.005.003-.007.005l-.007.006v-.001zm8.826 4.206a.53.53 0 0 1-.533-.526V8.688a.53.53 0 0 1 .533-.528.53.53 0 0 1 .533.528v6.624a.53.53 0 0 1-.533.526v.001zm7.257-6.624v6.098c0 .29.238.526.532.526a.53.53 0 0 0 .533-.526V9.215h2.818A.53.53 0 0 0 24 8.688a.53.53 0 0 0-.533-.527h-6.702a.53.53 0 0 0-.533.527.53.53 0 0 0 .533.527h2.819-.001z"/></symbol><symbol id="si-kitsu" viewBox="0 0 24 24"><path fill="#FD755C" d="M1.429 5.441a12.478 12.478 0 0 0 1.916 2.056c.011.011.022.011.022.022.452.387 1.313.947 1.937 1.173 0 0 3.886 1.496 4.091 1.582a1.4 1.4 0 0 0 .237.075.694.694 0 0 0 .808-.549c.011-.065.022-.172.022-.248V5.161c.011-.667-.205-1.679-.398-2.239 0-.011-.011-.022-.011-.032A11.979 11.979 0 0 0 8.824.36L8.781.285a.697.697 0 0 0-.958-.162c-.054.032-.086.075-.129.119L7.608.36a4.743 4.743 0 0 0-.786 3.412 8.212 8.212 0 0 0-.775.463c-.043.032-.42.291-.71.56A4.803 4.803 0 0 0 1.87 4.3c-.043.011-.097.021-.14.032-.054.022-.107.043-.151.076a.702.702 0 0 0-.193.958l.043.075zM8.222 1.07c.366.614.678 1.249.925 1.917-.495.086-.98.215-1.453.388a3.918 3.918 0 0 1 .528-2.305zM4.658 5.463a7.467 7.467 0 0 0-.893 1.216 11.68 11.68 0 0 1-1.453-1.55 3.825 3.825 0 0 1 2.346.334zm13.048-.302a7.673 7.673 0 0 0-2.347-.474 7.583 7.583 0 0 0-3.811.818l-.215.108v3.918c0 .054 0 .258-.032.431a1.535 1.535 0 0 1-.646.98 1.545 1.545 0 0 1-1.152.247 2.618 2.618 0 0 1-.409-.118 747.6 747.6 0 0 1-3.402-1.313 8.9 8.9 0 0 0-.323-.129 30.597 30.597 0 0 0-3.822 3.832l-.075.086a.698.698 0 0 0 .538 1.098.676.676 0 0 0 .42-.118c.011-.011.022-.022.043-.032 1.313-.947 2.756-1.712 4.284-2.325a.7.7 0 0 1 .818.13.704.704 0 0 1 .054.915l-.237.388a20.277 20.277 0 0 0-1.97 4.306l-.032.129a.646.646 0 0 0 .108.538.713.713 0 0 0 .549.301.657.657 0 0 0 .42-.118c.054-.043.108-.086.151-.14l.043-.065a18.95 18.95 0 0 1 1.765-2.153 20.156 20.156 0 0 1 10.797-6.018c.032-.011.065-.011.097-.011.237.011.42.215.409.452a.424.424 0 0 1-.344.398c-3.908.829-10.948 5.469-8.483 12.208.043.108.075.172.129.269a.71.71 0 0 0 .538.301.742.742 0 0 0 .657-.398c.398-.754 1.152-1.593 3.326-2.497 6.061-2.508 7.062-6.093 7.17-8.364v-.129a7.716 7.716 0 0 0-5.016-7.451zm-6.083 17.762c-.56-1.669-.506-3.283.151-4.823 1.26 2.035 3.456 2.207 3.456 2.207-2.25.937-3.133 1.863-3.607 2.616z"/></symbol><symbol id="si-kiwix" viewBox="0 0 24 24"><path fill="#000000" d="M23.968 15.033c-.185-.811-1.527-3.15-4.27-5.224a27.047 27.047 0 0 0-1.33-.95c.548-2.346-2.303-5.177-5.084-3.844C11.287 3.136 9.06 2.37 7.012 2.401c-5.422.076-9.605 5.725-5.106 11.117l.01.009c.068.082.14.165.211.247.292.35.486.66.65 1.206l1.343 4.397h-.475a.794.794 0 0 0-.794.794h1.801L7.68 21.6a.79.79 0 0 0-.377-1.054l-.793-.374H8.79a.794.794 0 0 0-.793-.794H5.929a.822.822 0 0 1-.786-.581L4.08 15.305c-.266-.918.343-1.517.915-1.589.522-.064.785.272 1.03 1.088l.945 3.098h-.475a.794.794 0 0 0-.793.793h1.8l3.027 1.431a.79.79 0 0 0-.376-1.054l-.794-.375h1.674a4 4 0 0 0 6.278.805 4 4 0 0 0 0-5.654 4 4 0 0 0-6.632 4.056H8.784a.822.822 0 0 1-.787-.582l-1.569-5.157.268-.142c3.724-1.563 7.707 1.228 10.479-1.454l.018-.017c.343-.312.686-.631 1.7.004 1.092.684 3.501 2.47 4.593 5.522.002 0 .665-.236.482-1.045zm-7.662-6.764a.769.769 0 1 0-1.275.595 1.2 1.2 0 1 1 1.275-.595z"/></symbol><symbol id="si-klarna" viewBox="0 0 24 24"><path fill="#FFB3C7" d="M4.592 2v20H0V2h4.592zm11.46 0c0 4.194-1.583 8.105-4.415 11.068l-.278.283L17.702 22h-5.668l-6.893-9.4 1.779-1.332c2.858-2.14 4.535-5.378 4.637-8.924L11.562 2h4.49zM21.5 17a2.5 2.5 0 110 5 2.5 2.5 0 010-5z"/></symbol><symbol id="si-kleinanzeigen" viewBox="0 0 24 24"><path fill="#1D4B00" d="M17.064 24c-3.234 0-4.816-2.245-5.137-2.71-.955.935-2.396 2.71-4.991 2.71-2.998 0-5.524-2.254-5.524-5.908V5.907C1.412 2.245 3.942 0 6.936 0c2.993 0 5.524 2.385 5.524 5.852a5.512 5.512 0 0 1 1.842-.314c3.083 0 5.524 2.515 5.524 5.538 0 .848-.161 1.602-.513 2.324a5.539 5.539 0 0 1 3.275 5.062c0 3.053-2.478 5.538-5.524 5.538zm-3.802-4.048c.795 1.383 2.132 2.202 3.802 2.202a3.692 3.692 0 0 0 3.683-3.692 3.689 3.689 0 0 0-2.518-3.505l-4.967 4.995zM6.936 1.846c-1.832 0-3.683 1.256-3.683 4.061v12.185c0 2.806 1.85 4.062 3.683 4.062 1.456 0 2.26-.736 3.557-2.037l.575-.576c-.297-.886-.45-1.869-.45-2.926V5.908c0-2.806-1.849-4.062-3.682-4.062zm5.524 6.031v8.738c0 .495.042.966.12 1.409l4.003-4.013c1.163-1.165 1.402-2.016 1.402-2.934 0-1.962-1.573-3.692-3.683-3.692-.657 0-1.285.169-1.842.493z"/></symbol><symbol id="si-klook" viewBox="0 0 24 24"><path fill="#FF5722" d="M4.8 0A4.79 4.79 0 0 0 0 4.8v14.4C0 21.86 2.14 24 4.8 24h14.4c2.66 0 4.8-2.14 4.8-4.8V4.8C24 2.14 21.86 0 19.2 0H4.8zM12 3.449v.001c4.242 0 7.833 1.904 7.833 6.17 0 2.932-3.86 7.815-6.164 10.164-.99 1.008-2.32 1.036-3.338 0-2.303-2.349-6.164-7.232-6.164-10.164 0-4.162 3.476-6.171 7.833-6.171zm3.54 2.155l-5.05 4.96 5.05 4.956a1.84 1.84 0 0 0 0-2.634v-.001l-2.366-2.323 2.366-2.323a1.84 1.84 0 0 0 0-2.635zm-7.349.144v9.772a1.86 1.86 0 0 0 1.868-1.852V7.602a1.86 1.86 0 0 0-1.866-1.854h-.002z"/></symbol><symbol id="si-knime" viewBox="0 0 24 24"><path fill="#FDD800" d="m10.445 21.393 11.54-.775.451.775zM7.56 11.113l-5.092 10.28h-.904Zm10.427 2.652-6.43-9.505.452-.775zm2.57 5.216.627.896-10.652.707zM4.655 20.976l-1.143.09 4.709-9.488Zm6.173-14.667.476-.998 5.984 8.782zm8.272 11.055.847 1.015-8.685 1.413zM6.76 20.532l-1.32.224 3.11-8.162Zm3.406-12.189.472-1.207 5.558 6.732Zm7.403 7.54 1.13 1.016-6.378 1.98zm-8.759 4.08-1.46.448 1.46-6.44zm.8-9.539.363-1.48 4.868 4.477zm-.348 9.402v-7.851l.244-1.085 6.864 3.926.834.758L10.34 19.5zM12.01 1.694 0 22.306h24z"/></symbol><symbol id="si-knip" viewBox="0 0 24 24"><path fill="#F56E0F" d="M4.5176 0C2.015 0 0 2.0149 0 4.5176v14.9648C0 21.985 2.0149 24 4.5176 24h14.9648C21.985 24 24 21.9851 24 19.4824V4.5176C24 2.015 21.9851 0 19.4824 0Zm12.9659 2.5467a3.4 3.4 0 0 1 .247.008l-5.5895 9.7468a1.935 1.935 0 0 1-.7084.9326c-.3034.1993-.468.1755-.7691.2833a1.08 1.08 0 0 0-.6235.5365l-.1038.3309c-.0933.2952-.2401.5905-.0203.8785.145.1894.4199.2598.7835.2474.3156.0641.6143.1936.8767.3801.2693.1999.4987.4485.6764.7328.5186 1.0066.5533 2.1165-.1739 3.3946-.8005 1.5062-1.9142 2.0284-3.194 2.0094-.8294-.1115-1.3981-.4927-1.7493-1.0958-.5398-.9266-.5312-1.9266-.1804-2.9074.26-.6607.5834-1.2947.9652-1.8933l.9865-2.4726.0964.091 5.1732-9.1073c.9693-1.4047 2.0802-2.0904 3.3073-2.0955M4.7507 7.4368c1.4697-.0032 2.4187.5759 3.0384 1.5236.1578.293.2594.613.2999.9434a2.31 2.31 0 0 1-.096.957c-.191.309-.2655.5828-.1715.8037.142.3332.4715.3512.7743.4158l.339.0729c.131.0057.2622-.012.3871-.0523l-.6167 1.1046-.0216-.0013.0058.0278-.0513.0906-2.559-.3521c-.709.0374-1.42.0057-2.1229-.0947-1.0254-.1774-1.9032-.6698-2.4392-1.59-.349-.5992-.403-1.2871-.0853-2.0598.615-1.1226 1.6225-1.8272 3.319-1.7892M4.7198 8.544a3.2 3.2 0 0 0-1.74.5275c-1.0344.7359-.6694 1.8267.2983 2.4018a2.557 2.557 0 0 0 1.4755.34 3.62 3.62 0 0 0 1.1605-.2512 1.82 1.82 0 0 0 .9709-.8359l-.0008-.0012c.3139-.6248.0415-1.2115-.454-1.6336-.3968-.339-.9306-.5205-1.5866-.5457a3 3 0 0 0-.1238-.0017m18.0086 2.5915c-.5746 1.1979-1.756 1.9016-3.5693 2.0616l-6.9009.005 1.1844-2.0227zm-11.7129.5823a.535.535 0 0 0-.2764.0725.536.536 0 0 0-.1338.8185.5363.5363 0 0 0 .8657-.6243.535.535 0 0 0-.4555-.2668zm-.7458 4.8196a1.822 1.822 0 0 0-1.2068.4308 3.59 3.59 0 0 0-.7912.8854 2.547 2.547 0 0 0-.433 1.45c.0229 1.1254.7918 1.9811 1.9428 1.4458a3.21 3.21 0 0 0 1.3815-1.354c.298-.5895.4042-1.142.3043-1.6558-.1227-.6392-.4978-1.1643-1.196-1.1996z"/></symbol><symbol id="si-knowledgebase" viewBox="0 0 24 24"><path fill="#9146FF" d="M20.1 5.52V1.5h-.18c-3.36.15-6.15 2.31-7.83 4.02l-.09.09-.09-.09C10.2 3.81 7.44 1.65 4.08 1.5H3.9v4.02H0v6.93c0 1.68.06 3.36.18 4.74a5.57 5.57 0 005.19 5.1c2.13.12 4.38.21 6.63.21s4.5-.09 6.63-.24a5.57 5.57 0 005.19-5.1c.12-1.38.18-3.06.18-4.74v-6.9zm0 6.93c0 1.59-.06 3.15-.18 4.41-.09.81-.75 1.47-1.56 1.5a90 90 0 01-12.72 0c-.81-.03-1.5-.69-1.56-1.5-.12-1.26-.18-2.85-.18-4.41V5.52c2.82.12 5.64 3.15 6.48 4.32L12 12.09l1.62-2.25c.84-1.2 3.66-4.2 6.48-4.32z"/></symbol><symbol id="si-kofi" viewBox="0 0 24 24"><path fill="#FF6433" d="M11.351 2.715c-2.7 0-4.986.025-6.83.26C2.078 3.285 0 5.154 0 8.61c0 3.506.182 6.13 1.585 8.493 1.584 2.701 4.233 4.182 7.662 4.182h.83c4.209 0 6.494-2.234 7.637-4a9.5 9.5 0 0 0 1.091-2.338C21.792 14.688 24 12.22 24 9.208v-.415c0-3.247-2.13-5.507-5.792-5.87-1.558-.156-2.65-.208-6.857-.208m0 1.947c4.208 0 5.09.052 6.571.182 2.624.311 4.13 1.584 4.13 4v.39c0 2.156-1.792 3.844-3.87 3.844h-.935l-.156.649c-.208 1.013-.597 1.818-1.039 2.546-.909 1.428-2.545 3.064-5.922 3.064h-.805c-2.571 0-4.831-.883-6.078-3.195-1.09-2-1.298-4.155-1.298-7.506 0-2.181.857-3.402 3.012-3.714 1.533-.233 3.559-.26 6.39-.26m6.547 2.287c-.416 0-.65.234-.65.546v2.935c0 .311.234.545.65.545 1.324 0 2.051-.754 2.051-2s-.727-2.026-2.052-2.026m-10.39.182c-1.818 0-3.013 1.48-3.013 3.142 0 1.533.858 2.857 1.949 3.897.727.701 1.87 1.429 2.649 1.896a1.47 1.47 0 0 0 1.507 0c.78-.467 1.922-1.195 2.623-1.896 1.117-1.039 1.974-2.364 1.974-3.897 0-1.662-1.247-3.142-3.039-3.142-1.065 0-1.792.545-2.338 1.298-.493-.753-1.246-1.298-2.312-1.298"/></symbol><symbol id="si-koa" viewBox="0 0 24 24"><path fill="#33333D" d="M0 5.587v12.757h1.19v-4.099l.46-.527 3.147 4.626h1.19L2.33 12.97l2.773-3.13h-.17L1.19 14.058v-8.47zm11.039 4.185c-1.19 0-2.177.391-2.96 1.173-.77.783-1.156 1.883-1.156 3.3 0 1.418.374 2.467 1.122 3.147.749.68 1.718 1.02 2.909 1.02 1.202 0 2.188-.39 2.96-1.173.782-.783 1.173-1.883 1.173-3.3 0-1.417-.374-2.466-1.122-3.147-.749-.68-1.724-1.02-2.926-1.02zm8.896 0c-1.043 0-2.07.232-3.079.697l.068.12c.261-.148.67-.296 1.225-.443.567-.159 1.06-.238 1.48-.238.42 0 .76.057 1.02.17.26.102.442.227.545.374.102.148.18.3.238.46.068.147.09.272.068.374.007.97 0 1.988 0 2.976a9.269 9.269 0 00-.834-.034c-.306 0-.64.017-1.003.051-1.463.091-2.41.34-2.841.749-.215.204-.346.391-.391.561-.046.17-.068.329-.068.476 0 .136.011.273.034.409.193 1.292 1.003 1.939 2.432 1.939 1.225 0 2.115-.505 2.67-1.514v.357c0 .181.131.397.392.646.283.295.81.443 1.582.443H24v-.136h-.527l-.187-.034c-.136-.012-.272-.103-.409-.273-.124-.181-.187-.436-.187-.765v-5.698c0-.363-.147-.709-.442-1.038-.498-.557-1.564-.624-2.313-.63zm-8.862.136c.862 0 1.553.329 2.075.986.522.658.783 1.673.783 3.045 0 1.36-.284 2.427-.85 3.198-.568.76-1.282 1.14-2.144 1.14-.862 0-1.554-.33-2.075-.987-.522-.658-.783-1.667-.783-3.028 0-1.372.284-2.438.85-3.198.568-.77 1.282-1.156 2.144-1.156zm9.491 4.456c.318 0 .63.012.936.034v2.058c-.034.386-.295.789-.783 1.208a2.416 2.416 0 01-1.616.613c-.907 0-1.411-.601-1.513-1.803a3.155 3.155 0 01-.02-.307c0-.499.131-.89.392-1.173.26-.284.822-.477 1.684-.579.314-.038.64-.039.92-.05z"/></symbol><symbol id="si-koc" viewBox="0 0 24 24"><path fill="#F9423A" d="M23.72 9.887c-1.313-3.731-5.036-3.932-5.414-3.943-1.667-.036-3.511.541-4.917 1.906-.568.506-.97 1.095-1.395 1.719-.426-.636-.828-1.213-1.395-1.719C9.204 6.485 7.36 5.908 5.694 5.944c-.39.011-4.114.211-5.414 3.943-.46 1.33-.354 3.06.331 4.33.686 1.46 2.329 2.66 4.066 2.543 1.253-.035 2.624-.824 3.132-2.107.426-1.141.296-2.377-.685-3.354.024.247.035.6-.213.918-.39.541-1.016.683-1.666.447-.568-.259-.78-.67-.721-1.212.035-.46.413-.812.803-.989.757-.33 1.454-.164 2.14.483 1.123 1.247 1.253 3.13 1.785 4.567.378 1.177.969 2.2 2.28 2.495.154.035.32.059.485.047.166 0 .331-.012.485-.047 1.312-.294 1.903-1.318 2.281-2.495.532-1.436.662-3.32 1.773-4.567.686-.647 1.383-.812 2.14-.483.39.177.756.53.803.989.06.541-.153.953-.72 1.212-.65.236-1.265.094-1.667-.447-.248-.318-.237-.671-.213-.918-.981.977-1.111 2.213-.686 3.354.509 1.283 1.88 2.072 3.133 2.107 1.725.118 3.368-1.07 4.054-2.542.674-1.271.78-3.001.32-4.331zm-2.637 4.449c-.792.694-1.844.894-2.695.506-.508-.248-.886-.683-1.004-1.154.72.718 2.02 1.071 3.203-.176 0 0 1.11-1.024.484-2.966-.319-.965-1.489-1.754-2.47-1.86-1.466-.235-2.837.259-3.794 1.589-1.123 1.73-1.265 3.66-2.092 5.59a.732.732 0 0 1-.721.448.732.732 0 0 1-.721-.447c-.816-1.919-.946-3.837-2.08-5.58-.958-1.33-2.341-1.824-3.795-1.588-.98.094-2.163.894-2.47 1.86-.627 1.941.484 2.965.484 2.965 1.194 1.248 2.483.883 3.204.177-.119.47-.485.906-1.005 1.153-.851.389-1.915.177-2.707-.506-1.17-1.153-1.347-2.636-.886-4.001.555-1.66 2.246-2.484 3.581-2.59 1.584-.141 3.77.824 4.645 2.484.201.376.627 1.365.627 1.365h2.222s.426-.989.626-1.365c.875-1.648 3.062-2.613 4.646-2.484 1.335.106 3.026.942 3.581 2.59.485 1.353.307 2.836-.863 3.99z"/></symbol><symbol id="si-kodak" viewBox="0 0 24 24"><path fill="#ED0000" d="M20.496 9.076a.735.735 0 0 0 .84-.844c0-.51-.255-.771-.84-.771s-.835.263-.835.77a.733.733 0 0 0 .835.845zm.128 2.126h-.82v1.538h.82c.448 0 .634-.307.634-.81 0-.494-.186-.728-.634-.728zM2.406 12.848a1.448 1.448 0 0 1-.346-.753 1.058 1.058 0 0 1 .173-.603l6.739-9.138a.447.447 0 0 0 .077-.282.51.51 0 0 0-.52-.51H1.54A1.56 1.56 0 0 0 0 3.106v17.805a1.53 1.53 0 0 0 1.536 1.526h6.993a.513.513 0 0 0 .52-.505v-.005a.63.63 0 0 0-.096-.32l-6.547-8.759zM20.03 16.01h.928l-.464-1.154-.464 1.154zm2.468-14.446h-6.782a2.223 2.223 0 0 0-1.522.716L2.905 11.887c-.1.106-.1.271 0 .377l11.59 9.74c.346.279.776.432 1.22.434h6.763A1.517 1.517 0 0 0 24 20.926V3.11a1.542 1.542 0 0 0-1.502-1.546zM19.25 3.306h.643v1.166l1.157-1.166h.896l-1.295 1.272 1.345 1.268h-.918l-1.184-1.162v1.162h-.644v-2.54zm1.332 3.621c.945 0 1.47.437 1.47 1.299 0 .846-.51 1.367-1.47 1.367s-1.47-.521-1.47-1.367c0-.863.527-1.299 1.472-1.299h-.002zm1.392 5c0 .824-.367 1.317-1.272 1.317h-1.447v-2.565h1.447c.905 0 1.272.425 1.272 1.248zm-.896 8.703-1.184-1.163v1.163h-.643v-2.54h.643v1.166l1.158-1.166h.855l-1.252 1.272L22 20.63h-.922zm.325-3.692-.18-.449h-1.286l-.176.449h-.685l1.1-2.586h.848l1.096 2.586h-.717z"/></symbol><symbol id="si-kodi" viewBox="0 0 24 24"><path fill="#17B2E7" d="M12.03.047c-.226 0-.452.107-.669.324-.922.922-1.842 1.845-2.763 2.768-.233.233-.455.48-.703.695-.31.267-.405.583-.399.988.02 1.399.008 2.799.008 4.198 0 1.453-.002 2.907 0 4.36 0 .11.002.223.03.327.087.337.303.393.546.15 1.31-1.31 2.618-2.622 3.928-3.933l4.449-4.453c.43-.431.43-.905 0-1.336L12.697.37c-.216-.217-.442-.324-.668-.324zm7.224 7.23c-.223 0-.445.104-.65.309L14.82 11.37c-.428.429-.427.895 0 1.322l3.76 3.766c.44.44.908.44 1.346.002 1.215-1.216 2.427-2.433 3.644-3.647.182-.18.353-.364.43-.615v-.33c-.077-.251-.246-.436-.428-.617-1.224-1.22-2.443-2.445-3.666-3.668-.205-.205-.429-.307-.652-.307zM4.18 7.611c-.086.014-.145.094-.207.157L.209 11.572c-.28.284-.278.677.004.96l2.043 2.046c.59.59 1.177 1.182 1.767 1.772.169.168.33.139.416-.084.044-.114.062-.242.063-.364.004-1.283.004-2.567.004-3.851h-.002V8.184c0-.085-.01-.169-.022-.252-.019-.135-.072-.258-.207-.309a.186.186 0 0 0-.095-.012zm7.908 6.838c-.224 0-.447.106-.656.315L7.66 18.537c-.433.434-.433.899.002 1.334 1.215 1.216 2.43 2.43 3.643 3.649.18.18.361.354.611.433h.33c.244-.069.423-.226.598-.402 1.222-1.23 2.45-2.453 3.676-3.68.43-.43.427-.905-.004-1.338l-3.772-3.773c-.208-.208-.432-.311-.656-.31z"/></symbol><symbol id="si-kodular" viewBox="0 0 24 24"><path fill="#4527A0" d="M3.612 0a5.6 5.6 0 0 1 5.6 5.6v4.934l2.44-2.44a4.48 4.48 0 0 1 6.336 0l-6.095 6.096 8.495 8.495a4.48 4.48 0 0 1-6.336 0l-4.84-4.84V24a5.6 5.6 0 0 1-5.6-5.6Z"/></symbol><symbol id="si-koenigsegg" viewBox="0 0 24 24"><path fill="#000000" d="M16.6396 2.2779A27.1802 27.1802 0 0 0 11.997 0a27.1795 27.1795 0 0 0-4.6366 2.2779C4.8482 3.8075 3.357 5.2707 3.357 5.2707a32.0542 32.0542 0 0 0 1.0293 7.2991C5.214 15.7228 7.3082 20.6134 11.997 24c4.6887-3.3866 6.7837-8.2771 7.6105-11.4302a32.058 32.058 0 0 0 1.0354-7.2991s-1.4911-1.4632-4.0033-2.9928zm2.7246 10.2285a21.9594 21.9594 0 0 1-2.33 5.5616 19.0142 19.0142 0 0 1-5.0372 5.6214 18.9938 18.9938 0 0 1-5.0372-5.6214 21.9617 21.9617 0 0 1-2.3292-5.5616 32.5174 32.5174 0 0 1-1.0271-7.1299 24.9492 24.9492 0 0 1 3.883-2.8848A27.3813 27.3813 0 0 1 11.997.2653a27.3813 27.3813 0 0 1 4.5104 2.225 24.9477 24.9477 0 0 1 3.8823 2.8862 32.6127 32.6127 0 0 1-1.0255 7.1299zm-2.9226-6.3636c-2.1796-.8207-3.682-1.2394-4.4469-1.2394-.764 0-2.2658.424-4.4461 1.2394-1.2546.4731-3.0579 1.241-3.0579 1.241a38.8137 38.8137 0 0 0 .8934 4.9246c.7497 2.8567 2.5068 7.1873 6.6106 10.4053 4.1068-3.2173 5.8617-7.5478 6.6107-10.4053a38.822 38.822 0 0 0 .894-4.9254s-1.8032-.7655-3.0578-1.2394zm1.841 6.081c-.7602 2.8983-2.4683 6.9733-6.2864 10.0621-3.8241-3.0888-5.523-7.1646-6.2864-10.0622a37.773 37.773 0 0 1-.8495-4.6313 91.5984 91.5984 0 0 1 2.8122-1.136c2.6678-1.0058 3.8242-1.219 4.3283-1.219.504 0 1.6611.2116 4.3275 1.2183a93.1855 93.1855 0 0 1 2.8129 1.136 37.7783 37.7783 0 0 1-.86 4.6312h.0014zm-3.32 6.2425c.2192-.3136.4247-.6295.619-.9455l-1.4163.5646zm1.3256-2.1985a19.7708 19.7708 0 0 0 .6447-1.3944l-2.021.8313zm1.0157-2.3467c.1716-.4776.3175-.9363.4422-1.3724l-2.2348.7633 1.7926.6084zm.6923-2.3489c.1119-.47.2116-.9401.2978-1.3928l-2.4079.7436zM16.261 8.5318l2.2166.6205c.081-.489.1414-.9326.1913-1.2939l-2.408.6726Zm-1.2825-2.1124c-1.8706-.6476-2.6626-.758-2.9823-.758-.3204 0-1.1117.1104-2.983.758l2.983.9168zm-2.9823 12.8677-1.6158.8797a17.133 17.133 0 0 0 1.6158 1.5614 17.1347 17.1347 0 0 0 1.6158-1.5614l-1.6158-.8805zm-3.8854-8.3686 3.8824 1.1918 3.8846-1.1926-3.8846-1.1918-3.8831 1.1926zm.3711 2.392 3.5113 1.1918 3.5113-1.1918-3.5113-1.1926zm-.749-4.781 4.2603 1.1911 4.2617-1.191-4.2617-1.1919-4.261 1.1918Zm2.8085-5.1331-.2441.2418a1.0959 1.0959 0 0 0 1.5281.0197v.6318h.35v-.6379a1.0959 1.0959 0 0 0 1.528-.0196l-.253-.2358a.7527.7527 0 0 1-1.2841-.5298.7482.7482 0 0 1 .464-.6923.7543.7543 0 0 1 .82.1625l.2434-.2426a1.1011 1.1011 0 0 0-1.5282-.0196v-.631h-.3431v.631a1.1011 1.1011 0 0 0-1.5274.0196l.2434.2419a.7527.7527 0 0 1 1.2832.5305.7467.7467 0 0 1-.464.6923.7543.7543 0 0 1-.8192-.1625ZM8.4026 17.5171c.1927.3159.399.6318.619.9447l.7912-.3764zm-1.3438-2.6437c.1905.4557.4036.9228.6447 1.3944l1.3762-.5646Zm-.8177-2.3247c.1247.436.2706.8948.4421 1.3717l1.7927-.6084ZM5.6924 10.18c.0862.452.1852.922.297 1.3921l2.1162-.6492-2.4132-.7436zm-.3718-2.3255c.046.3613.1103.8042.189 1.294l2.218-.6176Zm3.7606 7.8456 2.9135 1.1903 2.9142-1.1903-2.9142-1.194Zm.7414 2.3867 2.1751 1.1926 2.1766-1.1926-2.1766-1.1926z"/></symbol><symbol id="si-kofax" viewBox="0 0 24 24"><path fill="#00558C" d="M1.38 12.94l.576-.5 1.273 1.698h1.835l-2.001-2.593 1.85-1.683h-1.82L1.38 11.545V9.862H0v4.276h1.38z M7.353 9.726c-1.455 0-2.683.5-2.683 2.274s1.228 2.274 2.683 2.274 2.684-.5 2.684-2.274-1.228-2.274-2.684-2.274zm0 3.593c-.728 0-1.228-.41-1.228-1.319 0-.894.5-1.319 1.228-1.319.743 0 1.228.425 1.228 1.32 0 .894-.5 1.318-1.228 1.318zM11.795 14.138v-1.653h2.365v-.925h-2.365v-.742h2.547v-.956h-3.926v4.276zM22.21 11.91l1.593-2.063h-1.638L21.407 11l-.758-1.153h-1.637l1.592 2.062-1.607 2.001-1.668-4.048h-1.683l-1.759 4.276h1.471l.243-.698h1.804l.242.698h2.896l.88-1.289.879 1.289H24zm-6.276.651l.576-1.622h.015l.577 1.622z"/></symbol><symbol id="si-komoot" viewBox="0 0 24 24"><path fill="#6AA127" d="M9.8 14.829l2.2-3.43 2.2 3.43 5.962 5.962A11.946 11.946 0 0 1 12 24c-3.043 0-5.935-1.14-8.162-3.209zM0 12C0 5.385 5.385 0 12 0c6.62 0 12 5.385 12 12 0 2.663-.855 5.175-2.469 7.284l-6.018-6.018c.15-.412.226-.839.226-1.27A3.743 3.743 0 0 0 12 8.257a3.743 3.743 0 0 0-3.739 3.739c0 .431.075.858.226 1.27l-6.018 6.018A11.865 11.865 0 0 1 0 12Z"/></symbol><symbol id="si-kong" viewBox="0 0 24 24"><path fill="#003459" d="M7.88 18.96h4.405l2.286 2.876-.393.979h-5.69l.139-.979-1.341-2.117.594-.759Zm3.152-12.632 2.36-.004L24 18.97l-.824 3.845h-4.547l.283-1.083L9 9.912l2.032-3.584Zm4.17-5.144 4.932 3.876-.632.651.855 1.191v1.273l-2.458 2.004-4.135-4.884h-2.407l.969-1.777 2.876-2.334ZM4.852 13.597l3.44-2.989 4.565 5.494-1.296 2.012h-4.21l-2.912 3.822-.665.879H0v-4.689l3.517-4.529h1.335Z"/></symbol><symbol id="si-kongregate" viewBox="0 0 24 24"><path fill="#F04438" d="M2.667 0A2.667 2.667 0 0 0 0 2.667v18.666A2.667 2.667 0 0 0 2.667 24h18.666A2.667 2.667 0 0 0 24 21.333V2.667A2.667 2.667 0 0 0 21.333 0ZM5.6 5.333h2.667v5.334H13.6v2.666H8.267v5.334H5.6Zm8 8h1.678a1.6 1.6 0 0 1 1.43.885L17.6 16h1.333v2.667h-2.666zm0-2.666 2.667-5.334h2.666V8H17.6l-.891 1.782a1.6 1.6 0 0 1-1.431.885z"/></symbol><symbol id="si-kotlin" viewBox="0 0 24 24"><path fill="#7F52FF" d="M24 24H0V0h24L12 12Z"/></symbol><symbol id="si-koyeb" viewBox="0 0 24 24"><path fill="#121212" d="M0 12.822V7.044L11.985.115 24 7.037v5.77L11.992 5.892Zm11.985 1.114L1.92 19.759 0 18.645v-3.557l11.985-6.93L24 15.089v3.542l-1.92 1.13Zm-3.028 9.949L3.95 21.004l8.036-4.656 8.066 4.656-5.009 2.88-3.05-1.759Z"/></symbol><symbol id="si-kred" viewBox="0 0 24 24"><path fill="#72BE50" d="M24 4.678c0-2.08-1.674-3.774-3.727-3.774H3.725C1.67.904 0 2.597 0 4.684v7.535c0 .336.045.667.135.997.03.134.07.264.12.39.25.623.653 1.17 1.173 1.593.51.524 1.17 1.095 1.965 1.71l.105.074.435.33.52.397c1.19.912 3.205 2.453 6.165 4.71.483.366 1.038.676 1.383.676.342 0 .901-.31 1.382-.676 2.96-2.257 4.972-3.798 6.164-4.71l.972-.74h-.002l.11-.085c.798-.612 1.463-1.19 1.968-1.71.514-.418.908-.96 1.15-1.576.166-.44.252-.906.254-1.376v-7.15h-.003l.003-.003v-.39zm-4.14 6.242a6.42 6.42 0 00-.283-.045c-.105 0-.226-.015-.33-.015a1.883 1.883 0 00-.81.164c-.214.1-.4.248-.54.436-.135.196-.23.415-.286.646-.06.254-.09.524-.09.81v2.88h-5.027l-3.733-5.583-1.556 1.575v3.975h-2.72V3.393H7.2v5.13l4.83-5.127h3.395l-4.83 4.885 5.166 7.293V9.395h1.662v1.182h.023c.084-.195.195-.38.33-.547.144-.168.3-.312.483-.43.18-.106.375-.21.58-.27.205-.06.42-.09.64-.09.114 0 .24.03.38.06z"/></symbol></defs></svg>
